<svg xmlns="http://www.w3.org/2000/svg" xmlns:xlink="http://www.w3.org/1999/xlink" id="euzwX6gJ1tm1" viewBox="0 0 400 400" shape-rendering="geometricPrecision" text-rendering="geometricPrecision"><defs><linearGradient id="euzwX6gJ1tm35-fill" x1="98.696899" y1="309.559019" x2="307.432970" y2="309.559019" spreadMethod="pad" gradientUnits="userSpaceOnUse"><stop id="euzwX6gJ1tm35-fill-0" offset="0%" stop-color="rgb(153,0,0)"/><stop id="euzwX6gJ1tm35-fill-1" offset="100%" stop-color="rgb(204,51,0)"/></linearGradient></defs><g id="euzwX6gJ1tm2"><g id="euzwX6gJ1tm3"><polygon id="euzwX6gJ1tm4" points="262.500000,83.600000 290,96.700000 243.700000,275.100000 212.800000,265.700000" clip-rule="evenodd" fill="rgb(254,194,77)" fill-rule="evenodd" stroke="none" stroke-width="1"/><polygon id="euzwX6gJ1tm5" points="169.200000,109 199.600000,111.700000 219.100000,294.900000 186.900000,297" clip-rule="evenodd" fill="rgb(242,189,83)" fill-rule="evenodd" stroke="none" stroke-width="1"/><polygon id="euzwX6gJ1tm6" points="74.400000,89 101.300000,73.200000 188.900000,258.600000 160.600000,271" clip-rule="evenodd" fill="rgb(254,170,54)" fill-rule="evenodd" stroke="none" stroke-width="1"/><polygon id="euzwX6gJ1tm7" points="74.400000,89 71.200000,99.800000 150.700000,276 160.600000,271" clip-rule="evenodd" fill="rgb(248,135,39)" fill-rule="evenodd" stroke="none" stroke-width="1"/><path id="euzwX6gJ1tm8" d="M94.900000,109.100000C97.200000,109.100000,99,111,99,113.200000C99,115.400000,97.100000,117.300000,94.900000,117.300000C92.600000,117.300000,90.800000,115.400000,90.800000,113.200000C90.800000,111,92.700000,109.100000,94.900000,109.100000Z" clip-rule="evenodd" fill="rgb(253,150,43)" fill-rule="evenodd" stroke="none" stroke-width="1"/><path id="euzwX6gJ1tm9" d="M115.900000,148.600000C117,148.600000,118,149.500000,118,150.700000C118,151.800000,117.100000,152.800000,115.900000,152.800000C114.700000,152.800000,113.800000,151.900000,113.800000,150.700000C113.800000,149.500000,114.700000,148.600000,115.900000,148.600000Z" clip-rule="evenodd" fill="rgb(253,150,43)" fill-rule="evenodd" stroke="none" stroke-width="1"/><polygon id="euzwX6gJ1tm10" points="137.200000,45.200000 168.500000,68 187.900000,243.400000 157.100000,245.600000" clip-rule="evenodd" fill="rgb(254,194,77)" fill-rule="evenodd" stroke="none" stroke-width="1"/><polygon id="euzwX6gJ1tm11" points="137.200000,45.200000 131.500000,48.400000 151.200000,246 157.100000,245.600000" clip-rule="evenodd" fill="rgb(253,150,43)" fill-rule="evenodd" stroke="none" stroke-width="1"/><path id="euzwX6gJ1tm12" d="M162.400000,91.600000C163.400000,91.600000,164.300000,92.400000,164.300000,93.500000C164.300000,94.500000,163.500000,95.400000,162.400000,95.400000C161.400000,95.400000,160.500000,94.600000,160.500000,93.500000C160.600000,92.400000,161.400000,91.600000,162.400000,91.600000Z" clip-rule="evenodd" fill="rgb(240,185,74)" fill-rule="evenodd" stroke="none" stroke-width="1"/><path id="euzwX6gJ1tm13" d="M169,153.300000C169.800000,153.300000,170.400000,153.900000,170.400000,154.700000C170.400000,155.500000,169.800000,156.100000,169,156.100000C168.200000,156.100000,167.600000,155.500000,167.600000,154.700000C167.600000,153.900000,168.200000,153.300000,169,153.300000Z" clip-rule="evenodd" fill="rgb(240,185,74)" fill-rule="evenodd" stroke="none" stroke-width="1"/><path id="euzwX6gJ1tm14" d="M156.100000,118.900000C158.200000,118.900000,159.800000,120.600000,159.800000,122.600000C159.800000,124.700000,158.100000,126.300000,156.100000,126.300000C154,126.300000,152.400000,124.600000,152.400000,122.600000C152.300000,120.500000,154,118.900000,156.100000,118.900000Z" clip-rule="evenodd" fill="rgb(240,185,74)" fill-rule="evenodd" stroke="none" stroke-width="1"/><polygon id="euzwX6gJ1tm15" points="240.100000,54.600000 269.600000,62.300000 258,246.200000 225.900000,242.900000" clip-rule="evenodd" fill="rgb(254,194,77)" fill-rule="evenodd" stroke="none" stroke-width="1"/><polygon id="euzwX6gJ1tm16" points="240.100000,54.600000 233.600000,56.900000 219.700000,242.200000 225.900000,242.900000" clip-rule="evenodd" fill="rgb(253,150,43)" fill-rule="evenodd" stroke="none" stroke-width="1"/><path id="euzwX6gJ1tm17" d="M258.600000,84.700000C259.600000,84.700000,260.500000,85.500000,260.500000,86.600000C260.500000,87.600000,259.700000,88.500000,258.600000,88.500000C257.600000,88.500000,256.700000,87.700000,256.700000,86.600000C256.700000,85.500000,257.500000,84.700000,258.600000,84.700000Z" clip-rule="evenodd" fill="rgb(240,185,74)" fill-rule="evenodd" stroke="none" stroke-width="1"/><path id="euzwX6gJ1tm18" d="M246.200000,111.700000C248.300000,111.700000,249.900000,113.400000,249.900000,115.400000C249.900000,117.500000,248.200000,119.100000,246.200000,119.100000C244.100000,119.100000,242.500000,117.400000,242.500000,115.400000C242.500000,113.300000,244.100000,111.700000,246.200000,111.700000Z" clip-rule="evenodd" fill="rgb(240,185,74)" fill-rule="evenodd" stroke="none" stroke-width="1"/><path id="euzwX6gJ1tm19" d="M252.800000,71.200000C253.600000,71.200000,254.200000,71.800000,254.200000,72.600000C254.200000,73.400000,253.600000,74,252.800000,74C252,74,251.400000,73.400000,251.400000,72.600000C251.300000,71.900000,252,71.200000,252.800000,71.200000Z" clip-rule="evenodd" fill="rgb(240,185,74)" fill-rule="evenodd" stroke="none" stroke-width="1"/><polygon id="euzwX6gJ1tm20" points="192.700000,25 230.400000,32.100000 231.400000,263.700000 190.900000,262.200000" clip-rule="evenodd" fill="rgb(254,170,54)" fill-rule="evenodd" stroke="none" stroke-width="1"/><polygon id="euzwX6gJ1tm21" points="192.700000,25 184.800000,28.400000 183.100000,261.900000 190.900000,262.200000" clip-rule="evenodd" fill="rgb(248,135,39)" fill-rule="evenodd" stroke="none" stroke-width="1"/><path id="euzwX6gJ1tm22" d="M218.500000,92.400000C220.800000,92.400000,222.600000,94.200000,222.600000,96.500000C222.600000,98.800000,220.800000,100.600000,218.500000,100.600000C216.200000,100.600000,214.400000,98.800000,214.400000,96.500000C214.400000,94.200000,216.200000,92.400000,218.500000,92.400000Z" clip-rule="evenodd" fill="rgb(253,150,43)" fill-rule="evenodd" stroke="none" stroke-width="1"/><path id="euzwX6gJ1tm23" d="M207.600000,128C209.500000,128,211,129.500000,211,131.400000C211,133.300000,209.500000,134.800000,207.600000,134.800000C205.700000,134.800000,204.200000,133.300000,204.200000,131.400000C204.200000,129.500000,205.700000,128,207.600000,128Z" clip-rule="evenodd" fill="rgb(253,150,43)" fill-rule="evenodd" stroke="none" stroke-width="1"/><path id="euzwX6gJ1tm24" d="M213.600000,168.100000C217.400000,168.100000,220.500000,171.200000,220.500000,175C220.500000,178.800000,217.400000,181.900000,213.600000,181.900000C209.800000,181.900000,206.700000,178.800000,206.700000,175C206.700000,171.200000,209.800000,168.100000,213.600000,168.100000Z" clip-rule="evenodd" fill="rgb(253,150,43)" fill-rule="evenodd" stroke="none" stroke-width="1"/><polygon id="euzwX6gJ1tm25" points="114.900000,110.200000 145.200000,106.700000 200.700000,282.400000 169.600000,290.900000" clip-rule="evenodd" fill="rgb(249,215,108)" fill-rule="evenodd" stroke="none" stroke-width="1"/><polygon id="euzwX6gJ1tm26" points="114.900000,110.200000 109.700000,114.700000 163.600000,292.500000 169.600000,290.900000" clip-rule="evenodd" fill="rgb(253,150,43)" fill-rule="evenodd" stroke="none" stroke-width="1"/><path id="euzwX6gJ1tm27" d="M150.800000,198.100000C152.900000,198.100000,154.500000,199.800000,154.500000,201.800000C154.500000,203.900000,152.800000,205.500000,150.800000,205.500000C148.700000,205.500000,147.100000,203.800000,147.100000,201.800000C147.100000,199.700000,148.700000,198.100000,150.800000,198.100000Z" clip-rule="evenodd" fill="rgb(237,206,102)" fill-rule="evenodd" stroke="none" stroke-width="1"/><path id="euzwX6gJ1tm28" d="M155.900000,167.800000C156.700000,167.800000,157.300000,168.400000,157.300000,169.200000C157.300000,170,156.700000,170.600000,155.900000,170.600000C155.100000,170.600000,154.500000,170,154.500000,169.200000C154.500000,168.400000,155.100000,167.800000,155.900000,167.800000Z" clip-rule="evenodd" fill="rgb(237,206,102)" fill-rule="evenodd" stroke="none" stroke-width="1"/><polygon id="euzwX6gJ1tm29" points="292.500000,51.900000 328.800000,70.200000 282.900000,255.300000 244.500000,245.800000" clip-rule="evenodd" fill="rgb(254,170,54)" fill-rule="evenodd" stroke="none" stroke-width="1"/><polygon id="euzwX6gJ1tm30" points="292.500000,51.900000 284.300000,53.600000 237,243.900000 244.500000,245.800000" clip-rule="evenodd" fill="rgb(248,135,39)" fill-rule="evenodd" stroke="none" stroke-width="1"/><path id="euzwX6gJ1tm31" d="M296.800000,143.300000C299.100000,143.300000,300.900000,145.100000,300.900000,147.400000C300.900000,149.700000,299.100000,151.500000,296.800000,151.500000C294.500000,151.500000,292.700000,149.700000,292.700000,147.400000C292.700000,145.200000,294.500000,143.300000,296.800000,143.300000Z" clip-rule="evenodd" fill="rgb(253,150,43)" fill-rule="evenodd" stroke="none" stroke-width="1"/><path id="euzwX6gJ1tm32" d="M299.100000,82.200000C301,82.200000,302.500000,83.700000,302.500000,85.600000C302.500000,87.500000,301,89,299.100000,89C297.200000,89,295.700000,87.500000,295.700000,85.600000C295.700000,83.700000,297.200000,82.200000,299.100000,82.200000Z" clip-rule="evenodd" fill="rgb(253,150,43)" fill-rule="evenodd" stroke="none" stroke-width="1"/></g><g id="euzwX6gJ1tm33"><path id="euzwX6gJ1tm34" d="M307.100000,168.500000L281.100000,168.500000C276.900000,168.500000,273.300000,171.300000,272.300000,175.500000C265.100000,207.100000,236.800000,230.600000,203,230.600000C169.200000,230.600000,141,207.100000,133.700000,175.500000C132.800000,171.400000,129.200000,168.500000,124.900000,168.500000L98.900000,168.500000C96.200000,168.500000,93.900000,169.500000,92.100000,171.600000C90.300000,173.600000,89.600000,176,89.900000,178.700000L114.500000,367.200000C115.100000,371.700000,118.900000,375,123.400000,375L282.100000,375C286.600000,375,290.400000,371.700000,291,367.200000L316,178.700000C316.300000,176,315.600000,173.600000,313.800000,171.600000C312,169.600000,309.700000,168.500000,307.100000,168.500000L307.100000,168.500000Z" clip-rule="evenodd" fill="rgb(204,51,0)" fill-rule="evenodd" stroke="none" stroke-width="1"/><path id="euzwX6gJ1tm35" d="M98.700000,244.200000L114.800000,367.200000C115.400000,371.700000,119.200000,375,123.700000,375L282.400000,375C286.900000,375,290.700000,371.700000,291.300000,367.200000L307.400000,244.100000L307.400000,244.100000C297.100000,293.500000,253.500000,328.900000,203.100000,328.900000C152.600000,329,109,293.500000,98.700000,244.200000C98.700000,244.100000,98.700000,244.200000,98.700000,244.200000L98.700000,244.200000Z" clip-rule="evenodd" fill="url(#euzwX6gJ1tm35-fill)" fill-rule="evenodd" stroke="none" stroke-width="1"/></g></g></svg>