<svg xmlns="http://www.w3.org/2000/svg" viewBox="0 0 750 500"><g id="freepik--background-complete--inject-2"><path d="M585.65,202.63H728.14l-23.21,16.75v33a6.88,6.88,0,0,1-6.88,6.88H585.65a6.88,6.88,0,0,1-6.88-6.88V209.51A6.88,6.88,0,0,1,585.65,202.63Z" style="fill:#f5f5f5"></path><path d="M591.59,225.92c0,.14,21.49.25,48,.25s48-.11,48-.25-21.49-.25-48-.25S591.59,225.78,591.59,225.92Z" style="fill:#e0e0e0"></path><path d="M591.59,238.57c0,.14,21.49.25,48,.25s48-.11,48-.25-21.49-.25-48-.25S591.59,238.44,591.59,238.57Z" style="fill:#e0e0e0"></path><rect x="362.57" y="81.03" width="6.67" height="22.34" style="fill:#e0e0e0"></rect><rect x="306.87" y="77.8" width="6.67" height="25.57" style="fill:#e0e0e0"></rect><rect x="320.8" y="72.47" width="6.67" height="30.9" style="fill:#e0e0e0"></rect><rect x="334.72" y="74.16" width="6.67" height="29.21" style="fill:#e0e0e0"></rect><rect x="348.64" y="64.28" width="6.67" height="39.09" style="fill:#e0e0e0"></rect><rect x="376.49" y="64.47" width="6.67" height="38.9" style="fill:#e0e0e0"></rect><rect x="390.42" y="77.25" width="6.67" height="26.12" style="fill:#e0e0e0"></rect><rect x="404.34" y="66.18" width="6.67" height="37.19" style="fill:#e0e0e0"></rect><rect x="418.27" y="57.81" width="6.67" height="45.56" style="fill:#e0e0e0"></rect><rect x="432.19" y="65.99" width="6.67" height="37.38" style="fill:#e0e0e0"></rect><path d="M614.56,101.3l55.14-8.43a55.8,55.8,0,1,1-49-47Z" style="fill:#ebebeb"></path><path d="M632.45,46l-6.69,42.74,42-7.88S661.55,56.94,632.45,46Z" style="fill:#e0e0e0"></path><path d="M51.48,205a27.34,27.34,0,1,1,27.78,27A27.44,27.44,0,0,1,51.48,205Zm40.41-.66A13.07,13.07,0,1,0,79,217.69,13.11,13.11,0,0,0,91.89,204.34Z" style="fill:#f5f5f5"></path><path d="M51.48,205a27.44,27.44,0,0,1,26.9-27.91l.23,14.33A13.14,13.14,0,0,0,79,217.69L79.26,232A27.43,27.43,0,0,1,51.48,205Z" style="fill:#e0e0e0"></path><path d="M75.93,174.88a31.26,31.26,0,0,1,32,31.13l-16.7.26c-.13-8.47-6.58-13.8-15-13.66Z" style="fill:#ebebeb"></path><rect x="194.36" y="301.44" width="34.76" height="41.32" style="fill:#f5f5f5"></rect><rect x="38.5" y="298.74" width="157.07" height="46.61" style="fill:#e0e0e0"></rect><path d="M230.17,302.66H191.35v-3.92h38.82a2,2,0,0,1,2,2h0A2,2,0,0,1,230.17,302.66Z" style="fill:#e0e0e0"></path><path d="M230.17,345.35H191.35v-3.92h38.82a2,2,0,0,1,2,2h0A2,2,0,0,1,230.17,345.35Z" style="fill:#e0e0e0"></path><rect x="164.66" y="298.74" width="18.56" height="46.61" style="fill:#ebebeb"></rect><rect x="53.43" y="299.26" width="18.56" height="46.61" style="fill:#ebebeb"></rect><path d="M229.12,308.27c0,.12-7.52.21-16.8.21s-16.8-.09-16.8-.21,7.52-.21,16.8-.21S229.12,308.16,229.12,308.27Z" style="fill:#e0e0e0"></path><path d="M229.12,314.47c0,.11-7.52.2-16.8.2s-16.8-.09-16.8-.2,7.52-.21,16.8-.21S229.12,314.35,229.12,314.47Z" style="fill:#e0e0e0"></path><path d="M229.12,322.1c0,.11-7.52.2-16.8.2s-16.8-.09-16.8-.2,7.52-.21,16.8-.21S229.12,322,229.12,322.1Z" style="fill:#e0e0e0"></path><path d="M229.12,329.72c0,.12-7.52.21-16.8.21s-16.8-.09-16.8-.21,7.52-.2,16.8-.2S229.12,329.61,229.12,329.72Z" style="fill:#e0e0e0"></path><path d="M229.12,337.35c0,.12-7.52.21-16.8.21s-16.8-.09-16.8-.21,7.52-.2,16.8-.2S229.12,337.24,229.12,337.35Z" style="fill:#e0e0e0"></path><rect x="84.02" y="317.9" width="70.66" height="8.39" style="fill:#ebebeb"></rect><rect x="193.48" y="346.27" width="35.29" height="25.18" style="fill:#fafafa"></rect><rect x="43.7" y="345.35" width="150.18" height="27" style="fill:#f5f5f5"></rect><path d="M192.78,347.18h37.93a.91.91,0,0,0,.91-.91h0a.92.92,0,0,0-.91-.92H192.78Z" style="fill:#f5f5f5"></path><path d="M192.78,370.53H231.2a.42.42,0,0,1,.42.42v1a.42.42,0,0,1-.42.42H192.78a0,0,0,0,1,0,0v-1.83A0,0,0,0,1,192.78,370.53Z" style="fill:#f5f5f5"></path><path d="M228.77,351.05c0,.11-7.82.21-17.45.21s-17.45-.1-17.45-.21,7.81-.21,17.45-.21S228.77,350.94,228.77,351.05Z" style="fill:#e0e0e0"></path><path d="M228.77,355.81c0,.12-7.82.21-17.45.21s-17.45-.09-17.45-.21,7.81-.2,17.45-.2S228.77,355.7,228.77,355.81Z" style="fill:#e0e0e0"></path><path d="M228.77,360.58c0,.11-7.82.2-17.45.2s-17.45-.09-17.45-.2,7.81-.21,17.45-.21S228.77,360.46,228.77,360.58Z" style="fill:#e0e0e0"></path><path d="M228.77,365.34c0,.11-7.82.2-17.45.2s-17.45-.09-17.45-.2,7.81-.21,17.45-.21S228.77,365.22,228.77,365.34Z" style="fill:#e0e0e0"></path><rect x="198.1" y="374.76" width="36.02" height="68.25" style="fill:#ebebeb"></rect><rect x="29.03" y="372.36" width="169.07" height="74" style="fill:#e0e0e0"></rect><path d="M236.94,446.35H193.48v-4.8h43.46a2.41,2.41,0,0,1,2.4,2.4h0A2.4,2.4,0,0,1,236.94,446.35Z" style="fill:#e0e0e0"></path><path d="M193.48,372.36h44.76a1.1,1.1,0,0,1,1.1,1.1v2.6a1.1,1.1,0,0,1-1.1,1.1H193.48a0,0,0,0,1,0,0v-4.8A0,0,0,0,1,193.48,372.36Z" style="fill:#e0e0e0"></path><path d="M234.12,383.9c0,.12-8.06.21-18,.21s-18-.09-18-.21,8.06-.2,18-.2S234.12,383.79,234.12,383.9Z" style="fill:#e0e0e0"></path><path d="M234.12,392.66c0,.11-8.06.2-18,.2s-18-.09-18-.2,8.06-.21,18-.21S234.12,392.54,234.12,392.66Z" style="fill:#e0e0e0"></path><path d="M234.12,401.41c0,.11-8.06.21-18,.21s-18-.1-18-.21,8.06-.21,18-.21S234.12,401.3,234.12,401.41Z" style="fill:#e0e0e0"></path><path d="M234.12,410.16c0,.12-8.06.21-18,.21s-18-.09-18-.21,8.06-.2,18-.2S234.12,410.05,234.12,410.16Z" style="fill:#e0e0e0"></path><path d="M234.12,418.92c0,.11-8.06.2-18,.2s-18-.09-18-.2,8.06-.21,18-.21S234.12,418.8,234.12,418.92Z" style="fill:#e0e0e0"></path><path d="M234.12,427.67c0,.11-8.06.21-18,.21s-18-.1-18-.21,8.06-.21,18-.21S234.12,427.56,234.12,427.67Z" style="fill:#e0e0e0"></path><path d="M234.12,436.42c0,.12-8.06.21-18,.21s-18-.09-18-.21,8.06-.2,18-.2S234.12,436.31,234.12,436.42Z" style="fill:#e0e0e0"></path><path d="M86.88,413.4v4.12c0,5-2.48,7.79-7.26,7.79s-7.26-2.83-7.26-7.79V401.41c0-5,2.48-7.8,7.26-7.8s7.26,2.84,7.26,7.8v3h-4.6V401.1c0-2.22-1-3.06-2.52-3.06s-2.53.84-2.53,3.06v16.73c0,2.22,1,3,2.53,3s2.52-.79,2.52-3V413.4Z" style="fill:#ebebeb"></path><path d="M89.45,401.41c0-5,2.61-7.8,7.39-7.8s7.39,2.84,7.39,7.8v16.11c0,5-2.61,7.79-7.39,7.79s-7.39-2.83-7.39-7.79Zm4.87,16.42c0,2.22,1,3.06,2.52,3.06s2.52-.84,2.52-3.06V401.1c0-2.22-1-3.06-2.52-3.06s-2.52.84-2.52,3.06Z" style="fill:#ebebeb"></path><path d="M107.37,394h4.87v26.56h8V425H107.37Z" style="fill:#ebebeb"></path><path d="M122,401.41c0-5,2.61-7.8,7.39-7.8s7.4,2.84,7.4,7.8v16.11c0,5-2.61,7.79-7.4,7.79s-7.39-2.83-7.39-7.79Zm4.87,16.42c0,2.22,1,3.06,2.52,3.06s2.53-.84,2.53-3.06V401.1c0-2.22-1-3.06-2.53-3.06s-2.52.84-2.52,3.06Z" style="fill:#ebebeb"></path><path d="M144.56,394v23.91c0,2.21,1,3,2.52,3s2.52-.8,2.52-3V394h4.61v23.6c0,4.95-2.48,7.79-7.26,7.79s-7.26-2.84-7.26-7.79V394Z" style="fill:#ebebeb"></path><path d="M167.71,425a9.39,9.39,0,0,1-.45-3.81v-4.87c0-2.88-1-3.94-3.18-3.94h-1.69V425h-4.87V394h7.35c5,0,7.22,2.35,7.22,7.13v2.43c0,3.19-1,5.27-3.19,6.29,2.44,1,3.23,3.36,3.23,6.59v4.79a9.07,9.07,0,0,0,.54,3.76Zm-5.32-26.56v9.51h1.91c1.81,0,2.92-.79,2.92-3.27v-3.06c0-2.21-.75-3.18-2.48-3.18Z" style="fill:#ebebeb"></path><path d="M85.83,356H82.28l.19-.92h8.15l-.2.92H86.88l-1.83,9.14H84Z" style="fill:#e0e0e0"></path><path d="M97.46,357.57l-5.52,8.54C91,367.55,90.3,368,89.21,368a2.45,2.45,0,0,1-1.8-.67l.54-.75a1.81,1.81,0,0,0,1.34.55c.65,0,1.15-.31,1.74-1.23l.53-.8-1.88-7.52h1L92.28,364l4.13-6.44Z" style="fill:#e0e0e0"></path><path d="M105.86,360.7a4.26,4.26,0,0,1-4.28,4.5,2.84,2.84,0,0,1-2.88-1.65l-.86,4.37h-1l2.06-10.35h1l-.24,1.21a3.82,3.82,0,0,1,3-1.27A3.05,3.05,0,0,1,105.86,360.7Zm-1,.06a2.22,2.22,0,0,0-2.49-2.36A3.3,3.3,0,0,0,99.08,362a2.2,2.2,0,0,0,2.49,2.35A3.3,3.3,0,0,0,104.83,360.76Z" style="fill:#e0e0e0"></path><path d="M107.05,362a4.29,4.29,0,0,1,4.37-4.49c2.1,0,3.44,1.24,3.44,3.19a4.3,4.3,0,0,1-4.37,4.5A3.11,3.11,0,0,1,107.05,362Zm6.79-1.24a2.22,2.22,0,0,0-2.49-2.36,3.33,3.33,0,0,0-3.28,3.55,2.21,2.21,0,0,0,2.49,2.35A3.31,3.31,0,0,0,113.84,360.76Z" style="fill:#e0e0e0"></path><path d="M124.64,357.57l-1.32,6.64c-.53,2.68-1.94,3.78-4.4,3.78a4.82,4.82,0,0,1-3.36-1.13l.6-.78a4,4,0,0,0,2.84,1,3,3,0,0,0,3.27-2.71l.18-.83a3.9,3.9,0,0,1-3,1.29c-2,0-3.34-1.16-3.34-3a4.18,4.18,0,0,1,4.31-4.29,2.9,2.9,0,0,1,2.95,1.73l.32-1.67Zm-1.72,3c0-1.38-.93-2.2-2.5-2.2a3.21,3.21,0,0,0-3.29,3.34c0,1.38.92,2.2,2.5,2.2A3.21,3.21,0,0,0,122.92,360.6Z" style="fill:#e0e0e0"></path><path d="M131.31,357.51l-.19,1h-.28c-1.61,0-2.69.92-3.07,2.8l-.76,3.84h-1l1.5-7.56h1L128.2,359A3.43,3.43,0,0,1,131.31,357.51Z" style="fill:#e0e0e0"></path><path d="M140,357.57l-1.51,7.56h-1l.24-1.19a3.85,3.85,0,0,1-2.94,1.26,3.05,3.05,0,0,1-3.3-3.2,4.26,4.26,0,0,1,4.27-4.49,2.84,2.84,0,0,1,2.88,1.64l.32-1.58Zm-1.7,3.19a2.22,2.22,0,0,0-2.49-2.36,3.32,3.32,0,0,0-3.27,3.55A2.2,2.2,0,0,0,135,364.3,3.31,3.31,0,0,0,138.28,360.76Z" style="fill:#e0e0e0"></path><path d="M149.79,360.7a4.26,4.26,0,0,1-4.28,4.5,2.84,2.84,0,0,1-2.88-1.65l-.86,4.37h-1l2.05-10.35h1l-.24,1.21a3.8,3.8,0,0,1,2.94-1.27A3.06,3.06,0,0,1,149.79,360.7Zm-1,.06a2.22,2.22,0,0,0-2.49-2.36A3.3,3.3,0,0,0,143,362a2.2,2.2,0,0,0,2.48,2.35A3.3,3.3,0,0,0,148.76,360.76Z" style="fill:#e0e0e0"></path><path d="M158.94,360a4.37,4.37,0,0,1-.08.86l-.86,4.3h-1l.87-4.31a4.48,4.48,0,0,0,.07-.69c0-1.08-.65-1.7-2-1.7a2.94,2.94,0,0,0-3.07,2.65l-.81,4.05h-1l2.13-10.67h1l-.85,4.24a3.72,3.72,0,0,1,2.89-1.19C158,357.51,158.94,358.43,158.94,360Z" style="fill:#e0e0e0"></path><path d="M168.5,357.57,163,366.11c-.94,1.44-1.64,1.88-2.73,1.88a2.45,2.45,0,0,1-1.8-.67l.55-.75a1.77,1.77,0,0,0,1.33.55c.65,0,1.15-.31,1.74-1.23l.54-.8-1.89-7.52h1l1.56,6.44,4.13-6.44Z" style="fill:#e0e0e0"></path><path d="M191.28,46.79H37.89l25,18v35.47a7.4,7.4,0,0,0,7.41,7.41h121a7.41,7.41,0,0,0,7.41-7.41V54.2A7.41,7.41,0,0,0,191.28,46.79Z" style="fill:#f5f5f5"></path><path d="M184.88,71.86c0,.15-23.13.27-51.66.27S81.55,72,81.55,71.86s23.13-.27,51.67-.27S184.88,71.71,184.88,71.86Z" style="fill:#e0e0e0"></path><path d="M184.88,85.48c0,.15-23.13.27-51.66.27s-51.67-.12-51.67-.27,23.13-.27,51.67-.27S184.88,85.33,184.88,85.48Z" style="fill:#e0e0e0"></path></g><g id="freepik--Table--inject-2"><path d="M723.27,446.35c0,.15-156.84.26-350.25.26s-350.29-.11-350.29-.26,156.8-.26,350.29-.26S723.27,446.21,723.27,446.35Z" style="fill:#263238"></path></g><g id="freepik--Plants--inject-2"><path d="M657.45,395.31s-26.51-30.5-36.51-61-5.25-27-5.25-27,13.5,29.64,23.75,43.95S668,386.56,668,386.56Z" style="fill:#455a64"></path><path d="M662.73,312a1.54,1.54,0,0,0-2.87,1c1.61,10.72,5.11,35.87,5,52.18-.18,21.19,0,29.38,0,29.38h11s-2-43.8-4.45-57.16C669.67,328.06,666,317.66,662.73,312Z" style="fill:#455a64"></path><path d="M668.75,391a117,117,0,0,0,9.08-32.94c.91-7.8-.72-18.34-3.13-32.41a87.72,87.72,0,0,1-1.39-15.59,2.63,2.63,0,0,1,4.94-1.24c1.33,2.38,5.19,10.5,6.17,15.58,2.67,13.89,5.69,20.84,3.38,34s-10.86,33.48-10.86,33.48Z" style="fill:#455a64"></path><path d="M678.68,391.91s29.11-62.55,31.13-71.83,8.87-30.66,9.68-29.45,2,12.51-3.23,25.42-27.64,77.76-27.64,77.76h-9.94" style="fill:#455a64"></path><path d="M665.56,389.11a6.71,6.71,0,0,1-.82-.56c-.51-.39-1.3-.94-2.25-1.72a100.71,100.71,0,0,1-7.82-6.91,131,131,0,0,1-21.12-27.1,177.11,177.11,0,0,1-14.41-31.22c-1.46-4.15-2.53-7.55-3.22-9.92-.36-1.17-.61-2.1-.78-2.72a5.23,5.23,0,0,1-.22-1,6.23,6.23,0,0,1,.34.93l.89,2.69c.76,2.34,1.89,5.72,3.4,9.84a189.55,189.55,0,0,0,14.54,31.06A136.51,136.51,0,0,0,655,379.61c3.11,3.1,5.78,5.45,7.66,7,.93.81,1.69,1.39,2.18,1.81A6.1,6.1,0,0,1,665.56,389.11Z" style="fill:#263238"></path><path d="M668.74,359.1a11.17,11.17,0,0,1-.26-1.83c-.14-1.3-.32-3-.53-5-.46-4.24-1.18-10.07-2.21-16.48s-2.18-12.18-3.07-16.34c-.43-2-.79-3.66-1.06-4.93a11.16,11.16,0,0,1-.33-1.83,10.67,10.67,0,0,1,.56,1.77c.33,1.15.76,2.82,1.26,4.89,1,4.14,2.22,9.91,3.25,16.34s1.68,12.28,2,16.53c.18,2.13.29,3.85.34,5A9,9,0,0,1,668.74,359.1Z" style="fill:#263238"></path><path d="M675.56,308.35a4.66,4.66,0,0,1,.34.8c.23.59.52,1.36.88,2.32s.82,2.25,1.25,3.73,1,3.12,1.41,5l.72,2.94c.25,1,.42,2.11.64,3.22.48,2.22.77,4.63,1.12,7.16a106.64,106.64,0,0,1-1.18,33.06c-.53,2.5-1,4.88-1.63,7.06-.3,1.09-.55,2.16-.87,3.16s-.63,2-.93,2.89c-.56,1.85-1.23,3.46-1.77,4.89s-1.06,2.65-1.51,3.63l-1,2.25a4.32,4.32,0,0,1-.4.77,4.43,4.43,0,0,1,.29-.82l.92-2.3c.42-1,.92-2.21,1.41-3.65s1.15-3.06,1.68-4.91c.28-.92.58-1.88.89-2.88s.54-2.07.83-3.16c.61-2.18,1-4.55,1.57-7a110.65,110.65,0,0,0,1.18-32.89c-.34-2.52-.61-4.92-1.06-7.13-.22-1.11-.38-2.19-.61-3.21s-.46-2-.68-2.94c-.39-1.88-.92-3.54-1.32-5s-.79-2.72-1.14-3.74-.57-1.76-.76-2.36A4.49,4.49,0,0,1,675.56,308.35Z" style="fill:#263238"></path><path d="M719.15,291.89a.75.75,0,0,1,0,.28c0,.22-.08.49-.13.81-.13.71-.29,1.77-.57,3.12-.56,2.69-1.5,6.56-3,11.26s-3.43,10.2-5.79,16.26-5.08,12.65-7.66,19.67-4.65,13.86-6.55,20.06-3.66,11.8-5.39,16.4a105.66,105.66,0,0,1-4.59,10.7c-.6,1.24-1.14,2.16-1.48,2.8l-.41.71a1,1,0,0,1-.16.24,1.12,1.12,0,0,1,.1-.27l.36-.74c.31-.66.81-1.6,1.37-2.85,1.17-2.48,2.75-6.12,4.4-10.74s3.4-10.19,5.26-16.41,3.87-13.08,6.5-20.11,5.34-13.63,7.72-19.67,4.41-11.52,5.9-16.19,2.51-8.51,3.14-11.18c.32-1.33.52-2.38.69-3.08.08-.32.14-.58.19-.8A.91.91,0,0,1,719.15,291.89Z" style="fill:#263238"></path><path d="M629.41,278.07a2.51,2.51,0,0,0-4.13,2.56,71.22,71.22,0,0,0,3.66,9.4c4,8.51,15.76,39,21.26,55.77s13.25,48,13.25,48l11.75-1.9S664.45,340.55,654,322C645.51,307.17,637.07,285.69,629.41,278.07Z" style="fill:#455a64"></path><path d="M653.41,356.28a6.84,6.84,0,0,1,.61,1.41c.35.92.82,2.26,1.35,3.94,1.08,3.35,2.41,8,3.74,13.23s2.44,9.94,3.21,13.37c.36,1.62.65,3,.89,4.07a7.84,7.84,0,0,1,.24,1.51,7.18,7.18,0,0,1-.48-1.45c-.28-1.07-.64-2.42-1.07-4L658.51,375c-1.33-5.2-2.59-9.89-3.56-13.26l-1.16-4A7.63,7.63,0,0,1,653.41,356.28Z" style="fill:#263238"></path><path d="M669.35,392.86a1.41,1.41,0,0,1-.06-.31c0-.25-.08-.55-.14-.93-.12-.81-.23-2-.48-3.56-.43-3.08-1.2-7.53-2.46-12.95a187.84,187.84,0,0,0-5.5-18.77c-2.41-7-5.43-14.48-8.86-22.27-6.91-15.55-13.81-29.34-18.35-39.53-2.29-5.09-4.07-9.24-5.24-12.14-.6-1.44-1-2.57-1.32-3.34-.13-.36-.24-.64-.33-.88a1.13,1.13,0,0,1-.09-.3s.06.09.15.28.23.51.39.85l1.42,3.3c1.24,2.86,3.08,7,5.42,12,4.63,10.15,11.6,23.9,18.52,39.47,3.43,7.8,6.44,15.34,8.83,22.33A178.87,178.87,0,0,1,666.64,375a131.7,131.7,0,0,1,2.27,13c.21,1.55.28,2.76.37,3.58,0,.38.05.68.07.93A1.3,1.3,0,0,1,669.35,392.86Z" style="fill:#263238"></path><path d="M675.2,391.91a13.63,13.63,0,0,1-.4-2c-.23-1.38-.54-3.2-.91-5.4-.81-4.55-2-10.82-3.82-17.64s-3.75-12.91-5.27-17.27L663,344.46a11.9,11.9,0,0,1-.62-1.92,13.23,13.23,0,0,1,.85,1.83c.5,1.19,1.21,2.93,2,5.1a170.1,170.1,0,0,1,5.46,17.26,180.26,180.26,0,0,1,3.65,17.73c.34,2.29.59,4.15.72,5.44A13.42,13.42,0,0,1,675.2,391.91Z" style="fill:#263238"></path><rect x="653.45" y="390.22" width="45.86" height="55.87" style="fill:#FF725E"></rect><g style="opacity:0.30000000000000004"><rect x="653.45" y="390.22" width="45.86" height="55.87"></rect></g><rect x="644" y="390.22" width="40.68" height="55.87" style="fill:#FF725E"></rect><path d="M88.53,370.8c-7.82-5-18.64-5.1-26.24.21-7.22,5.05-10.89,14.23-10.57,23s4.59,19.55,12.56,24.18l23.4-.1a31.42,31.42,0,0,0,12.88-23.61C100.91,385.24,96.34,375.8,88.53,370.8Z" style="fill:#455a64"></path><path d="M77,419.07a10.56,10.56,0,0,1-.14-2c0-1.44-.1-3.28-.16-5.49-.12-4.63-.3-11-.61-18.09s-.69-13.46-1-18.09c-.13-2.2-.24-4-.33-5.48a10.42,10.42,0,0,1,0-2,11.09,11.09,0,0,1,.32,2c.16,1.29.35,3.16.57,5.47.42,4.62.88,11,1.2,18.09s.41,13.49.39,18.13c0,2.32,0,4.19-.08,5.49A11,11,0,0,1,77,419.07Z" style="fill:#263238"></path><path d="M54.08,392.05c0,.2-1.29.27-2.84.14s-2.79-.4-2.78-.6,1.29-.27,2.84-.15S54.1,391.84,54.08,392.05Z" style="fill:#263238"></path><path d="M54.52,384.15c-.09.19-1.18-.11-2.45-.68s-2.23-1.17-2.15-1.36,1.18.12,2.45.68S54.6,384,54.52,384.15Z" style="fill:#263238"></path><path d="M58.58,378.29c-.11.17-1.34-.41-2.62-1.47s-2.09-2.17-1.94-2.3,1.17.69,2.41,1.72S58.69,378.11,58.58,378.29Z" style="fill:#263238"></path><path d="M62.67,372.76c-.19.08-.78-.84-1.32-2.06s-.83-2.28-.64-2.37.78.84,1.32,2.07S62.85,372.68,62.67,372.76Z" style="fill:#263238"></path><path d="M69.08,368.84c-.19.08-.82-.9-1.25-2.26s-.46-2.54-.26-2.57.57,1,1,2.34S69.27,368.75,69.08,368.84Z" style="fill:#263238"></path><path d="M79.77,364.41c.2.07.08.91-.26,1.88s-.78,1.69-1,1.62-.08-.9.26-1.87S79.58,364.34,79.77,364.41Z" style="fill:#263238"></path><path d="M87.71,367.82c.14.15-.37.85-1.14,1.56s-1.5,1.16-1.64,1,.37-.85,1.13-1.56S87.57,367.67,87.71,367.82Z" style="fill:#263238"></path><path d="M94.69,372.33c.12.17-.5.79-1.38,1.39s-1.69.94-1.81.77.51-.79,1.39-1.39S94.58,372.16,94.69,372.33Z" style="fill:#263238"></path><path d="M99.65,379.05c.08.19-.89.79-2.18,1.34s-2.4.84-2.48.65.9-.79,2.19-1.33S99.57,378.86,99.65,379.05Z" style="fill:#263238"></path><path d="M101.61,386.39c0,.2-1,.5-2.23.65s-2.28.12-2.31-.09,1-.49,2.22-.65S101.58,386.18,101.61,386.39Z" style="fill:#263238"></path><path d="M102.62,395.42c-.08.19-1.14-.09-2.36-.62s-2.16-1.12-2.08-1.31,1.15.09,2.37.62S102.71,395.23,102.62,395.42Z" style="fill:#263238"></path><path d="M101.73,403.17c-.07.19-1.41-.13-2.81-1.05s-2.23-2-2.09-2.15,1.17.66,2.5,1.52S101.8,403,101.73,403.17Z" style="fill:#263238"></path><path d="M97.69,410.22c-.12.16-1.19-.46-2.21-1.57s-1.57-2.21-1.41-2.33,1,.77,2,1.82S97.83,410.06,97.69,410.22Z" style="fill:#263238"></path><path d="M59.39,411.05c.09.18-1,1-2.51,1.72S54.13,414,54,413.84s1-1,2.5-1.73S59.29,410.87,59.39,411.05Z" style="fill:#263238"></path><path d="M55.89,404.67c.08.19-.82.78-2,1.32s-2.23.83-2.32.64.82-.78,2-1.32S55.8,404.48,55.89,404.67Z" style="fill:#263238"></path><path d="M53.32,399c0,.2-1.08.53-2.48.73s-2.54.19-2.57,0,1.08-.53,2.47-.72S53.29,398.81,53.32,399Z" style="fill:#263238"></path><path d="M61.75,395.9c.06.2-1,.7-2.45.86s-2.61-.09-2.59-.29,1.14-.29,2.5-.45S61.69,395.7,61.75,395.9Z" style="fill:#263238"></path><path d="M68.76,388.93c.06.19-.8.63-2,.74s-2.08-.14-2.06-.34.92-.29,2-.4S68.7,388.73,68.76,388.93Z" style="fill:#263238"></path><path d="M70.1,383.34c-.07.2-1,.05-2.08-.32s-1.9-.83-1.83-1,1-.05,2.08.33S70.17,383.15,70.1,383.34Z" style="fill:#263238"></path><path d="M72.67,377.69c-.14.15-.78-.27-1.24-1.07s-.5-1.55-.3-1.6.54.53,1,1.23S72.82,377.55,72.67,377.69Z" style="fill:#263238"></path><path d="M69.57,400.82c.05.2-.75.57-1.8.83a6.73,6.73,0,0,1-1.51.22l-.14-.44c.27,0,.44,0,.48.05s-.08.21-.3.38l-.15-.44a7,7,0,0,1,1.45-.5C68.64,400.67,69.52,400.62,69.57,400.82Z" style="fill:#263238"></path><path d="M71,410.73c.07.19-1,.77-2.3,1.3s-2.49.8-2.56.61,1-.78,2.29-1.3S70.94,410.54,71,410.73Z" style="fill:#263238"></path><path d="M63.1,406.33c.07.19-.62.6-1.53.91s-1.7.41-1.77.21.62-.6,1.53-.91S63,406.13,63.1,406.33Z" style="fill:#263238"></path><path d="M63.7,386.17c0,.2-1.24.08-2.61-.41s-2.38-1.15-2.29-1.33,1.2.15,2.54.62S63.75,386,63.7,386.17Z" style="fill:#263238"></path><path d="M82.86,384c.12.17-.55.81-1.49,1.43s-1.8,1-1.92.81.56-.81,1.5-1.43S82.75,383.8,82.86,384Z" style="fill:#263238"></path><path d="M83.91,393.92c0,.2-.67.52-1.58.71s-1.68.18-1.73,0,.67-.52,1.58-.71S83.86,393.72,83.91,393.92Z" style="fill:#263238"></path><path d="M85.12,405.11c-.09.18-1.11-.1-2.27-.64s-2-1.13-2-1.32,1.11.1,2.27.64S85.2,404.92,85.12,405.11Z" style="fill:#263238"></path><path d="M82.55,416c-.16.14-.82-.4-1.47-1.2s-1-1.55-.89-1.68.81.41,1.47,1.21S82.71,415.86,82.55,416Z" style="fill:#263238"></path><path d="M82,376.65c.13.16-.31.71-1.06,1.08s-1.44.4-1.49.2.49-.52,1.16-.86S81.9,376.49,82,376.65Z" style="fill:#263238"></path><path d="M91.42,386.68c.07.19-.8.67-2,.84s-2.15-.06-2.14-.26.93-.33,2-.48S91.35,386.49,91.42,386.68Z" style="fill:#263238"></path><path d="M89.55,377.68c.09.18-.77.8-2,1.19s-2.28.39-2.31.19.92-.53,2.08-.91S89.45,377.49,89.55,377.68Z" style="fill:#263238"></path><path d="M93.47,400.63c0,.2-1.48.33-3.26,0s-3.11-1-3-1.15,1.47.11,3.18.41S93.47,400.42,93.47,400.63Z" style="fill:#263238"></path><path d="M90,413.71c-.12.16-1.21-.48-2.29-1.57S86,410,86.13,409.84s1,.72,2.09,1.78S90.11,413.55,90,413.71Z" style="fill:#263238"></path><path d="M74.64,367a34,34,0,0,0-6.55,5.18,32,32,0,0,0-8.16,18,40.8,40.8,0,0,0,.49,11.05,87.57,87.57,0,0,0,2.07,8.87c.72,2.49,1.38,4.49,1.82,5.88a14.64,14.64,0,0,1,.63,2.18,11.76,11.76,0,0,1-.9-2.08c-.53-1.36-1.27-3.34-2.05-5.83a73.65,73.65,0,0,1-2.24-8.9,39.34,39.34,0,0,1-.56-11.25,31.47,31.47,0,0,1,8.52-18.32A23.15,23.15,0,0,1,72.59,368a12.42,12.42,0,0,1,1.5-.78A2.2,2.2,0,0,1,74.64,367Z" style="fill:#263238"></path><path d="M84.83,418.7c-.17-.09,1.67-2.92,3.35-8a45.39,45.39,0,0,0,2-20.63A38.85,38.85,0,0,0,87,379a26.22,26.22,0,0,0-5.42-7.56,20.12,20.12,0,0,0-5.32-3.36c-1.38-.57-2.21-.71-2.2-.77a2,2,0,0,1,.61,0,10.61,10.61,0,0,1,1.69.45,18.36,18.36,0,0,1,5.56,3.24,25.49,25.49,0,0,1,5.7,7.65,38.19,38.19,0,0,1,3.3,11.2,43.88,43.88,0,0,1-2.25,20.91c-.42,1.29-1,2.39-1.37,3.39s-.88,1.8-1.24,2.46A16,16,0,0,1,84.83,418.7Z" style="fill:#263238"></path><polygon points="55.89 416.93 97.07 416.93 97.32 425.17 55.89 425.17 55.89 416.93" style="fill:#FF725E"></polygon><polygon points="59.39 421.05 61.75 446.21 91.86 446.21 94.28 421.33 59.39 421.05" style="fill:#FF725E"></polygon><path d="M97.32,425.27c0,.21-9.27.37-20.71.37s-20.71-.16-20.71-.37,9.27-.37,20.71-.37S97.32,425.06,97.32,425.27Z" style="fill:#263238"></path><path d="M93.14,432.93a6.2,6.2,0,0,1-.88,1.58,23.14,23.14,0,0,1-3.2,3.77l-.19.18-.18-.2a59.2,59.2,0,0,0-8.08-7.06l.46,0-3.58,3.14L73.26,438l-.23.21-.24-.2-6.87-5.78.4-.05c-1.42,1.74-2.62,3.19-3.56,4.35a9.52,9.52,0,0,1-1.4,1.52,11.21,11.21,0,0,1,1.15-1.72l3.36-4.49.18-.23.23.18,7,5.66h-.46l4.21-3.7,3.59-3.13.22-.19.24.17a52.91,52.91,0,0,1,8,7.29H88.7A40.28,40.28,0,0,0,93.14,432.93Z" style="fill:#263238"></path></g><g id="freepik--speech-bubble--inject-2"><path d="M432.16,185.44,441,170a41.46,41.46,0,1,1,9.93,11l0,0Z" style="fill:#fafafa"></path><path d="M432.16,185.44l18.77-4.28.19,0L451,181h0l-.18.17a42.72,42.72,0,0,0,8.52,5.14,41.46,41.46,0,0,0,11.36,3.24,37.17,37.17,0,0,0,6.56.33c1.13-.06,2.27-.09,3.43-.18l3.5-.53a41.78,41.78,0,0,0,25.89-16.62,41.38,41.38,0,0,0,7-16,42.42,42.42,0,0,0-.49-18.43,40.93,40.93,0,0,0-8.88-17L506,119.17c-.56-.63-1.22-1.14-1.82-1.72s-1.2-1.16-1.88-1.64l-2-1.48a16.67,16.67,0,0,0-2.06-1.36l-2.1-1.28-2.2-1.07a20.88,20.88,0,0,0-2.22-1,42.46,42.46,0,0,0-18.57-2.85,40.8,40.8,0,0,0-17,5A42,42,0,0,0,436.46,136a44.6,44.6,0,0,0-1.8,13.47,41,41,0,0,0,2,11.63,42.29,42.29,0,0,0,4.15,8.92v-.13c-5.54,9.93-8.25,14.78-8.68,15.54.44-.75,3.22-5.57,8.89-15.42l0-.06,0-.06A41.64,41.64,0,0,1,437,161a40.93,40.93,0,0,1-2-11.55,44.76,44.76,0,0,1,1.83-13.34,41.71,41.71,0,0,1,19.51-23.9,40.31,40.31,0,0,1,16.85-5,41.87,41.87,0,0,1,18.34,2.83,20.34,20.34,0,0,1,2.19,1l2.18,1.06L498,113.4a17.37,17.37,0,0,1,2,1.34l2,1.47c.67.48,1.23,1.08,1.85,1.62s1.25,1.08,1.8,1.7l1.67,1.83a40.57,40.57,0,0,1,8.78,16.83,41.68,41.68,0,0,1,.49,18.2,40.75,40.75,0,0,1-6.9,15.83,41.39,41.39,0,0,1-25.58,16.49l-3.46.54c-1.15.09-2.28.13-3.4.19a37.5,37.5,0,0,1-6.5-.3A41.32,41.32,0,0,1,459.45,186a42.34,42.34,0,0,1-8.49-5.06l-.77-.59.59.77,0,0,.07-.2Z" style="fill:#263238"></path><path d="M487.4,146.55a4,4,0,1,0,4.05-4.05A4,4,0,0,0,487.4,146.55Z" style="fill:#263238"></path><path d="M471.21,146.55a4,4,0,1,0,4-4.05A4,4,0,0,0,471.21,146.55Z" style="fill:#263238"></path><path d="M455.06,144.53a4,4,0,1,0,5.52-1.48A4,4,0,0,0,455.06,144.53Z" style="fill:#263238"></path></g></svg>
