<svg xmlns="http://www.w3.org/2000/svg" xmlns:xlink="http://www.w3.org/1999/xlink" width="1080" zoomAndPan="magnify" viewBox="0 0 810 809.999993" height="1080" preserveAspectRatio="xMidYMid meet" version="1.0"><defs><filter x="0%" y="0%" width="100%" height="100%" id="2fa11701b9"><feColorMatrix values="0 0 0 0 1 0 0 0 0 1 0 0 0 0 1 0 0 0 1 0" color-interpolation-filters="sRGB"/></filter><g/><clipPath id="e2f2f7b6da"><path d="M 107.140625 455.03125 L 709.863281 455.03125 L 709.863281 659.746094 L 107.140625 659.746094 Z M 107.140625 455.03125 " clip-rule="nonzero"/></clipPath><clipPath id="de93275469"><path d="M 107.140625 261.605469 L 709.863281 261.605469 L 709.863281 389.457031 L 107.140625 389.457031 Z M 107.140625 261.605469 " clip-rule="nonzero"/></clipPath><mask id="befcc9043c"><g filter="url(#2fa11701b9)"><rect x="-81" width="972" fill="#000000" y="-80.999999" height="971.999992" fill-opacity="0.498"/></g></mask><clipPath id="4cccc5c7d0"><path d="M 0.714844 320.289062 L 568.433594 320.289062 L 568.433594 512.828125 L 0.714844 512.828125 Z M 0.714844 320.289062 " clip-rule="nonzero"/></clipPath><clipPath id="bd713fade7"><rect x="0" width="570" y="0" height="570"/></clipPath><mask id="906348bd32"><g filter="url(#2fa11701b9)"><rect x="-81" width="972" fill="#000000" y="-80.999999" height="971.999992" fill-opacity="0.498"/></g></mask><clipPath id="16b86555dc"><path d="M 0.714844 138.074219 L 568.433594 138.074219 L 568.433594 258.316406 L 0.714844 258.316406 Z M 0.714844 138.074219 " clip-rule="nonzero"/></clipPath><clipPath id="c480845300"><rect x="0" width="570" y="0" height="570"/></clipPath><clipPath id="7a9d49ff51"><path d="M 100.488281 411.144531 L 121.550781 411.144531 L 121.550781 432.207031 L 100.488281 432.207031 Z M 100.488281 411.144531 " clip-rule="nonzero"/></clipPath><clipPath id="e16ed41c6f"><path d="M 111.019531 411.144531 C 105.203125 411.144531 100.488281 415.859375 100.488281 421.675781 C 100.488281 427.492188 105.203125 432.207031 111.019531 432.207031 C 116.835938 432.207031 121.550781 427.492188 121.550781 421.675781 C 121.550781 415.859375 116.835938 411.144531 111.019531 411.144531 " clip-rule="nonzero"/></clipPath><mask id="475dcdc8d5"><g filter="url(#2fa11701b9)"><rect x="-81" width="972" fill="#000000" y="-80.999999" height="971.999992" fill-opacity="0.4667"/></g></mask><clipPath id="c2a28df4fb"><path d="M 0.183594 0.144531 L 21.246094 0.144531 L 21.246094 21.207031 L 0.183594 21.207031 Z M 0.183594 0.144531 " clip-rule="nonzero"/></clipPath><clipPath id="9ccee8229f"><path d="M 10.714844 0.144531 C 4.898438 0.144531 0.183594 4.859375 0.183594 10.675781 C 0.183594 16.492188 4.898438 21.207031 10.714844 21.207031 C 16.53125 21.207031 21.246094 16.492188 21.246094 10.675781 C 21.246094 4.859375 16.53125 0.144531 10.714844 0.144531 " clip-rule="nonzero"/></clipPath><clipPath id="708d6f7ccb"><rect x="0" width="22" y="0" height="22"/></clipPath><clipPath id="87af6cf4fe"><path d="M 697.394531 411.144531 L 718.460938 411.144531 L 718.460938 432.207031 L 697.394531 432.207031 Z M 697.394531 411.144531 " clip-rule="nonzero"/></clipPath><clipPath id="de36763e1e"><path d="M 707.925781 411.144531 C 702.109375 411.144531 697.394531 415.859375 697.394531 421.675781 C 697.394531 427.492188 702.109375 432.207031 707.925781 432.207031 C 713.746094 432.207031 718.460938 427.492188 718.460938 421.675781 C 718.460938 415.859375 713.746094 411.144531 707.925781 411.144531 " clip-rule="nonzero"/></clipPath><mask id="77a5770e40"><g filter="url(#2fa11701b9)"><rect x="-81" width="972" fill="#000000" y="-80.999999" height="971.999992" fill-opacity="0.4667"/></g></mask><clipPath id="9e2161f2ec"><path d="M 0.28125 0.144531 L 21.347656 0.144531 L 21.347656 21.207031 L 0.28125 21.207031 Z M 0.28125 0.144531 " clip-rule="nonzero"/></clipPath><clipPath id="b2dbb99b3d"><path d="M 10.8125 0.144531 C 4.996094 0.144531 0.28125 4.859375 0.28125 10.675781 C 0.28125 16.492188 4.996094 21.207031 10.8125 21.207031 C 16.628906 21.207031 21.347656 16.492188 21.347656 10.675781 C 21.347656 4.859375 16.628906 0.144531 10.8125 0.144531 " clip-rule="nonzero"/></clipPath><clipPath id="1813f58e44"><rect x="0" width="22" y="0" height="22"/></clipPath><clipPath id="ea3fc2f9eb"><path d="M 211.296875 214.230469 L 610.070312 214.230469 L 610.070312 628.984375 L 211.296875 628.984375 Z M 211.296875 214.230469 " clip-rule="nonzero"/></clipPath><clipPath id="b8b56b89f6"><path d="M 304 499 L 509 499 L 509 513.679688 L 304 513.679688 Z M 304 499 " clip-rule="nonzero"/></clipPath><clipPath id="caf3c9ea1b"><path d="M 282.039062 510 L 539.261719 510 L 539.261719 513.679688 L 282.039062 513.679688 Z M 282.039062 510 " clip-rule="nonzero"/></clipPath><clipPath id="9cb24b1a9d"><path d="M 395 292.222656 L 412 292.222656 L 412 365 L 395 365 Z M 395 292.222656 " clip-rule="nonzero"/></clipPath></defs><g fill="#754847" fill-opacity="1"><g transform="translate(205.463519, 250.693273)"><g><path d="M 16.09375 -14.890625 C 11.875 -10.960938 7.625 -9.0625 3.34375 -9.1875 C -0.9375 -9.3125 -5.226562 -11.679688 -9.53125 -16.296875 C -11.1875 -18.066406 -12.632812 -20.128906 -13.875 -22.484375 C -15.125 -24.847656 -16.148438 -27.378906 -16.953125 -30.078125 C -17.753906 -32.785156 -18.34375 -35.609375 -18.71875 -38.546875 C -19.101562 -41.484375 -19.273438 -44.445312 -19.234375 -47.4375 C -19.191406 -50.425781 -18.941406 -53.367188 -18.484375 -56.265625 C -18.035156 -59.171875 -17.363281 -61.929688 -16.46875 -64.546875 C -15.570312 -67.160156 -14.472656 -69.578125 -13.171875 -71.796875 C -11.878906 -74.015625 -10.367188 -75.929688 -8.640625 -77.546875 C -7.429688 -78.660156 -6.1875 -79.519531 -4.90625 -80.125 C -3.632812 -80.738281 -2.375 -81.082031 -1.125 -81.15625 C 0.125 -81.226562 1.34375 -81.007812 2.53125 -80.5 C 3.71875 -80 4.8125 -79.210938 5.8125 -78.140625 C 6.8125 -77.066406 7.632812 -75.800781 8.28125 -74.34375 C 8.925781 -72.882812 9.40625 -71.328125 9.71875 -69.671875 C 10.039062 -68.015625 10.175781 -66.304688 10.125 -64.546875 C 10.070312 -62.785156 9.832031 -61.070312 9.40625 -59.40625 C 8.988281 -57.738281 8.378906 -56.15625 7.578125 -54.65625 C 6.785156 -53.164062 5.796875 -51.863281 4.609375 -50.75 C 2.492188 -48.78125 0.347656 -47.78125 -1.828125 -47.75 C -4.015625 -47.71875 -5.941406 -48.597656 -7.609375 -50.390625 C -8.429688 -51.265625 -9.035156 -52.113281 -9.421875 -52.9375 C -9.816406 -53.757812 -10.09375 -54.515625 -10.25 -55.203125 C -10.414062 -55.890625 -10.492188 -56.488281 -10.484375 -57 C -10.484375 -57.507812 -10.503906 -57.910156 -10.546875 -58.203125 L -8.78125 -58.109375 C -8.78125 -58.054688 -8.796875 -57.84375 -8.828125 -57.46875 C -8.867188 -57.101562 -8.828125 -56.617188 -8.703125 -56.015625 C -8.585938 -55.421875 -8.347656 -54.738281 -7.984375 -53.96875 C -7.628906 -53.195312 -7.070312 -52.410156 -6.3125 -51.609375 C -5.75 -51.003906 -5.101562 -50.523438 -4.375 -50.171875 C -3.65625 -49.828125 -2.875 -49.65625 -2.03125 -49.65625 C -1.195312 -49.664062 -0.328125 -49.863281 0.578125 -50.25 C 1.492188 -50.644531 2.410156 -51.269531 3.328125 -52.125 C 4.953125 -53.644531 6.179688 -55.515625 7.015625 -57.734375 C 7.859375 -59.960938 8.316406 -62.265625 8.390625 -64.640625 C 8.460938 -67.015625 8.160156 -69.300781 7.484375 -71.5 C 6.816406 -73.707031 5.804688 -75.539062 4.453125 -77 C 2.753906 -78.8125 0.90625 -79.628906 -1.09375 -79.453125 C -3.09375 -79.285156 -5.195312 -78.164062 -7.40625 -76.09375 C -9.894531 -73.769531 -11.863281 -71.09375 -13.3125 -68.0625 C -14.769531 -65.039062 -15.765625 -61.832031 -16.296875 -58.4375 C -16.835938 -55.039062 -16.96875 -51.566406 -16.6875 -48.015625 C -16.414062 -44.472656 -15.789062 -41.023438 -14.8125 -37.671875 C -13.84375 -34.316406 -12.566406 -31.148438 -10.984375 -28.171875 C -9.398438 -25.191406 -7.578125 -22.59375 -5.515625 -20.375 C -3.503906 -18.226562 -1.507812 -16.695312 0.46875 -15.78125 C 2.457031 -14.863281 4.382812 -14.425781 6.25 -14.46875 C 8.125 -14.519531 9.921875 -14.96875 11.640625 -15.8125 C 13.359375 -16.664062 14.96875 -17.789062 16.46875 -19.1875 C 17.675781 -20.320312 18.75 -21.679688 19.6875 -23.265625 C 20.632812 -24.859375 21.429688 -26.597656 22.078125 -28.484375 C 22.722656 -30.378906 23.210938 -32.359375 23.546875 -34.421875 C 23.878906 -36.492188 24.0625 -38.566406 24.09375 -40.640625 C 21.726562 -43.265625 19.878906 -45.679688 18.546875 -47.890625 C 17.222656 -50.097656 16.289062 -52.050781 15.75 -53.75 C 15.21875 -55.457031 15.015625 -56.878906 15.140625 -58.015625 C 15.265625 -59.160156 15.59375 -59.984375 16.125 -60.484375 C 16.28125 -60.628906 16.488281 -60.769531 16.75 -60.90625 C 17.007812 -61.039062 17.304688 -61.117188 17.640625 -61.140625 C 17.972656 -61.160156 18.328125 -61.085938 18.703125 -60.921875 C 19.085938 -60.753906 19.492188 -60.445312 19.921875 -60 C 20.710938 -59.144531 21.425781 -58.101562 22.0625 -56.875 C 22.707031 -55.65625 23.269531 -54.296875 23.75 -52.796875 C 24.226562 -51.296875 24.613281 -49.675781 24.90625 -47.9375 C 25.207031 -46.207031 25.398438 -44.421875 25.484375 -42.578125 C 26.804688 -41.347656 28.078125 -40.253906 29.296875 -39.296875 C 30.523438 -38.347656 31.695312 -37.445312 32.8125 -36.59375 C 33.925781 -35.738281 34.988281 -34.894531 36 -34.0625 C 37.019531 -33.238281 37.976562 -32.347656 38.875 -31.390625 C 40.550781 -29.585938 41.984375 -27.59375 43.171875 -25.40625 C 44.367188 -23.21875 45.066406 -20.894531 45.265625 -18.4375 C 45.460938 -15.976562 45.019531 -13.425781 43.9375 -10.78125 C 42.863281 -8.144531 40.894531 -5.488281 38.03125 -2.8125 C 36.78125 -1.644531 35.5 -0.816406 34.1875 -0.328125 C 32.882812 0.160156 31.617188 0.382812 30.390625 0.34375 C 29.160156 0.3125 28.019531 0.046875 26.96875 -0.453125 C 25.914062 -0.953125 25.015625 -1.609375 24.265625 -2.421875 C 23.535156 -3.203125 22.914062 -4.054688 22.40625 -4.984375 C 21.894531 -5.910156 21.59375 -6.894531 21.5 -7.9375 C 21.40625 -8.976562 21.554688 -10.0625 21.953125 -11.1875 C 22.347656 -12.3125 23.09375 -13.453125 24.1875 -14.609375 L 25.5625 -13.421875 C 24.675781 -12.515625 24.0625 -11.628906 23.71875 -10.765625 C 23.382812 -9.898438 23.253906 -9.046875 23.328125 -8.203125 C 23.398438 -7.367188 23.632812 -6.566406 24.03125 -5.796875 C 24.4375 -5.023438 24.953125 -4.304688 25.578125 -3.640625 C 25.992188 -3.191406 26.578125 -2.742188 27.328125 -2.296875 C 28.085938 -1.847656 28.945312 -1.5625 29.90625 -1.4375 C 30.875 -1.320312 31.941406 -1.4375 33.109375 -1.78125 C 34.273438 -2.132812 35.488281 -2.894531 36.75 -4.0625 C 38.351562 -5.5625 39.507812 -7.132812 40.21875 -8.78125 C 40.925781 -10.425781 41.28125 -12.109375 41.28125 -13.828125 C 41.289062 -15.546875 40.992188 -17.289062 40.390625 -19.0625 C 39.796875 -20.832031 38.992188 -22.582031 37.984375 -24.3125 C 36.972656 -26.050781 35.796875 -27.757812 34.453125 -29.4375 C 33.109375 -31.125 31.71875 -32.738281 30.28125 -34.28125 C 29.5625 -35.039062 28.8125 -35.796875 28.03125 -36.546875 C 27.25 -37.304688 26.445312 -38.125 25.625 -39 C 25.550781 -36.789062 25.316406 -34.582031 24.921875 -32.375 C 24.523438 -30.164062 23.945312 -28.007812 23.1875 -25.90625 C 22.425781 -23.8125 21.453125 -21.828125 20.265625 -19.953125 C 19.085938 -18.078125 17.695312 -16.390625 16.09375 -14.890625 Z M 23.953125 -44.09375 C 23.742188 -47.007812 23.203125 -49.753906 22.328125 -52.328125 C 21.460938 -54.898438 20.222656 -57.050781 18.609375 -58.78125 C 18.128906 -59.289062 17.734375 -59.398438 17.421875 -59.109375 C 17.085938 -58.796875 16.96875 -58.128906 17.0625 -57.109375 C 17.15625 -56.085938 17.441406 -54.90625 17.921875 -53.5625 C 18.398438 -52.21875 19.0625 -50.796875 19.90625 -49.296875 C 20.757812 -47.796875 21.765625 -46.425781 22.921875 -45.1875 Z M 23.953125 -44.09375 "/></g></g></g><g fill="#754847" fill-opacity="1"><g transform="translate(247.970812, 212.416264)"><g><path d="M -8 -24.125 C -7.644531 -23.0625 -7.375 -22.128906 -7.1875 -21.328125 C -7.007812 -20.523438 -6.890625 -19.75 -6.828125 -19 C -6.765625 -18.25 -6.742188 -17.5 -6.765625 -16.75 C -6.796875 -16.007812 -6.847656 -15.191406 -6.921875 -14.296875 L -7.4375 -14.390625 C -7.875 -16.285156 -8.316406 -18.039062 -8.765625 -19.65625 C -9.210938 -21.269531 -9.710938 -22.851562 -10.265625 -24.40625 C -11.066406 -24.726562 -11.910156 -25.222656 -12.796875 -25.890625 C -13.679688 -26.566406 -14.539062 -27.515625 -15.375 -28.734375 C -16.113281 -29.816406 -16.554688 -30.835938 -16.703125 -31.796875 C -16.847656 -32.753906 -16.640625 -33.421875 -16.078125 -33.796875 C -15.773438 -34.003906 -15.394531 -34.054688 -14.9375 -33.953125 C -14.488281 -33.859375 -14.019531 -33.644531 -13.53125 -33.3125 C -13.050781 -32.976562 -12.554688 -32.546875 -12.046875 -32.015625 C -11.535156 -31.484375 -11.054688 -30.894531 -10.609375 -30.25 C -10.410156 -29.945312 -10.207031 -29.601562 -10 -29.21875 C -9.789062 -28.832031 -9.582031 -28.441406 -9.375 -28.046875 C -9.175781 -27.648438 -9 -27.253906 -8.84375 -26.859375 C -8.695312 -26.472656 -8.582031 -26.132812 -8.5 -25.84375 C -8.257812 -25.820312 -7.941406 -25.878906 -7.546875 -26.015625 C -7.148438 -26.160156 -6.671875 -26.425781 -6.109375 -26.8125 C -5.140625 -27.46875 -4.382812 -28.1875 -3.84375 -28.96875 C -3.300781 -29.75 -2.960938 -30.5 -2.828125 -31.21875 C -2.859375 -32.082031 -2.878906 -32.753906 -2.890625 -33.234375 C -2.898438 -33.710938 -2.894531 -34.078125 -2.875 -34.328125 C -2.863281 -34.578125 -2.84375 -34.738281 -2.8125 -34.8125 C -2.78125 -34.894531 -2.710938 -34.972656 -2.609375 -35.046875 C -2.316406 -35.242188 -2.03125 -35.320312 -1.75 -35.28125 C -1.46875 -35.25 -1.234375 -35.097656 -1.046875 -34.828125 C -0.992188 -34.742188 -0.960938 -34.613281 -0.953125 -34.4375 C -0.941406 -34.257812 -0.929688 -34.019531 -0.921875 -33.71875 C -0.929688 -31.457031 -0.613281 -29.195312 0.03125 -26.9375 C 0.6875 -24.6875 1.785156 -22.429688 3.328125 -20.171875 C 5.097656 -17.566406 6.804688 -15.96875 8.453125 -15.375 C 10.097656 -14.789062 11.703125 -15.03125 13.265625 -16.09375 C 14.128906 -16.675781 14.773438 -17.492188 15.203125 -18.546875 C 15.628906 -19.609375 15.847656 -20.953125 15.859375 -22.578125 C 15.867188 -24.203125 15.664062 -26.140625 15.25 -28.390625 C 14.84375 -30.648438 14.25 -33.3125 13.46875 -36.375 L 15.21875 -36.984375 C 16.3125 -33.035156 17.078125 -29.703125 17.515625 -26.984375 C 17.960938 -24.265625 18.128906 -21.984375 18.015625 -20.140625 C 17.898438 -18.296875 17.503906 -16.804688 16.828125 -15.671875 C 16.160156 -14.535156 15.242188 -13.570312 14.078125 -12.78125 C 13.335938 -12.28125 12.46875 -11.925781 11.46875 -11.71875 C 10.46875 -11.507812 9.398438 -11.539062 8.265625 -11.8125 C 7.140625 -12.082031 5.988281 -12.640625 4.8125 -13.484375 C 3.644531 -14.335938 2.515625 -15.5625 1.421875 -17.15625 C 0.890625 -17.9375 0.40625 -18.796875 -0.03125 -19.734375 C -0.46875 -20.679688 -0.84375 -21.628906 -1.15625 -22.578125 C -1.476562 -23.535156 -1.753906 -24.484375 -1.984375 -25.421875 C -2.222656 -26.359375 -2.394531 -27.234375 -2.5 -28.046875 C -3.113281 -26.984375 -3.953125 -26.09375 -5.015625 -25.375 C -6.054688 -24.664062 -7.050781 -24.25 -8 -24.125 Z M -8 -24.125 "/></g></g></g><g fill="#754847" fill-opacity="1"><g transform="translate(269.253562, 198.0688)"><g><path d="M 5.953125 -8.921875 C 4.273438 -7.960938 2.492188 -7.84375 0.609375 -8.5625 C -1.273438 -9.289062 -3.003906 -11.019531 -4.578125 -13.75 C -5.609375 -15.5625 -6.5625 -18.078125 -7.4375 -21.296875 C -8.3125 -24.515625 -8.863281 -28.40625 -9.09375 -32.96875 L -7.375 -33.4375 C -7.144531 -32.65625 -6.863281 -31.5625 -6.53125 -30.15625 C -6.195312 -28.757812 -5.789062 -27.21875 -5.3125 -25.53125 C -4.832031 -23.851562 -4.257812 -22.128906 -3.59375 -20.359375 C -2.9375 -18.597656 -2.1875 -16.976562 -1.34375 -15.5 C -0.625 -14.25 0.0546875 -13.285156 0.703125 -12.609375 C 1.347656 -11.941406 1.945312 -11.472656 2.5 -11.203125 C 3.050781 -10.929688 3.578125 -10.835938 4.078125 -10.921875 C 4.578125 -11.003906 5.066406 -11.179688 5.546875 -11.453125 C 6.316406 -11.898438 6.910156 -12.5625 7.328125 -13.4375 C 7.753906 -14.3125 8.054688 -15.316406 8.234375 -16.453125 C 8.410156 -17.597656 8.488281 -18.8125 8.46875 -20.09375 C 8.445312 -21.375 8.375 -22.628906 8.25 -23.859375 C 8.125 -25.097656 7.976562 -26.257812 7.8125 -27.34375 C 7.65625 -28.425781 7.492188 -29.351562 7.328125 -30.125 L 9.125 -30.609375 C 9.289062 -29.648438 9.476562 -28.535156 9.6875 -27.265625 C 9.90625 -25.992188 10.085938 -24.65625 10.234375 -23.25 C 10.390625 -21.851562 10.460938 -20.453125 10.453125 -19.046875 C 10.453125 -17.640625 10.3125 -16.289062 10.03125 -15 C 9.75 -13.71875 9.285156 -12.546875 8.640625 -11.484375 C 7.992188 -10.429688 7.097656 -9.578125 5.953125 -8.921875 Z M -8.921875 -49.75 C -8.378906 -48.820312 -8.320312 -47.898438 -8.75 -46.984375 C -9.1875 -46.078125 -9.945312 -45.3125 -11.03125 -44.6875 C -11.59375 -44.363281 -12.164062 -44.144531 -12.75 -44.03125 C -13.34375 -43.925781 -13.898438 -43.910156 -14.421875 -43.984375 C -14.941406 -44.066406 -15.410156 -44.238281 -15.828125 -44.5 C -16.242188 -44.769531 -16.578125 -45.117188 -16.828125 -45.546875 C -17.347656 -46.453125 -17.414062 -47.378906 -17.03125 -48.328125 C -16.644531 -49.285156 -15.988281 -50.03125 -15.0625 -50.5625 C -14.394531 -50.945312 -13.738281 -51.191406 -13.09375 -51.296875 C -12.445312 -51.410156 -11.84375 -51.414062 -11.28125 -51.3125 C -10.726562 -51.21875 -10.25 -51.023438 -9.84375 -50.734375 C -9.4375 -50.453125 -9.128906 -50.125 -8.921875 -49.75 Z M -11.078125 -48.515625 C -11.234375 -48.785156 -11.488281 -48.96875 -11.84375 -49.0625 C -12.195312 -49.164062 -12.597656 -49.085938 -13.046875 -48.828125 C -13.867188 -48.359375 -14.101562 -47.816406 -13.75 -47.203125 C -13.582031 -46.910156 -13.316406 -46.738281 -12.953125 -46.6875 C -12.585938 -46.632812 -12.191406 -46.726562 -11.765625 -46.96875 C -11.367188 -47.195312 -11.117188 -47.453125 -11.015625 -47.734375 C -10.921875 -48.023438 -10.941406 -48.285156 -11.078125 -48.515625 Z M -11.078125 -48.515625 "/></g></g></g><g fill="#754847" fill-opacity="1"><g transform="translate(281.950591, 190.013619)"><g><path d="M -5.28125 -22.25 C -5.34375 -23.539062 -5.351562 -24.785156 -5.3125 -25.984375 C -5.269531 -27.191406 -5.140625 -28.300781 -4.921875 -29.3125 C -4.703125 -30.320312 -4.367188 -31.203125 -3.921875 -31.953125 C -3.472656 -32.710938 -2.835938 -33.28125 -2.015625 -33.65625 C -1.628906 -33.832031 -1.144531 -33.945312 -0.5625 -34 C 0.0078125 -34.0625 0.640625 -33.941406 1.328125 -33.640625 C 2.015625 -33.347656 2.722656 -32.796875 3.453125 -31.984375 C 4.191406 -31.171875 4.910156 -29.976562 5.609375 -28.40625 C 5.972656 -27.601562 6.332031 -26.691406 6.6875 -25.671875 C 7.050781 -24.660156 7.40625 -23.65625 7.75 -22.65625 C 7.78125 -24.894531 7.929688 -26.84375 8.203125 -28.5 C 8.484375 -30.15625 8.863281 -31.550781 9.34375 -32.6875 C 9.832031 -33.832031 10.398438 -34.757812 11.046875 -35.46875 C 11.703125 -36.175781 12.4375 -36.710938 13.25 -37.078125 C 13.613281 -37.242188 14.078125 -37.351562 14.640625 -37.40625 C 15.203125 -37.457031 15.789062 -37.375 16.40625 -37.15625 C 17.03125 -36.9375 17.648438 -36.523438 18.265625 -35.921875 C 18.890625 -35.328125 19.460938 -34.457031 19.984375 -33.3125 C 20.390625 -32.394531 20.726562 -31.441406 21 -30.453125 C 21.28125 -29.472656 21.53125 -28.507812 21.75 -27.5625 C 21.976562 -26.625 22.195312 -25.738281 22.40625 -24.90625 C 22.613281 -24.070312 22.847656 -23.359375 23.109375 -22.765625 C 23.742188 -21.367188 24.472656 -20.414062 25.296875 -19.90625 C 26.128906 -19.394531 27.066406 -19.367188 28.109375 -19.828125 C 28.941406 -20.203125 29.59375 -20.875 30.0625 -21.84375 C 30.53125 -22.820312 30.875 -23.945312 31.09375 -25.21875 C 31.3125 -26.488281 31.425781 -27.832031 31.4375 -29.25 C 31.457031 -30.664062 31.425781 -32.003906 31.34375 -33.265625 C 31.269531 -34.523438 31.1875 -35.628906 31.09375 -36.578125 C 31 -37.523438 30.941406 -38.175781 30.921875 -38.53125 L 32.765625 -38.84375 C 32.796875 -37.695312 32.863281 -36.429688 32.96875 -35.046875 C 33.070312 -33.671875 33.128906 -32.257812 33.140625 -30.8125 C 33.160156 -29.375 33.113281 -27.953125 33 -26.546875 C 32.882812 -25.140625 32.644531 -23.832031 32.28125 -22.625 C 31.914062 -21.414062 31.410156 -20.347656 30.765625 -19.421875 C 30.128906 -18.503906 29.28125 -17.804688 28.21875 -17.328125 C 27.320312 -16.929688 26.46875 -16.757812 25.65625 -16.8125 C 24.84375 -16.863281 24.082031 -17.082031 23.375 -17.46875 C 22.664062 -17.851562 22.015625 -18.398438 21.421875 -19.109375 C 20.835938 -19.816406 20.34375 -20.628906 19.9375 -21.546875 C 19.46875 -22.585938 19.078125 -23.691406 18.765625 -24.859375 C 18.460938 -26.035156 18.1875 -27.171875 17.9375 -28.265625 C 17.695312 -29.367188 17.476562 -30.382812 17.28125 -31.3125 C 17.082031 -32.25 16.851562 -33 16.59375 -33.5625 C 16.207031 -34.425781 15.75 -35 15.21875 -35.28125 C 14.6875 -35.5625 14.128906 -35.566406 13.546875 -35.296875 C 12.734375 -34.929688 12.070312 -34.285156 11.5625 -33.359375 C 11.0625 -32.429688 10.675781 -31.316406 10.40625 -30.015625 C 10.132812 -28.710938 9.957031 -27.285156 9.875 -25.734375 C 9.800781 -24.191406 9.789062 -22.632812 9.84375 -21.0625 C 9.894531 -19.5 9.984375 -17.957031 10.109375 -16.4375 C 10.234375 -14.914062 10.367188 -13.546875 10.515625 -12.328125 C 10.671875 -11.117188 10.796875 -10.09375 10.890625 -9.25 C 10.984375 -8.40625 11.03125 -7.863281 11.03125 -7.625 L 8.40625 -6.953125 C 8.007812 -8.753906 7.535156 -10.632812 6.984375 -12.59375 C 6.441406 -14.550781 5.878906 -16.460938 5.296875 -18.328125 C 4.710938 -20.191406 4.113281 -21.960938 3.5 -23.640625 C 2.894531 -25.316406 2.3125 -26.785156 1.75 -28.046875 C 0.976562 -29.742188 0.347656 -30.84375 -0.140625 -31.34375 C -0.640625 -31.84375 -1.179688 -31.960938 -1.765625 -31.703125 C -2.265625 -31.472656 -2.648438 -31.066406 -2.921875 -30.484375 C -3.203125 -29.910156 -3.390625 -29.222656 -3.484375 -28.421875 C -3.578125 -27.628906 -3.613281 -26.726562 -3.59375 -25.71875 C -3.582031 -24.71875 -3.53125 -23.664062 -3.4375 -22.5625 Z M -5.28125 -22.25 "/></g></g></g><g fill="#754847" fill-opacity="1"><g transform="translate(315.543853, 174.752044)"><g><path d="M 8.015625 -36.328125 C 9.304688 -36.710938 10.460938 -36.867188 11.484375 -36.796875 C 12.503906 -36.734375 13.363281 -36.613281 14.0625 -36.4375 C 13.132812 -40.34375 12.460938 -43.859375 12.046875 -46.984375 C 11.640625 -50.109375 11.425781 -52.867188 11.40625 -55.265625 C 11.382812 -57.671875 11.515625 -59.738281 11.796875 -61.46875 C 12.085938 -63.195312 12.476562 -64.632812 12.96875 -65.78125 C 13.457031 -66.9375 14.003906 -67.816406 14.609375 -68.421875 C 15.210938 -69.023438 15.820312 -69.414062 16.4375 -69.59375 C 17.757812 -69.988281 18.929688 -69.734375 19.953125 -68.828125 C 20.972656 -67.921875 21.804688 -66.375 22.453125 -64.1875 C 22.785156 -63.050781 23.085938 -61.554688 23.359375 -59.703125 C 23.640625 -57.859375 23.859375 -55.769531 24.015625 -53.4375 C 24.179688 -51.101562 24.285156 -48.582031 24.328125 -45.875 C 24.367188 -43.175781 24.316406 -40.429688 24.171875 -37.640625 C 24.023438 -34.847656 23.785156 -32.0625 23.453125 -29.28125 C 23.117188 -26.5 22.660156 -23.847656 22.078125 -21.328125 C 22.671875 -19.679688 23.242188 -18.378906 23.796875 -17.421875 C 24.359375 -16.460938 24.914062 -15.753906 25.46875 -15.296875 C 26.019531 -14.835938 26.578125 -14.578125 27.140625 -14.515625 C 27.703125 -14.460938 28.296875 -14.53125 28.921875 -14.71875 C 29.765625 -14.96875 30.5 -15.492188 31.125 -16.296875 C 31.75 -17.109375 32.285156 -18.265625 32.734375 -19.765625 C 33.179688 -21.265625 33.550781 -23.148438 33.84375 -25.421875 C 34.132812 -27.703125 34.363281 -30.429688 34.53125 -33.609375 L 36.390625 -33.671875 C 36.203125 -31.160156 35.992188 -28.710938 35.765625 -26.328125 C 35.546875 -23.953125 35.1875 -21.789062 34.6875 -19.84375 C 34.195312 -17.894531 33.507812 -16.242188 32.625 -14.890625 C 31.75 -13.546875 30.5625 -12.648438 29.0625 -12.203125 C 27.21875 -11.660156 25.613281 -11.789062 24.25 -12.59375 C 22.894531 -13.394531 21.679688 -14.691406 20.609375 -16.484375 C 19.648438 -13.472656 18.410156 -10.9375 16.890625 -8.875 C 15.378906 -6.820312 13.550781 -5.476562 11.40625 -4.84375 C 10.195312 -4.488281 8.96875 -4.375 7.71875 -4.5 C 6.46875 -4.632812 5.273438 -5.050781 4.140625 -5.75 C 3.003906 -6.445312 1.953125 -7.460938 0.984375 -8.796875 C 0.0234375 -10.128906 -0.757812 -11.835938 -1.375 -13.921875 C -2.007812 -16.097656 -2.300781 -18.359375 -2.25 -20.703125 C -2.195312 -23.054688 -1.78125 -25.28125 -1 -27.375 C -0.226562 -29.46875 0.894531 -31.316406 2.375 -32.921875 C 3.863281 -34.523438 5.742188 -35.660156 8.015625 -36.328125 Z M 12.21875 -7.8125 C 13.863281 -8.300781 15.296875 -9.519531 16.515625 -11.46875 C 17.742188 -13.414062 18.773438 -15.800781 19.609375 -18.625 C 19.023438 -19.945312 18.472656 -21.378906 17.953125 -22.921875 C 17.429688 -24.460938 16.910156 -26.113281 16.390625 -27.875 C 16.054688 -29 15.726562 -30.113281 15.40625 -31.21875 C 15.082031 -32.320312 14.796875 -33.390625 14.546875 -34.421875 C 14.378906 -34.492188 14.125 -34.585938 13.78125 -34.703125 C 13.445312 -34.828125 13.03125 -34.929688 12.53125 -35.015625 C 12.039062 -35.109375 11.507812 -35.140625 10.9375 -35.109375 C 10.363281 -35.078125 9.738281 -34.957031 9.0625 -34.75 C 8.0625 -34.457031 7.007812 -33.84375 5.90625 -32.90625 C 4.800781 -31.976562 3.867188 -30.722656 3.109375 -29.140625 C 2.347656 -27.554688 1.878906 -25.65625 1.703125 -23.4375 C 1.523438 -21.226562 1.863281 -18.675781 2.71875 -15.78125 C 3.125 -14.40625 3.660156 -13.160156 4.328125 -12.046875 C 4.992188 -10.941406 5.742188 -10.023438 6.578125 -9.296875 C 7.410156 -8.566406 8.304688 -8.0625 9.265625 -7.78125 C 10.234375 -7.507812 11.21875 -7.519531 12.21875 -7.8125 Z M 20.734375 -63.6875 C 20.597656 -64.144531 20.425781 -64.640625 20.21875 -65.171875 C 20.007812 -65.710938 19.757812 -66.203125 19.46875 -66.640625 C 19.175781 -67.085938 18.84375 -67.4375 18.46875 -67.6875 C 18.09375 -67.945312 17.65625 -68.003906 17.15625 -67.859375 C 15.945312 -67.503906 15.128906 -66.175781 14.703125 -63.875 C 14.273438 -61.582031 14.210938 -58.566406 14.515625 -54.828125 C 14.816406 -51.097656 15.457031 -46.804688 16.4375 -41.953125 C 17.425781 -37.109375 18.726562 -31.960938 20.34375 -26.515625 L 20.921875 -24.515625 C 21.347656 -26.785156 21.6875 -29.171875 21.9375 -31.671875 C 22.1875 -34.171875 22.363281 -36.664062 22.46875 -39.15625 C 22.582031 -41.644531 22.617188 -44.097656 22.578125 -46.515625 C 22.535156 -48.929688 22.4375 -51.207031 22.28125 -53.34375 C 22.132812 -55.488281 21.925781 -57.445312 21.65625 -59.21875 C 21.394531 -61 21.085938 -62.488281 20.734375 -63.6875 Z M 20.734375 -63.6875 "/></g></g></g><g fill="#754847" fill-opacity="1"><g transform="translate(350.094383, 164.771904)"><g><path d="M 14.046875 -3.125 C 12.503906 -2.851562 10.972656 -2.863281 9.453125 -3.15625 C 7.941406 -3.457031 6.554688 -4.0625 5.296875 -4.96875 C 4.035156 -5.875 2.941406 -7.101562 2.015625 -8.65625 C 1.097656 -10.207031 0.441406 -12.097656 0.046875 -14.328125 C -0.429688 -17.035156 -0.46875 -19.523438 -0.0625 -21.796875 C 0.34375 -24.066406 1.03125 -26.039062 2 -27.71875 C 2.96875 -29.394531 4.132812 -30.75 5.5 -31.78125 C 6.875 -32.8125 8.285156 -33.457031 9.734375 -33.71875 C 11.597656 -34.039062 13.191406 -33.679688 14.515625 -32.640625 C 15.835938 -31.597656 16.671875 -30.097656 17.015625 -28.140625 C 17.304688 -26.441406 17.253906 -24.851562 16.859375 -23.375 C 16.472656 -21.894531 15.847656 -20.570312 14.984375 -19.40625 C 14.117188 -18.25 13.0625 -17.28125 11.8125 -16.5 C 10.5625 -15.71875 9.210938 -15.203125 7.765625 -14.953125 C 7.066406 -14.828125 6.40625 -14.742188 5.78125 -14.703125 C 5.15625 -14.671875 4.585938 -14.660156 4.078125 -14.671875 C 4.585938 -12.828125 5.234375 -11.269531 6.015625 -10 C 6.804688 -8.738281 7.6875 -7.742188 8.65625 -7.015625 C 9.625 -6.296875 10.648438 -5.8125 11.734375 -5.5625 C 12.816406 -5.3125 13.90625 -5.285156 15 -5.484375 C 16.351562 -5.722656 17.539062 -6.273438 18.5625 -7.140625 C 19.582031 -8.003906 20.484375 -9.054688 21.265625 -10.296875 C 22.046875 -11.546875 22.710938 -12.929688 23.265625 -14.453125 C 23.816406 -15.984375 24.285156 -17.519531 24.671875 -19.0625 C 25.054688 -20.613281 25.375 -22.117188 25.625 -23.578125 C 25.882812 -25.035156 26.113281 -26.328125 26.3125 -27.453125 L 28.171875 -27.3125 C 27.953125 -26.238281 27.703125 -24.945312 27.421875 -23.4375 C 27.148438 -21.925781 26.800781 -20.332031 26.375 -18.65625 C 25.957031 -16.988281 25.414062 -15.289062 24.75 -13.5625 C 24.09375 -11.84375 23.285156 -10.269531 22.328125 -8.84375 C 21.367188 -7.414062 20.207031 -6.1875 18.84375 -5.15625 C 17.488281 -4.125 15.890625 -3.445312 14.046875 -3.125 Z M 10.140625 -31.96875 C 9.023438 -31.769531 7.992188 -31.21875 7.046875 -30.3125 C 6.097656 -29.414062 5.3125 -28.273438 4.6875 -26.890625 C 4.0625 -25.515625 3.632812 -23.9375 3.40625 -22.15625 C 3.175781 -20.375 3.226562 -18.519531 3.5625 -16.59375 C 3.976562 -16.507812 4.550781 -16.472656 5.28125 -16.484375 C 6.007812 -16.503906 6.890625 -16.601562 7.921875 -16.78125 C 9.003906 -16.96875 10.039062 -17.390625 11.03125 -18.046875 C 12.019531 -18.710938 12.867188 -19.535156 13.578125 -20.515625 C 14.285156 -21.492188 14.800781 -22.601562 15.125 -23.84375 C 15.457031 -25.082031 15.503906 -26.378906 15.265625 -27.734375 C 15.148438 -28.398438 14.945312 -29.015625 14.65625 -29.578125 C 14.363281 -30.148438 13.992188 -30.632812 13.546875 -31.03125 C 13.109375 -31.425781 12.601562 -31.707031 12.03125 -31.875 C 11.457031 -32.050781 10.828125 -32.082031 10.140625 -31.96875 Z M 10.140625 -31.96875 "/></g></g></g><g fill="#754847" fill-opacity="1"><g transform="translate(374.086, 160.427033)"><g><path d="M 4.984375 -24.921875 C 4.765625 -23.828125 4.53125 -22.882812 4.28125 -22.09375 C 4.039062 -21.3125 3.765625 -20.578125 3.453125 -19.890625 C 3.140625 -19.203125 2.785156 -18.539062 2.390625 -17.90625 C 1.992188 -17.269531 1.550781 -16.585938 1.0625 -15.859375 L 0.65625 -16.1875 C 1.207031 -18.050781 1.6875 -19.796875 2.09375 -21.421875 C 2.507812 -23.046875 2.863281 -24.671875 3.15625 -26.296875 C 2.613281 -26.960938 2.117188 -27.804688 1.671875 -28.828125 C 1.234375 -29.859375 0.957031 -31.101562 0.84375 -32.5625 C 0.738281 -33.875 0.859375 -34.984375 1.203125 -35.890625 C 1.546875 -36.796875 2.054688 -37.273438 2.734375 -37.328125 C 3.097656 -37.359375 3.453125 -37.21875 3.796875 -36.90625 C 4.140625 -36.59375 4.441406 -36.171875 4.703125 -35.640625 C 4.960938 -35.117188 5.179688 -34.5 5.359375 -33.78125 C 5.535156 -33.070312 5.65625 -32.320312 5.71875 -31.53125 C 5.75 -31.175781 5.757812 -30.78125 5.75 -30.34375 C 5.738281 -29.90625 5.722656 -29.460938 5.703125 -29.015625 C 5.679688 -28.566406 5.640625 -28.132812 5.578125 -27.71875 C 5.515625 -27.300781 5.445312 -26.945312 5.375 -26.65625 C 5.570312 -26.53125 5.878906 -26.429688 6.296875 -26.359375 C 6.722656 -26.285156 7.273438 -26.273438 7.953125 -26.328125 C 9.109375 -26.421875 10.113281 -26.671875 10.96875 -27.078125 C 11.832031 -27.484375 12.503906 -27.960938 12.984375 -28.515625 C 13.378906 -29.296875 13.6875 -29.894531 13.90625 -30.3125 C 14.132812 -30.738281 14.316406 -31.054688 14.453125 -31.265625 C 14.597656 -31.472656 14.703125 -31.601562 14.765625 -31.65625 C 14.835938 -31.707031 14.9375 -31.738281 15.0625 -31.75 C 15.40625 -31.78125 15.691406 -31.707031 15.921875 -31.53125 C 16.148438 -31.363281 16.273438 -31.113281 16.296875 -30.78125 C 16.304688 -30.6875 16.269531 -30.5625 16.1875 -30.40625 C 16.113281 -30.25 16.007812 -30.039062 15.875 -29.78125 C 14.75 -27.820312 13.910156 -25.695312 13.359375 -23.40625 C 12.804688 -21.113281 12.640625 -18.609375 12.859375 -15.890625 C 13.117188 -12.742188 13.816406 -10.507812 14.953125 -9.1875 C 16.085938 -7.863281 17.601562 -7.28125 19.5 -7.4375 C 20.53125 -7.519531 21.492188 -7.910156 22.390625 -8.609375 C 23.285156 -9.316406 24.132812 -10.375 24.9375 -11.78125 C 25.75 -13.1875 26.535156 -14.972656 27.296875 -17.140625 C 28.054688 -19.304688 28.847656 -21.910156 29.671875 -24.953125 L 31.515625 -24.640625 C 30.503906 -20.660156 29.519531 -17.378906 28.5625 -14.796875 C 27.613281 -12.210938 26.632812 -10.144531 25.625 -8.59375 C 24.613281 -7.050781 23.535156 -5.953125 22.390625 -5.296875 C 21.242188 -4.640625 19.96875 -4.253906 18.5625 -4.140625 C 17.664062 -4.066406 16.726562 -4.1875 15.75 -4.5 C 14.78125 -4.820312 13.867188 -5.378906 13.015625 -6.171875 C 12.171875 -6.972656 11.453125 -8.03125 10.859375 -9.34375 C 10.265625 -10.65625 9.890625 -12.273438 9.734375 -14.203125 C 9.648438 -15.148438 9.648438 -16.140625 9.734375 -17.171875 C 9.816406 -18.210938 9.953125 -19.222656 10.140625 -20.203125 C 10.335938 -21.191406 10.566406 -22.148438 10.828125 -23.078125 C 11.097656 -24.015625 11.382812 -24.859375 11.6875 -25.609375 C 10.625 -25.003906 9.457031 -24.648438 8.1875 -24.546875 C 6.925781 -24.441406 5.859375 -24.566406 4.984375 -24.921875 Z M 4.984375 -24.921875 "/></g></g></g><g fill="#754847" fill-opacity="1"><g transform="translate(400.027168, 158.574925)"><g><path d="M 5.34375 -46.09375 L 3.546875 -46.0625 L 4.359375 -62.484375 L 8.578125 -62.578125 Z M 5.34375 -46.09375 "/></g></g></g><g fill="#754847" fill-opacity="1"><g transform="translate(406.412473, 158.185586)"><g><path d="M 8.515625 -25.671875 C 8.148438 -24.796875 7.789062 -23.9375 7.4375 -23.09375 C 7.082031 -22.25 6.703125 -21.40625 6.296875 -20.5625 C 5.890625 -19.71875 5.410156 -18.890625 4.859375 -18.078125 C 4.304688 -17.265625 3.644531 -16.445312 2.875 -15.625 L 2.515625 -16 C 3.378906 -17.894531 4.15625 -19.84375 4.84375 -21.84375 C 5.53125 -23.851562 6.21875 -26.101562 6.90625 -28.59375 C 6.769531 -29.03125 6.644531 -29.398438 6.53125 -29.703125 C 6.414062 -30.015625 6.316406 -30.300781 6.234375 -30.5625 C 6.148438 -30.832031 6.082031 -31.109375 6.03125 -31.390625 C 5.988281 -31.679688 5.972656 -32.015625 5.984375 -32.390625 C 6.003906 -32.878906 6.09375 -33.414062 6.25 -34 C 6.40625 -34.59375 6.617188 -35.144531 6.890625 -35.65625 C 7.171875 -36.175781 7.484375 -36.609375 7.828125 -36.953125 C 8.179688 -37.296875 8.539062 -37.457031 8.90625 -37.4375 C 9.332031 -37.425781 9.671875 -37.316406 9.921875 -37.109375 C 10.179688 -36.898438 10.382812 -36.640625 10.53125 -36.328125 C 10.675781 -36.015625 10.769531 -35.6875 10.8125 -35.34375 C 10.863281 -35.007812 10.882812 -34.691406 10.875 -34.390625 C 10.851562 -33.929688 10.78125 -33.40625 10.65625 -32.8125 C 10.53125 -32.21875 10.390625 -31.632812 10.234375 -31.0625 C 10.078125 -30.5 9.9375 -30.003906 9.8125 -29.578125 C 9.695312 -29.160156 9.632812 -28.890625 9.625 -28.765625 C 9.84375 -27.929688 10.234375 -27.070312 10.796875 -26.1875 C 11.367188 -25.3125 12.019531 -24.414062 12.75 -23.5 C 13.488281 -22.59375 14.257812 -21.640625 15.0625 -20.640625 C 15.875 -19.648438 16.601562 -18.609375 17.25 -17.515625 C 17.90625 -16.421875 18.429688 -15.257812 18.828125 -14.03125 C 19.234375 -12.8125 19.414062 -11.53125 19.375 -10.1875 C 19.300781 -8.257812 18.960938 -6.707031 18.359375 -5.53125 C 17.765625 -4.351562 16.972656 -3.460938 15.984375 -2.859375 C 17.390625 -3.367188 18.71875 -4.304688 19.96875 -5.671875 C 21.226562 -7.035156 22.398438 -8.609375 23.484375 -10.390625 C 24.578125 -12.171875 25.59375 -14.039062 26.53125 -16 C 27.476562 -17.957031 28.316406 -19.785156 29.046875 -21.484375 L 30.828125 -20.953125 C 29.691406 -18.335938 28.5 -15.78125 27.25 -13.28125 C 26.007812 -10.78125 24.617188 -8.554688 23.078125 -6.609375 C 21.535156 -4.671875 19.816406 -3.117188 17.921875 -1.953125 C 16.023438 -0.796875 13.890625 -0.257812 11.515625 -0.34375 C 10.867188 -0.363281 10.21875 -0.4375 9.5625 -0.5625 C 8.90625 -0.695312 8.265625 -0.890625 7.640625 -1.140625 C 7.023438 -1.390625 6.445312 -1.722656 5.90625 -2.140625 C 5.375 -2.554688 4.914062 -3.046875 4.53125 -3.609375 L 6.078125 -4.578125 C 6.347656 -4.140625 6.769531 -3.722656 7.34375 -3.328125 C 7.914062 -2.941406 8.675781 -2.734375 9.625 -2.703125 C 10.539062 -2.671875 11.347656 -2.835938 12.046875 -3.203125 C 12.742188 -3.566406 13.335938 -4.066406 13.828125 -4.703125 C 14.316406 -5.347656 14.691406 -6.109375 14.953125 -6.984375 C 15.210938 -7.867188 15.363281 -8.816406 15.40625 -9.828125 C 15.46875 -11.898438 15.226562 -13.695312 14.6875 -15.21875 C 14.144531 -16.738281 13.488281 -18.097656 12.71875 -19.296875 C 11.957031 -20.503906 11.171875 -21.613281 10.359375 -22.625 C 9.546875 -23.632812 8.929688 -24.648438 8.515625 -25.671875 Z M 8.515625 -25.671875 "/></g></g></g><g fill="#754847" fill-opacity="1"><g transform="translate(428.751403, 158.947736)"><g/></g></g><g fill="#754847" fill-opacity="1"><g transform="translate(446.675138, 159.165809)"><g><path d="M 67.5 -49.109375 C 66.5 -49.023438 65.5 -48.898438 64.5 -48.734375 C 63.5 -48.566406 62.53125 -48.375 61.59375 -48.15625 C 62.863281 -46.289062 63.726562 -44.175781 64.1875 -41.8125 C 64.65625 -39.445312 64.523438 -36.882812 63.796875 -34.125 C 63.203125 -31.882812 62.367188 -29.890625 61.296875 -28.140625 C 60.222656 -26.390625 58.988281 -24.96875 57.59375 -23.875 C 56.195312 -22.789062 54.691406 -22.050781 53.078125 -21.65625 C 51.460938 -21.257812 49.832031 -21.28125 48.1875 -21.71875 C 46.96875 -22.039062 45.820312 -22.5625 44.75 -23.28125 C 43.675781 -24.007812 42.785156 -24.925781 42.078125 -26.03125 C 41.378906 -27.144531 40.910156 -28.421875 40.671875 -29.859375 C 40.429688 -31.296875 40.546875 -32.898438 41.015625 -34.671875 C 41.535156 -36.660156 42.351562 -38.460938 43.46875 -40.078125 C 44.59375 -41.703125 45.914062 -43.128906 47.4375 -44.359375 C 48.957031 -45.597656 50.625 -46.648438 52.4375 -47.515625 C 54.25 -48.390625 56.097656 -49.082031 57.984375 -49.59375 C 57.222656 -50.226562 56.378906 -50.804688 55.453125 -51.328125 C 54.523438 -51.847656 53.550781 -52.242188 52.53125 -52.515625 C 50.71875 -52.992188 48.695312 -53.160156 46.46875 -53.015625 C 44.238281 -52.878906 41.941406 -52.390625 39.578125 -51.546875 C 37.222656 -50.710938 34.875 -49.535156 32.53125 -48.015625 C 30.1875 -46.492188 27.957031 -44.585938 25.84375 -42.296875 C 23.738281 -40.015625 21.835938 -37.335938 20.140625 -34.265625 C 18.441406 -31.191406 17.070312 -27.703125 16.03125 -23.796875 C 14.988281 -19.828125 14.570312 -15.910156 14.78125 -12.046875 C 14.988281 -8.191406 15.847656 -4.625 17.359375 -1.34375 C 18.878906 1.925781 21.050781 4.773438 23.875 7.203125 C 26.695312 9.640625 30.203125 11.410156 34.390625 12.515625 C 36.816406 13.160156 39.285156 13.425781 41.796875 13.3125 C 44.316406 13.207031 46.78125 12.78125 49.1875 12.03125 C 51.601562 11.289062 53.921875 10.253906 56.140625 8.921875 C 58.359375 7.585938 60.382812 6.039062 62.21875 4.28125 L 63.390625 5.4375 C 61.265625 7.707031 58.929688 9.613281 56.390625 11.15625 C 53.847656 12.707031 51.164062 13.882812 48.34375 14.6875 C 45.53125 15.488281 42.644531 15.910156 39.6875 15.953125 C 36.726562 15.992188 33.796875 15.632812 30.890625 14.875 C 26.722656 13.769531 23.070312 12.015625 19.9375 9.609375 C 16.800781 7.210938 14.304688 4.328125 12.453125 0.953125 C 10.597656 -2.410156 9.457031 -6.179688 9.03125 -10.359375 C 8.601562 -14.546875 9.007812 -18.984375 10.25 -23.671875 C 11.363281 -27.898438 12.851562 -31.675781 14.71875 -35 C 16.582031 -38.320312 18.695312 -41.222656 21.0625 -43.703125 C 23.425781 -46.179688 25.957031 -48.25 28.65625 -49.90625 C 31.351562 -51.5625 34.097656 -52.816406 36.890625 -53.671875 C 39.691406 -54.523438 42.460938 -54.992188 45.203125 -55.078125 C 47.953125 -55.160156 50.546875 -54.878906 52.984375 -54.234375 C 54.304688 -53.878906 55.5625 -53.332031 56.75 -52.59375 C 57.9375 -51.851562 59 -50.992188 59.9375 -50.015625 C 61.269531 -50.265625 62.570312 -50.410156 63.84375 -50.453125 C 65.125 -50.492188 66.359375 -50.46875 67.546875 -50.375 Z M 62.109375 -34.671875 C 62.753906 -37.097656 62.851562 -39.421875 62.40625 -41.640625 C 61.96875 -43.859375 61.085938 -45.832031 59.765625 -47.5625 C 58.066406 -46.976562 56.421875 -46.238281 54.828125 -45.34375 C 53.242188 -44.445312 51.796875 -43.375 50.484375 -42.125 C 49.171875 -40.875 48.023438 -39.4375 47.046875 -37.8125 C 46.066406 -36.195312 45.3125 -34.378906 44.78125 -32.359375 C 44.5 -31.296875 44.375 -30.273438 44.40625 -29.296875 C 44.445312 -28.316406 44.644531 -27.429688 45 -26.640625 C 45.363281 -25.847656 45.878906 -25.160156 46.546875 -24.578125 C 47.222656 -24.003906 48.035156 -23.59375 48.984375 -23.34375 C 50.585938 -22.914062 52.101562 -23.003906 53.53125 -23.609375 C 54.957031 -24.222656 56.242188 -25.113281 57.390625 -26.28125 C 58.546875 -27.445312 59.53125 -28.789062 60.34375 -30.3125 C 61.15625 -31.832031 61.742188 -33.285156 62.109375 -34.671875 Z M 62.109375 -34.671875 "/></g></g></g><g fill="#754847" fill-opacity="1"><g transform="translate(504.447716, 175.39207)"><g><path d="M 39.390625 -38.96875 C 38.585938 -37.207031 37.382812 -35.378906 35.78125 -33.484375 C 34.1875 -31.585938 32.285156 -29.59375 30.078125 -27.5 C 27.878906 -25.40625 25.414062 -23.207031 22.6875 -20.90625 C 19.957031 -18.601562 17.070312 -16.175781 14.03125 -13.625 C 13.269531 -12.363281 12.535156 -11.078125 11.828125 -9.765625 C 11.117188 -8.460938 10.410156 -7.148438 9.703125 -5.828125 C 10.472656 -6.578125 11.410156 -7.429688 12.515625 -8.390625 C 13.617188 -9.359375 14.804688 -10.332031 16.078125 -11.3125 C 17.347656 -12.289062 18.671875 -13.222656 20.046875 -14.109375 C 21.429688 -14.992188 22.800781 -15.722656 24.15625 -16.296875 C 25.519531 -16.878906 26.847656 -17.238281 28.140625 -17.375 C 29.441406 -17.519531 30.640625 -17.34375 31.734375 -16.84375 C 32.484375 -16.5 33.097656 -16.046875 33.578125 -15.484375 C 34.054688 -14.921875 34.398438 -14.289062 34.609375 -13.59375 C 34.816406 -12.894531 34.882812 -12.15625 34.8125 -11.375 C 34.738281 -10.601562 34.523438 -9.828125 34.171875 -9.046875 C 33.710938 -8.046875 33.082031 -7.03125 32.28125 -6 C 31.488281 -4.96875 30.648438 -3.925781 29.765625 -2.875 C 28.890625 -1.832031 28.039062 -0.773438 27.21875 0.296875 C 26.40625 1.367188 25.757812 2.4375 25.28125 3.5 C 24.882812 4.351562 24.757812 5.175781 24.90625 5.96875 C 25.050781 6.769531 25.675781 7.421875 26.78125 7.921875 C 27.5625 8.273438 28.472656 8.304688 29.515625 8.015625 C 30.566406 7.722656 31.671875 7.226562 32.828125 6.53125 C 33.992188 5.832031 35.164062 4.988281 36.34375 4 C 37.519531 3.007812 38.65625 2.003906 39.75 0.984375 C 40.84375 -0.0351562 41.84375 -1 42.75 -1.90625 C 43.65625 -2.820312 44.382812 -3.5625 44.9375 -4.125 L 46.375 -2.953125 C 45.320312 -1.921875 44.226562 -0.828125 43.09375 0.328125 C 41.957031 1.492188 40.789062 2.632812 39.59375 3.75 C 38.394531 4.875 37.171875 5.910156 35.921875 6.859375 C 34.671875 7.804688 33.429688 8.578125 32.203125 9.171875 C 30.972656 9.773438 29.753906 10.140625 28.546875 10.265625 C 27.335938 10.398438 26.148438 10.203125 24.984375 9.671875 C 23.929688 9.179688 23.125 8.625 22.5625 8 C 22.007812 7.375 21.648438 6.703125 21.484375 5.984375 C 21.316406 5.273438 21.316406 4.515625 21.484375 3.703125 C 21.660156 2.898438 21.953125 2.050781 22.359375 1.15625 C 22.796875 0.207031 23.429688 -0.804688 24.265625 -1.890625 C 25.109375 -2.984375 26 -4.097656 26.9375 -5.234375 C 27.875 -6.367188 28.773438 -7.519531 29.640625 -8.6875 C 30.515625 -9.851562 31.203125 -10.976562 31.703125 -12.0625 C 31.984375 -12.675781 32.082031 -13.285156 32 -13.890625 C 31.925781 -14.492188 31.53125 -14.960938 30.8125 -15.296875 C 29.664062 -15.828125 28.375 -15.921875 26.9375 -15.578125 C 25.507812 -15.234375 24.019531 -14.625 22.46875 -13.75 C 20.925781 -12.875 19.363281 -11.804688 17.78125 -10.546875 C 16.195312 -9.285156 14.679688 -8 13.234375 -6.6875 C 11.785156 -5.375 10.453125 -4.101562 9.234375 -2.875 C 8.015625 -1.65625 6.988281 -0.648438 6.15625 0.140625 L 4.640625 -0.84375 C 4.703125 -0.988281 4.78125 -1.179688 4.875 -1.421875 C 4.96875 -1.660156 5.109375 -1.988281 5.296875 -2.40625 C 5.492188 -2.820312 5.726562 -3.347656 6 -3.984375 C 6.269531 -4.628906 6.609375 -5.398438 7.015625 -6.296875 C 8.210938 -8.910156 9.863281 -12.328125 11.96875 -16.546875 C 14.082031 -20.765625 16.769531 -25.75 20.03125 -31.5 C 21.601562 -34.320312 23.085938 -36.664062 24.484375 -38.53125 C 25.878906 -40.40625 27.175781 -41.914062 28.375 -43.0625 C 29.582031 -44.21875 30.6875 -45.066406 31.6875 -45.609375 C 32.695312 -46.160156 33.59375 -46.519531 34.375 -46.6875 C 35.15625 -46.851562 35.820312 -46.882812 36.375 -46.78125 C 36.9375 -46.675781 37.390625 -46.546875 37.734375 -46.390625 C 39.015625 -45.796875 39.800781 -44.828125 40.09375 -43.484375 C 40.382812 -42.140625 40.148438 -40.632812 39.390625 -38.96875 Z M 37.015625 -44.625 C 36.296875 -44.957031 35.484375 -44.898438 34.578125 -44.453125 C 33.679688 -44.015625 32.707031 -43.253906 31.65625 -42.171875 C 30.613281 -41.085938 29.507812 -39.710938 28.34375 -38.046875 C 27.1875 -36.390625 25.960938 -34.519531 24.671875 -32.4375 C 23.378906 -30.351562 22.039062 -28.082031 20.65625 -25.625 C 19.28125 -23.175781 17.863281 -20.617188 16.40625 -17.953125 C 18.875 -19.859375 21.234375 -21.785156 23.484375 -23.734375 C 25.734375 -25.679688 27.789062 -27.585938 29.65625 -29.453125 C 31.53125 -31.328125 33.160156 -33.132812 34.546875 -34.875 C 35.929688 -36.625 36.972656 -38.253906 37.671875 -39.765625 C 37.867188 -40.203125 38.035156 -40.664062 38.171875 -41.15625 C 38.316406 -41.644531 38.378906 -42.113281 38.359375 -42.5625 C 38.347656 -43.007812 38.238281 -43.410156 38.03125 -43.765625 C 37.832031 -44.128906 37.492188 -44.414062 37.015625 -44.625 Z M 37.015625 -44.625 "/></g></g></g><g fill="#754847" fill-opacity="1"><g transform="translate(533.941454, 188.856304)"><g><path d="M 15.65625 4.65625 C 17.113281 5.539062 18.84375 5.851562 20.84375 5.59375 C 22.84375 5.34375 24.84375 4.429688 26.84375 2.859375 L 26.546875 2.671875 C 24.910156 1.679688 23.578125 0.5 22.546875 -0.875 C 21.515625 -2.257812 20.789062 -3.75 20.375 -5.34375 C 19.957031 -6.945312 19.875 -8.609375 20.125 -10.328125 C 20.382812 -12.054688 21.015625 -13.742188 22.015625 -15.390625 C 22.566406 -16.304688 23.253906 -17.160156 24.078125 -17.953125 C 24.898438 -18.742188 25.796875 -19.351562 26.765625 -19.78125 C 27.742188 -20.207031 28.796875 -20.398438 29.921875 -20.359375 C 31.054688 -20.328125 32.195312 -19.960938 33.34375 -19.265625 C 34.289062 -18.691406 35.109375 -17.9375 35.796875 -17 C 36.484375 -16.070312 36.910156 -14.925781 37.078125 -13.5625 C 37.253906 -12.195312 37.097656 -10.597656 36.609375 -8.765625 C 36.117188 -6.929688 35.15625 -4.820312 33.71875 -2.4375 C 33.175781 -1.550781 32.601562 -0.691406 32 0.140625 C 31.394531 0.972656 30.726562 1.742188 30 2.453125 C 31.125 2.890625 32.226562 3.113281 33.3125 3.125 C 34.394531 3.132812 35.445312 2.992188 36.46875 2.703125 C 37.488281 2.410156 38.492188 1.984375 39.484375 1.421875 C 40.472656 0.859375 41.460938 0.210938 42.453125 -0.515625 L 43.734375 0.796875 C 42.285156 1.953125 40.882812 2.835938 39.53125 3.453125 C 38.175781 4.066406 36.867188 4.472656 35.609375 4.671875 C 34.347656 4.878906 33.148438 4.898438 32.015625 4.734375 C 30.890625 4.566406 29.800781 4.253906 28.75 3.796875 C 27.613281 4.847656 26.398438 5.753906 25.109375 6.515625 C 23.828125 7.285156 22.5 7.820312 21.125 8.125 C 19.75 8.4375 18.34375 8.492188 16.90625 8.296875 C 15.46875 8.097656 14.039062 7.566406 12.625 6.703125 C 11.457031 5.992188 10.425781 5.03125 9.53125 3.8125 C 8.632812 2.601562 8.007812 1.207031 7.65625 -0.375 C 7.3125 -1.957031 7.3125 -3.691406 7.65625 -5.578125 C 8.007812 -7.472656 8.828125 -9.476562 10.109375 -11.59375 C 10.953125 -12.988281 11.941406 -14.253906 13.078125 -15.390625 C 14.210938 -16.523438 15.4375 -17.507812 16.75 -18.34375 C 18.0625 -19.1875 19.4375 -19.878906 20.875 -20.421875 C 22.3125 -20.960938 23.734375 -21.320312 25.140625 -21.5 L 25.140625 -20.171875 C 24.191406 -19.984375 23.195312 -19.648438 22.15625 -19.171875 C 21.125 -18.691406 20.085938 -18.09375 19.046875 -17.375 C 18.003906 -16.664062 17.019531 -15.847656 16.09375 -14.921875 C 15.164062 -13.992188 14.378906 -12.992188 13.734375 -11.921875 C 12.441406 -9.796875 11.628906 -7.851562 11.296875 -6.09375 C 10.960938 -4.332031 10.953125 -2.753906 11.265625 -1.359375 C 11.578125 0.0234375 12.132812 1.222656 12.9375 2.234375 C 13.75 3.242188 14.65625 4.050781 15.65625 4.65625 Z M 32.34375 -17.78125 C 31.632812 -18.207031 30.882812 -18.453125 30.09375 -18.515625 C 29.300781 -18.585938 28.523438 -18.492188 27.765625 -18.234375 C 27.003906 -17.984375 26.269531 -17.570312 25.5625 -17 C 24.863281 -16.425781 24.242188 -15.691406 23.703125 -14.796875 C 22.765625 -13.253906 22.179688 -11.707031 21.953125 -10.15625 C 21.734375 -8.613281 21.8125 -7.132812 22.1875 -5.71875 C 22.570312 -4.3125 23.226562 -3.007812 24.15625 -1.8125 C 25.082031 -0.625 26.242188 0.390625 27.640625 1.234375 L 28.375 1.671875 C 29.070312 0.984375 29.734375 0.222656 30.359375 -0.609375 C 30.984375 -1.453125 31.613281 -2.394531 32.25 -3.4375 C 33.414062 -5.488281 34.226562 -7.296875 34.6875 -8.859375 C 35.144531 -10.429688 35.347656 -11.785156 35.296875 -12.921875 C 35.242188 -14.066406 34.945312 -15.035156 34.40625 -15.828125 C 33.863281 -16.628906 33.175781 -17.28125 32.34375 -17.78125 Z M 32.34375 -17.78125 "/></g></g></g><g fill="#754847" fill-opacity="1"><g transform="translate(559.395337, 204.569566)"><g><path d="M 10.578125 1.796875 C 9.015625 0.660156 8.175781 -0.910156 8.0625 -2.921875 C 7.957031 -4.941406 8.835938 -7.222656 10.703125 -9.765625 C 11.921875 -11.453125 13.820312 -13.351562 16.40625 -15.46875 C 19 -17.582031 22.335938 -19.671875 26.421875 -21.734375 L 27.53125 -20.34375 C 26.90625 -19.8125 26.019531 -19.113281 24.875 -18.25 C 23.738281 -17.382812 22.5 -16.382812 21.15625 -15.25 C 19.8125 -14.125 18.46875 -12.898438 17.125 -11.578125 C 15.789062 -10.265625 14.617188 -8.921875 13.609375 -7.546875 C 12.765625 -6.378906 12.160156 -5.363281 11.796875 -4.5 C 11.441406 -3.644531 11.253906 -2.90625 11.234375 -2.28125 C 11.222656 -1.664062 11.351562 -1.144531 11.625 -0.71875 C 11.90625 -0.300781 12.269531 0.0703125 12.71875 0.40625 C 13.4375 0.925781 14.28125 1.195312 15.25 1.21875 C 16.226562 1.238281 17.269531 1.097656 18.375 0.796875 C 19.488281 0.503906 20.628906 0.0859375 21.796875 -0.453125 C 22.960938 -0.992188 24.082031 -1.566406 25.15625 -2.171875 C 26.226562 -2.785156 27.226562 -3.390625 28.15625 -3.984375 C 29.082031 -4.578125 29.859375 -5.109375 30.484375 -5.578125 L 31.671875 -4.140625 C 30.867188 -3.597656 29.925781 -2.96875 28.84375 -2.25 C 27.769531 -1.53125 26.628906 -0.816406 25.421875 -0.109375 C 24.210938 0.585938 22.957031 1.222656 21.65625 1.796875 C 20.363281 2.367188 19.070312 2.785156 17.78125 3.046875 C 16.5 3.316406 15.242188 3.367188 14.015625 3.203125 C 12.785156 3.046875 11.640625 2.578125 10.578125 1.796875 Z M 41.8125 -28.40625 C 41.175781 -27.539062 40.351562 -27.117188 39.34375 -27.140625 C 38.34375 -27.160156 37.335938 -27.539062 36.328125 -28.28125 C 35.804688 -28.65625 35.375 -29.085938 35.03125 -29.578125 C 34.6875 -30.078125 34.441406 -30.578125 34.296875 -31.078125 C 34.160156 -31.585938 34.128906 -32.085938 34.203125 -32.578125 C 34.285156 -33.078125 34.46875 -33.523438 34.75 -33.921875 C 35.363281 -34.753906 36.1875 -35.191406 37.21875 -35.234375 C 38.25 -35.273438 39.195312 -34.984375 40.0625 -34.359375 C 40.6875 -33.898438 41.175781 -33.394531 41.53125 -32.84375 C 41.882812 -32.300781 42.128906 -31.753906 42.265625 -31.203125 C 42.398438 -30.660156 42.421875 -30.144531 42.328125 -29.65625 C 42.234375 -29.164062 42.0625 -28.75 41.8125 -28.40625 Z M 39.8125 -29.875 C 39.988281 -30.125 40.050781 -30.429688 40 -30.796875 C 39.945312 -31.160156 39.707031 -31.5 39.28125 -31.8125 C 38.519531 -32.363281 37.929688 -32.351562 37.515625 -31.78125 C 37.316406 -31.507812 37.265625 -31.191406 37.359375 -30.828125 C 37.460938 -30.472656 37.710938 -30.15625 38.109375 -29.875 C 38.472656 -29.601562 38.804688 -29.476562 39.109375 -29.5 C 39.410156 -29.53125 39.644531 -29.65625 39.8125 -29.875 Z M 39.8125 -29.875 "/></g></g></g><g fill="#754847" fill-opacity="1"><g transform="translate(571.990043, 213.342312)"><g><path d="M 27.21875 -8.046875 C 28.414062 -9.441406 29.785156 -10.363281 31.328125 -10.8125 C 32.878906 -11.269531 34.582031 -11.519531 36.4375 -11.5625 C 36.289062 -12.050781 36.078125 -12.507812 35.796875 -12.9375 C 35.523438 -13.375 35.21875 -13.738281 34.875 -14.03125 C 34.113281 -14.695312 33.128906 -15.210938 31.921875 -15.578125 C 30.722656 -15.941406 29.363281 -15.984375 27.84375 -15.703125 C 26.332031 -15.429688 24.675781 -14.75 22.875 -13.65625 C 21.082031 -12.5625 19.207031 -10.875 17.25 -8.59375 C 15.625 -6.71875 14.457031 -4.910156 13.75 -3.171875 C 13.039062 -1.441406 12.707031 0.195312 12.75 1.75 C 12.789062 3.300781 13.15625 4.726562 13.84375 6.03125 C 14.539062 7.34375 15.484375 8.507812 16.671875 9.53125 C 18.078125 10.75 19.648438 11.472656 21.390625 11.703125 C 23.128906 11.929688 25.019531 11.800781 27.0625 11.3125 C 29.101562 10.832031 31.269531 10.070312 33.5625 9.03125 C 35.851562 7.988281 38.253906 6.8125 40.765625 5.5 L 41.78125 7 C 40.332031 7.726562 38.84375 8.476562 37.3125 9.25 C 35.78125 10.03125 34.210938 10.75 32.609375 11.40625 C 31.003906 12.070312 29.394531 12.617188 27.78125 13.046875 C 26.164062 13.472656 24.5625 13.6875 22.96875 13.6875 C 21.382812 13.695312 19.820312 13.441406 18.28125 12.921875 C 16.738281 12.410156 15.265625 11.546875 13.859375 10.328125 C 12.410156 9.078125 11.25 7.660156 10.375 6.078125 C 9.507812 4.492188 9.003906 2.800781 8.859375 1 C 8.710938 -0.800781 8.976562 -2.679688 9.65625 -4.640625 C 10.332031 -6.597656 11.519531 -8.5625 13.21875 -10.53125 C 14.945312 -12.53125 16.882812 -14.101562 19.03125 -15.25 C 21.175781 -16.394531 23.296875 -17.15625 25.390625 -17.53125 C 27.484375 -17.90625 29.453125 -17.921875 31.296875 -17.578125 C 33.148438 -17.234375 34.632812 -16.582031 35.75 -15.625 C 37.050781 -14.5 37.921875 -13.160156 38.359375 -11.609375 C 38.679688 -11.585938 38.988281 -11.578125 39.28125 -11.578125 C 39.582031 -11.578125 39.898438 -11.585938 40.234375 -11.609375 L 40.078125 -9.875 C 39.828125 -9.875 39.578125 -9.875 39.328125 -9.875 C 39.085938 -9.875 38.84375 -9.863281 38.59375 -9.84375 C 38.570312 -8.976562 38.394531 -8.078125 38.0625 -7.140625 C 37.726562 -6.210938 37.191406 -5.320312 36.453125 -4.46875 C 35.617188 -3.507812 34.78125 -2.757812 33.9375 -2.21875 C 33.09375 -1.6875 32.257812 -1.332031 31.4375 -1.15625 C 30.613281 -0.976562 29.847656 -0.96875 29.140625 -1.125 C 28.429688 -1.289062 27.8125 -1.601562 27.28125 -2.0625 C 27 -2.300781 26.738281 -2.632812 26.5 -3.0625 C 26.257812 -3.5 26.101562 -3.976562 26.03125 -4.5 C 25.96875 -5.03125 26.015625 -5.597656 26.171875 -6.203125 C 26.328125 -6.816406 26.675781 -7.429688 27.21875 -8.046875 Z M 35.03125 -5.703125 C 35.601562 -6.367188 36.019531 -7.054688 36.28125 -7.765625 C 36.539062 -8.472656 36.679688 -9.160156 36.703125 -9.828125 C 35.210938 -9.816406 33.765625 -9.617188 32.359375 -9.234375 C 30.953125 -8.859375 29.71875 -8.050781 28.65625 -6.8125 C 28.09375 -6.164062 27.816406 -5.523438 27.828125 -4.890625 C 27.847656 -4.265625 28.078125 -3.757812 28.515625 -3.375 C 29.035156 -2.9375 29.601562 -2.734375 30.21875 -2.765625 C 30.832031 -2.796875 31.4375 -2.960938 32.03125 -3.265625 C 32.625 -3.578125 33.1875 -3.960938 33.71875 -4.421875 C 34.25 -4.878906 34.6875 -5.304688 35.03125 -5.703125 Z M 35.03125 -5.703125 "/></g></g></g><g fill="#754847" fill-opacity="1"><g transform="translate(593.227016, 231.654104)"><g><path d="M 10.375 9.96875 C 9.300781 8.84375 8.46875 7.566406 7.875 6.140625 C 7.28125 4.722656 7.007812 3.226562 7.0625 1.65625 C 7.125 0.09375 7.546875 -1.492188 8.328125 -3.109375 C 9.109375 -4.734375 10.320312 -6.328125 11.96875 -7.890625 C 13.957031 -9.785156 16.007812 -11.191406 18.125 -12.109375 C 20.238281 -13.023438 22.257812 -13.539062 24.1875 -13.65625 C 26.113281 -13.78125 27.890625 -13.554688 29.515625 -12.984375 C 31.140625 -12.410156 32.457031 -11.59375 33.46875 -10.53125 C 34.78125 -9.15625 35.367188 -7.628906 35.234375 -5.953125 C 35.097656 -4.285156 34.304688 -2.769531 32.859375 -1.40625 C 31.617188 -0.21875 30.269531 0.617188 28.8125 1.109375 C 27.351562 1.597656 25.898438 1.804688 24.453125 1.734375 C 23.015625 1.660156 21.625 1.316406 20.28125 0.703125 C 18.9375 0.0976562 17.757812 -0.734375 16.75 -1.796875 C 16.257812 -2.304688 15.828125 -2.8125 15.453125 -3.3125 C 15.078125 -3.820312 14.753906 -4.289062 14.484375 -4.71875 C 13.234375 -3.269531 12.296875 -1.867188 11.671875 -0.515625 C 11.054688 0.828125 10.710938 2.101562 10.640625 3.3125 C 10.578125 4.519531 10.738281 5.644531 11.125 6.6875 C 11.519531 7.738281 12.097656 8.664062 12.859375 9.46875 C 13.804688 10.457031 14.925781 11.140625 16.21875 11.515625 C 17.507812 11.890625 18.890625 12.054688 20.359375 12.015625 C 21.828125 11.984375 23.347656 11.773438 24.921875 11.390625 C 26.492188 11.003906 28.03125 10.539062 29.53125 10 C 31.03125 9.46875 32.457031 8.90625 33.8125 8.3125 C 35.175781 7.71875 36.382812 7.195312 37.4375 6.75 L 38.328125 8.359375 C 37.328125 8.765625 36.117188 9.269531 34.703125 9.875 C 33.296875 10.488281 31.773438 11.078125 30.140625 11.640625 C 28.503906 12.210938 26.789062 12.703125 25 13.109375 C 23.207031 13.515625 21.445312 13.710938 19.71875 13.703125 C 18 13.691406 16.332031 13.40625 14.71875 12.84375 C 13.113281 12.289062 11.664062 11.332031 10.375 9.96875 Z M 32.234375 -9.234375 C 31.453125 -10.054688 30.425781 -10.613281 29.15625 -10.90625 C 27.882812 -11.195312 26.5 -11.21875 25 -10.96875 C 23.5 -10.726562 21.941406 -10.210938 20.328125 -9.421875 C 18.722656 -8.628906 17.210938 -7.554688 15.796875 -6.203125 C 15.953125 -5.804688 16.238281 -5.3125 16.65625 -4.71875 C 17.070312 -4.125 17.640625 -3.453125 18.359375 -2.703125 C 19.117188 -1.898438 20.046875 -1.265625 21.140625 -0.796875 C 22.234375 -0.335938 23.382812 -0.0820312 24.59375 -0.03125 C 25.800781 0.0078125 27.007812 -0.175781 28.21875 -0.59375 C 29.4375 -1.007812 30.546875 -1.691406 31.546875 -2.640625 C 32.035156 -3.097656 32.4375 -3.601562 32.75 -4.15625 C 33.070312 -4.707031 33.269531 -5.273438 33.34375 -5.859375 C 33.425781 -6.453125 33.378906 -7.035156 33.203125 -7.609375 C 33.035156 -8.179688 32.710938 -8.722656 32.234375 -9.234375 Z M 32.234375 -9.234375 "/></g></g></g><g fill="#754847" fill-opacity="1"><g transform="translate(350.639258, 690.652613)"><g><path d="M 8.65625 -10.21875 L 7.96875 -7.75 L 12.78125 -6.40625 L 11.890625 -3.234375 L 7.078125 -4.578125 L 6.328125 -1.859375 L 11.78125 -0.34375 L 10.84375 3.015625 L 1.203125 0.328125 L 5.40625 -14.75 L 15.046875 -12.0625 L 14.109375 -8.703125 Z M 8.65625 -10.21875 "/></g></g></g><g fill="#754847" fill-opacity="1"><g transform="translate(363.968502, 694.327795)"><g><path d="M 6.984375 1.546875 C 5.203125 1.191406 3.816406 0.476562 2.828125 -0.59375 C 1.847656 -1.675781 1.476562 -3.015625 1.71875 -4.609375 L 6.265625 -3.703125 C 6.191406 -3.171875 6.269531 -2.75 6.5 -2.4375 C 6.726562 -2.132812 7.0625 -1.941406 7.5 -1.859375 C 7.894531 -1.773438 8.238281 -1.804688 8.53125 -1.953125 C 8.820312 -2.109375 9.003906 -2.363281 9.078125 -2.71875 C 9.171875 -3.164062 9.023438 -3.550781 8.640625 -3.875 C 8.265625 -4.207031 7.640625 -4.617188 6.765625 -5.109375 C 5.828125 -5.648438 5.078125 -6.132812 4.515625 -6.5625 C 3.960938 -6.988281 3.519531 -7.550781 3.1875 -8.25 C 2.851562 -8.945312 2.785156 -9.78125 2.984375 -10.75 C 3.179688 -11.75 3.59375 -12.546875 4.21875 -13.140625 C 4.84375 -13.742188 5.628906 -14.140625 6.578125 -14.328125 C 7.523438 -14.523438 8.550781 -14.515625 9.65625 -14.296875 C 11.4375 -13.941406 12.773438 -13.238281 13.671875 -12.1875 C 14.566406 -11.144531 14.898438 -9.859375 14.671875 -8.328125 L 10.046875 -9.25 C 10.117188 -9.726562 10.046875 -10.109375 9.828125 -10.390625 C 9.609375 -10.671875 9.289062 -10.851562 8.875 -10.9375 C 8.550781 -11 8.269531 -10.953125 8.03125 -10.796875 C 7.789062 -10.648438 7.632812 -10.40625 7.5625 -10.0625 C 7.507812 -9.78125 7.570312 -9.507812 7.75 -9.25 C 7.9375 -8.988281 8.179688 -8.75 8.484375 -8.53125 C 8.785156 -8.320312 9.242188 -8.03125 9.859375 -7.65625 C 10.753906 -7.132812 11.488281 -6.644531 12.0625 -6.1875 C 12.632812 -5.726562 13.085938 -5.160156 13.421875 -4.484375 C 13.753906 -3.804688 13.832031 -3.019531 13.65625 -2.125 C 13.476562 -1.21875 13.085938 -0.445312 12.484375 0.1875 C 11.890625 0.832031 11.117188 1.28125 10.171875 1.53125 C 9.222656 1.78125 8.160156 1.785156 6.984375 1.546875 Z M 6.984375 1.546875 "/></g></g></g><g fill="#754847" fill-opacity="1"><g transform="translate(379.13518, 697.264934)"><g><path d="M 14.765625 -14.015625 L 14.359375 -10.578125 L 10.21875 -11.078125 L 8.796875 1.03125 L 4.46875 0.53125 L 5.890625 -11.578125 L 1.796875 -12.0625 L 2.203125 -15.5 Z M 14.765625 -14.015625 "/></g></g></g><g fill="#754847" fill-opacity="1"><g transform="translate(393.999599, 698.870377)"><g><path d="M 3.34375 0.359375 C 2.570312 0.316406 1.960938 0.0703125 1.515625 -0.375 C 1.078125 -0.820312 0.878906 -1.367188 0.921875 -2.015625 C 0.953125 -2.671875 1.210938 -3.195312 1.703125 -3.59375 C 2.203125 -4 2.835938 -4.179688 3.609375 -4.140625 C 4.359375 -4.085938 4.953125 -3.832031 5.390625 -3.375 C 5.828125 -2.925781 6.03125 -2.375 6 -1.71875 C 5.957031 -1.082031 5.691406 -0.5625 5.203125 -0.15625 C 4.710938 0.238281 4.09375 0.410156 3.34375 0.359375 Z M 3.34375 0.359375 "/></g></g></g><g fill="#754847" fill-opacity="1"><g transform="translate(402.035799, 699.288809)"><g/></g></g><g fill="#754847" fill-opacity="1"><g transform="translate(407.756811, 699.487084)"><g><path d="M 0.640625 -3.5 C 2.046875 -4.664062 3.191406 -5.664062 4.078125 -6.5 C 4.972656 -7.34375 5.71875 -8.207031 6.3125 -9.09375 C 6.90625 -9.988281 7.191406 -10.828125 7.171875 -11.609375 C 7.160156 -12.078125 7.039062 -12.441406 6.8125 -12.703125 C 6.59375 -12.972656 6.273438 -13.097656 5.859375 -13.078125 C 5.429688 -13.066406 5.101562 -12.875 4.875 -12.5 C 4.65625 -12.132812 4.5625 -11.601562 4.59375 -10.90625 L 0.375 -10.78125 C 0.382812 -12.101562 0.644531 -13.203125 1.15625 -14.078125 C 1.664062 -14.960938 2.34375 -15.617188 3.1875 -16.046875 C 4.03125 -16.484375 4.976562 -16.71875 6.03125 -16.75 C 7.851562 -16.800781 9.222656 -16.390625 10.140625 -15.515625 C 11.054688 -14.640625 11.535156 -13.484375 11.578125 -12.046875 C 11.617188 -10.503906 11.140625 -9.039062 10.140625 -7.65625 C 9.148438 -6.28125 7.898438 -5.039062 6.390625 -3.9375 L 11.953125 -4.09375 L 12.0625 -0.5625 L 0.734375 -0.234375 Z M 0.640625 -3.5 "/></g></g></g><g fill="#754847" fill-opacity="1"><g transform="translate(422.068888, 699.050206)"><g><path d="M -0.03125 -8.390625 C -0.300781 -10.929688 -0.00390625 -12.984375 0.859375 -14.546875 C 1.734375 -16.109375 3.273438 -17.007812 5.484375 -17.25 C 7.691406 -17.488281 9.394531 -16.9375 10.59375 -15.59375 C 11.789062 -14.25 12.523438 -12.304688 12.796875 -9.765625 C 13.066406 -7.203125 12.765625 -5.140625 11.890625 -3.578125 C 11.015625 -2.015625 9.46875 -1.113281 7.25 -0.875 C 5.03125 -0.632812 3.328125 -1.1875 2.140625 -2.53125 C 0.960938 -3.875 0.238281 -5.828125 -0.03125 -8.390625 Z M 8.515625 -9.3125 C 8.367188 -10.632812 8.117188 -11.628906 7.765625 -12.296875 C 7.410156 -12.960938 6.800781 -13.25 5.9375 -13.15625 C 5.070312 -13.0625 4.535156 -12.648438 4.328125 -11.921875 C 4.117188 -11.191406 4.085938 -10.164062 4.234375 -8.84375 C 4.378906 -7.5 4.625 -6.488281 4.96875 -5.8125 C 5.3125 -5.144531 5.925781 -4.859375 6.8125 -4.953125 C 7.695312 -5.046875 8.238281 -5.457031 8.4375 -6.1875 C 8.632812 -6.925781 8.660156 -7.96875 8.515625 -9.3125 Z M 8.515625 -9.3125 "/></g></g></g><g fill="#754847" fill-opacity="1"><g transform="translate(438.233414, 697.203656)"><g><path d="M 0.078125 -3.5625 C 1.285156 -4.925781 2.265625 -6.09375 3.015625 -7.0625 C 3.765625 -8.039062 4.363281 -9.015625 4.8125 -9.984375 C 5.257812 -10.953125 5.410156 -11.816406 5.265625 -12.578125 C 5.179688 -13.046875 5.003906 -13.390625 4.734375 -13.609375 C 4.472656 -13.835938 4.140625 -13.914062 3.734375 -13.84375 C 3.316406 -13.757812 3.023438 -13.515625 2.859375 -13.109375 C 2.703125 -12.710938 2.695312 -12.171875 2.84375 -11.484375 L -1.3125 -10.703125 C -1.519531 -12.015625 -1.441406 -13.144531 -1.078125 -14.09375 C -0.710938 -15.039062 -0.144531 -15.789062 0.625 -16.34375 C 1.394531 -16.90625 2.296875 -17.285156 3.328125 -17.484375 C 5.117188 -17.816406 6.535156 -17.625 7.578125 -16.90625 C 8.617188 -16.1875 9.269531 -15.117188 9.53125 -13.703125 C 9.820312 -12.191406 9.582031 -10.675781 8.8125 -9.15625 C 8.050781 -7.632812 7.015625 -6.210938 5.703125 -4.890625 L 11.171875 -5.921875 L 11.8125 -2.453125 L 0.671875 -0.359375 Z M 0.078125 -3.5625 "/></g></g></g><g fill="#754847" fill-opacity="1"><g transform="translate(452.299739, 694.526745)"><g><path d="M -1.359375 -8.265625 C -2.023438 -10.734375 -2.046875 -12.804688 -1.421875 -14.484375 C -0.804688 -16.171875 0.578125 -17.304688 2.734375 -17.890625 C 4.867188 -18.472656 6.628906 -18.195312 8.015625 -17.0625 C 9.398438 -15.925781 10.425781 -14.125 11.09375 -11.65625 C 11.769531 -9.175781 11.796875 -7.09375 11.171875 -5.40625 C 10.554688 -3.726562 9.175781 -2.59375 7.03125 -2 C 4.863281 -1.414062 3.09375 -1.691406 1.71875 -2.828125 C 0.34375 -3.972656 -0.679688 -5.785156 -1.359375 -8.265625 Z M 6.9375 -10.515625 C 6.59375 -11.804688 6.191406 -12.753906 5.734375 -13.359375 C 5.273438 -13.960938 4.628906 -14.148438 3.796875 -13.921875 C 2.953125 -13.703125 2.484375 -13.210938 2.390625 -12.453125 C 2.304688 -11.703125 2.4375 -10.679688 2.78125 -9.390625 C 3.132812 -8.085938 3.535156 -7.132812 3.984375 -6.53125 C 4.441406 -5.925781 5.101562 -5.738281 5.96875 -5.96875 C 6.820312 -6.207031 7.285156 -6.695312 7.359375 -7.4375 C 7.429688 -8.1875 7.289062 -9.210938 6.9375 -10.515625 Z M 6.9375 -10.515625 "/></g></g></g><g clip-path="url(#e2f2f7b6da)"><path fill="#754847" d="M 408.398438 718.679688 C 242.371094 718.679688 107.140625 583.449219 107.140625 417.214844 C 107.140625 250.980469 242.371094 115.953125 408.398438 115.953125 C 574.429688 115.953125 709.660156 251.183594 709.660156 417.214844 C 709.863281 583.449219 574.632812 718.679688 408.398438 718.679688 Z M 408.398438 121.050781 C 245.019531 121.050781 112.238281 253.835938 112.238281 417.214844 C 112.238281 580.59375 245.226562 713.578125 408.398438 713.578125 C 571.574219 713.578125 704.765625 580.59375 704.765625 417.214844 C 704.765625 253.835938 571.777344 121.050781 408.398438 121.050781 Z M 408.398438 121.050781 " fill-opacity="1" fill-rule="nonzero"/></g><g clip-path="url(#de93275469)"><path fill="#754847" d="M 408.398438 718.679688 C 242.371094 718.679688 107.140625 583.449219 107.140625 417.214844 C 107.140625 250.980469 242.371094 115.953125 408.398438 115.953125 C 574.429688 115.953125 709.660156 251.183594 709.660156 417.214844 C 709.863281 583.449219 574.632812 718.679688 408.398438 718.679688 Z M 408.398438 121.050781 C 245.019531 121.050781 112.238281 253.835938 112.238281 417.214844 C 112.238281 580.59375 245.226562 713.578125 408.398438 713.578125 C 571.574219 713.578125 704.765625 580.59375 704.765625 417.214844 C 704.765625 253.835938 571.777344 121.050781 408.398438 121.050781 Z M 408.398438 121.050781 " fill-opacity="1" fill-rule="nonzero"/></g><g mask="url(#befcc9043c)"><g transform="matrix(1, 0, 0, 1, 126, 133)"><g clip-path="url(#bd713fade7)"><g clip-path="url(#4cccc5c7d0)"><path fill="#754847" d="M 284.480469 568.582031 C 128.089844 568.582031 0.714844 441.207031 0.714844 284.625 C 0.714844 128.046875 128.089844 0.863281 284.480469 0.863281 C 440.867188 0.863281 568.242188 128.238281 568.242188 284.625 C 568.433594 441.207031 441.058594 568.582031 284.480469 568.582031 Z M 284.480469 5.664062 C 130.589844 5.664062 5.519531 130.738281 5.519531 284.625 C 5.519531 438.515625 130.78125 563.777344 284.480469 563.777344 C 438.175781 563.777344 563.632812 438.515625 563.632812 284.625 C 563.632812 130.738281 438.367188 5.664062 284.480469 5.664062 Z M 284.480469 5.664062 " fill-opacity="1" fill-rule="nonzero"/></g></g></g></g><g mask="url(#906348bd32)"><g transform="matrix(1, 0, 0, 1, 126, 133)"><g clip-path="url(#c480845300)"><g clip-path="url(#16b86555dc)"><path fill="#754847" d="M 284.480469 568.582031 C 128.089844 568.582031 0.714844 441.207031 0.714844 284.625 C 0.714844 128.046875 128.089844 0.863281 284.480469 0.863281 C 440.867188 0.863281 568.242188 128.238281 568.242188 284.625 C 568.433594 441.207031 441.058594 568.582031 284.480469 568.582031 Z M 284.480469 5.664062 C 130.589844 5.664062 5.519531 130.738281 5.519531 284.625 C 5.519531 438.515625 130.78125 563.777344 284.480469 563.777344 C 438.175781 563.777344 563.632812 438.515625 563.632812 284.625 C 563.632812 130.738281 438.367188 5.664062 284.480469 5.664062 Z M 284.480469 5.664062 " fill-opacity="1" fill-rule="nonzero"/></g></g></g></g><g clip-path="url(#7a9d49ff51)"><g clip-path="url(#e16ed41c6f)"><path fill="#754847" d="M 100.488281 411.144531 L 121.550781 411.144531 L 121.550781 432.207031 L 100.488281 432.207031 Z M 100.488281 411.144531 " fill-opacity="1" fill-rule="nonzero"/></g></g><g mask="url(#475dcdc8d5)"><g transform="matrix(1, 0, 0, 1, 116, 411)"><g clip-path="url(#708d6f7ccb)"><g clip-path="url(#c2a28df4fb)"><g clip-path="url(#9ccee8229f)"><path fill="#754847" d="M 0.183594 0.144531 L 21.246094 0.144531 L 21.246094 21.207031 L 0.183594 21.207031 Z M 0.183594 0.144531 " fill-opacity="1" fill-rule="nonzero"/></g></g></g></g></g><g clip-path="url(#87af6cf4fe)"><g clip-path="url(#de36763e1e)"><path fill="#754847" d="M 697.394531 411.144531 L 718.460938 411.144531 L 718.460938 432.207031 L 697.394531 432.207031 Z M 697.394531 411.144531 " fill-opacity="1" fill-rule="nonzero"/></g></g><g mask="url(#77a5770e40)"><g transform="matrix(1, 0, 0, 1, 684, 411)"><g clip-path="url(#1813f58e44)"><g clip-path="url(#9e2161f2ec)"><g clip-path="url(#b2dbb99b3d)"><path fill="#754847" d="M 0.28125 0.144531 L 21.347656 0.144531 L 21.347656 21.207031 L 0.28125 21.207031 Z M 0.28125 0.144531 " fill-opacity="1" fill-rule="nonzero"/></g></g></g></g></g><g clip-path="url(#ea3fc2f9eb)"><path fill="#754847" d="M 410.683594 628.902344 C 396.40625 628.902344 383.726562 622.042969 371.523438 615.425781 C 364.425781 611.597656 357.644531 607.925781 350.867188 605.695312 C 343.6875 603.378906 335.472656 602.265625 327.578125 601.148438 C 313.941406 599.3125 299.902344 597.398438 288.816406 589.34375 C 277.652344 581.207031 271.511719 568.367188 265.53125 556.003906 C 261.941406 548.503906 258.511719 541.40625 254.125 535.425781 C 249.816406 529.523438 244.15625 524.179688 238.253906 518.515625 C 228.203125 508.945312 217.835938 499.132812 213.53125 485.8125 C 209.382812 473.050781 211.933594 459.253906 214.328125 445.855469 C 215.761719 437.878906 217.277344 429.582031 217.277344 421.765625 C 217.277344 413.949219 215.761719 405.734375 214.328125 397.679688 C 211.933594 384.277344 209.382812 370.398438 213.53125 357.71875 C 217.835938 344.398438 228.203125 334.507812 238.253906 325.015625 C 244.234375 319.355469 249.816406 314.007812 254.125 308.109375 C 258.511719 302.046875 261.941406 295.027344 265.53125 287.527344 C 271.511719 274.925781 277.730469 262.085938 288.898438 253.949219 C 299.984375 245.894531 314.019531 243.980469 327.660156 242.144531 C 335.554688 241.027344 343.769531 239.914062 350.945312 237.597656 C 357.726562 235.367188 364.503906 231.777344 371.601562 227.867188 C 383.804688 221.25 396.488281 214.390625 410.761719 214.390625 C 425.039062 214.390625 437.71875 221.25 449.921875 227.867188 C 457.019531 231.695312 463.800781 235.367188 470.578125 237.597656 C 477.757812 239.914062 485.972656 241.027344 493.867188 242.144531 C 507.503906 243.980469 521.542969 245.894531 532.628906 253.949219 C 543.792969 262.085938 549.933594 274.925781 555.917969 287.289062 C 559.503906 294.789062 562.933594 301.886719 567.320312 307.867188 C 571.628906 313.769531 577.289062 319.113281 583.191406 324.777344 C 593.242188 334.347656 603.609375 344.160156 607.917969 357.480469 C 612.0625 370.242188 609.511719 384.039062 607.117188 397.4375 C 605.683594 405.414062 604.167969 413.710938 604.167969 421.527344 C 604.167969 429.34375 605.683594 437.558594 607.117188 445.613281 C 609.511719 459.015625 612.0625 472.890625 607.917969 485.574219 C 603.609375 498.894531 593.242188 508.785156 583.191406 518.277344 C 577.210938 523.9375 571.628906 529.28125 567.320312 535.183594 C 562.933594 541.246094 559.503906 548.265625 555.917969 555.761719 C 549.933594 568.207031 543.792969 581.046875 532.628906 589.101562 C 521.542969 597.160156 507.503906 599.074219 493.867188 600.90625 C 485.972656 602.023438 477.757812 603.140625 470.578125 605.453125 C 463.800781 607.6875 457.019531 611.277344 449.921875 615.183594 C 437.640625 622.042969 425.039062 628.902344 410.683594 628.902344 Z M 410.683594 223.003906 C 398.558594 223.003906 386.917969 229.304688 375.671875 235.445312 C 368.492188 239.355469 361.15625 243.34375 353.578125 245.816406 C 345.683594 248.367188 337.070312 249.5625 328.773438 250.679688 C 315.617188 252.433594 303.253906 254.1875 294.003906 260.890625 C 284.589844 267.75 279.167969 279.074219 273.34375 291.039062 C 269.757812 298.535156 266.007812 306.351562 261.144531 312.972656 C 256.359375 319.511719 250.21875 325.414062 244.234375 331.078125 C 234.585938 340.25 225.414062 348.945312 221.746094 360.191406 C 218.316406 370.878906 220.46875 383.082031 222.78125 396.003906 C 224.296875 404.378906 225.890625 413.070312 225.890625 421.605469 C 225.890625 430.140625 224.296875 438.835938 222.78125 447.210938 C 220.46875 460.132812 218.234375 472.335938 221.746094 483.023438 C 225.414062 494.269531 234.503906 502.960938 244.234375 512.132812 C 250.21875 517.796875 256.4375 523.699219 261.144531 530.242188 C 266.007812 536.941406 269.757812 544.675781 273.34375 552.175781 C 279.089844 564.136719 284.511719 575.464844 293.921875 582.324219 C 303.175781 589.101562 315.617188 590.777344 328.695312 592.53125 C 336.988281 593.648438 345.601562 594.847656 353.5 597.398438 C 361.074219 599.871094 368.414062 603.859375 375.589844 607.765625 C 386.835938 613.910156 398.558594 620.210938 410.601562 620.210938 C 422.726562 620.210938 434.371094 613.910156 445.617188 607.765625 C 452.792969 603.859375 460.132812 599.871094 467.707031 597.398438 C 475.605469 594.847656 484.21875 593.648438 492.511719 592.53125 C 505.671875 590.777344 518.03125 589.023438 527.285156 582.324219 C 536.695312 575.464844 542.117188 564.136719 547.859375 552.175781 C 551.449219 544.675781 555.199219 536.859375 560.0625 530.242188 C 564.847656 523.699219 570.988281 517.796875 576.972656 512.132812 C 586.621094 502.960938 595.792969 494.269531 599.460938 483.023438 C 602.890625 472.335938 600.738281 460.128906 598.425781 447.210938 C 596.910156 438.835938 595.316406 430.140625 595.316406 421.605469 C 595.316406 413.070312 596.910156 404.378906 598.425781 396.003906 C 600.738281 383.082031 602.972656 370.878906 599.460938 360.191406 C 595.792969 348.945312 586.703125 340.25 576.972656 331.078125 C 570.988281 325.414062 564.769531 319.511719 560.0625 312.972656 C 555.199219 306.273438 551.449219 298.535156 547.859375 291.039062 C 542.117188 279.074219 536.695312 267.75 527.285156 260.890625 C 518.03125 254.109375 505.589844 252.433594 492.511719 250.679688 C 484.21875 249.5625 475.605469 248.367188 467.707031 245.816406 C 460.132812 243.34375 452.792969 239.355469 445.617188 235.445312 C 434.449219 229.304688 422.804688 223.003906 410.683594 223.003906 Z M 410.683594 223.003906 " fill-opacity="1" fill-rule="nonzero"/></g><path fill="#754847" d="M 402.21875 423.640625 C 399.582031 423.640625 397.152344 424.265625 394.988281 425.496094 C 385.761719 430.742188 384.242188 445.527344 391.59375 458.453125 C 397.050781 468.035156 406.015625 474.222656 414.441406 474.222656 C 417.078125 474.222656 419.507812 473.601562 421.671875 472.367188 C 426.058594 469.875 428.859375 465.125 429.550781 459.007812 C 430.261719 452.707031 428.671875 445.75 425.0625 439.414062 C 419.609375 429.835938 410.640625 423.640625 402.21875 423.640625 Z M 414.441406 477.308594 C 404.929688 477.308594 394.90625 470.507812 388.914062 459.976562 C 380.71875 445.574219 382.757812 428.90625 393.460938 422.816406 C 396.09375 421.316406 399.039062 420.558594 402.21875 420.558594 C 411.730469 420.558594 421.75 427.363281 427.742188 437.890625 C 431.671875 444.785156 433.402344 452.410156 432.617188 459.355469 C 431.8125 466.480469 428.464844 472.054688 423.195312 475.046875 C 420.5625 476.546875 417.617188 477.308594 414.441406 477.308594 " fill-opacity="1" fill-rule="nonzero"/><path fill="#754847" d="M 422.890625 474.128906 C 409.773438 465.101562 407.210938 457.953125 406.144531 444.332031 C 405.371094 434.503906 397.800781 428.300781 393.359375 425.480469 L 395.011719 422.875 C 399.941406 426.007812 408.34375 432.929688 409.21875 444.089844 C 410.265625 457.480469 412.644531 463.332031 424.640625 471.589844 L 422.890625 474.128906 " fill-opacity="1" fill-rule="nonzero"/><path fill="#754847" d="M 372.925781 499.148438 L 439.941406 499.148438 C 464.746094 468.835938 470.558594 409.691406 471.410156 399.113281 L 341.457031 399.113281 C 342.3125 409.691406 348.128906 468.84375 372.925781 499.148438 Z M 441.390625 502.230469 L 371.480469 502.230469 L 371.015625 501.679688 C 342.792969 467.914062 338.429688 400.515625 338.257812 397.664062 L 338.15625 396.027344 L 474.707031 396.027344 L 474.613281 397.664062 C 474.441406 400.515625 470.074219 467.914062 441.851562 501.679688 L 441.390625 502.230469 " fill-opacity="1" fill-rule="nonzero"/><g clip-path="url(#b8b56b89f6)"><path fill="#754847" d="M 328.617188 510.621094 L 477.515625 510.621094 C 488.917969 510.621094 496.925781 505.460938 500.824219 502.230469 L 311.984375 502.230469 C 318.007812 507.152344 327.132812 510.152344 328.617188 510.621094 Z M 477.515625 513.707031 L 328.160156 513.707031 L 327.945312 513.640625 C 327.359375 513.46875 313.496094 509.285156 307.003906 501.691406 L 304.828125 499.148438 L 508.027344 499.148438 L 505.867188 501.691406 C 505.453125 502.179688 495.441406 513.707031 477.515625 513.707031 " fill-opacity="1" fill-rule="nonzero"/></g><path fill="#754847" d="M 470.257812 474.621094 C 467.433594 474.621094 464.5625 474.152344 461.753906 473.164062 C 460.121094 472.589844 458.558594 471.859375 457.101562 470.980469 L 457.890625 469.667969 L 457.882812 468.117188 L 458.3125 468.117188 L 458.6875 468.335938 C 459.96875 469.105469 461.34375 469.75 462.773438 470.253906 C 474.546875 474.390625 487.492188 468.179688 491.632812 456.410156 C 495.773438 444.644531 489.5625 431.703125 477.785156 427.5625 C 475.167969 426.640625 472.460938 426.210938 469.726562 426.28125 L 469.648438 423.195312 C 472.753906 423.125 475.835938 423.609375 478.808594 424.652344 C 492.191406 429.359375 499.25 444.066406 494.542969 457.433594 C 490.824219 467.996094 480.867188 474.621094 470.257812 474.621094 " fill-opacity="1" fill-rule="nonzero"/><path fill="#754847" d="M 472.597656 483.652344 C 469.554688 483.652344 466.539062 483.140625 463.625 482.117188 C 460.226562 480.914062 457.152344 479.082031 454.484375 476.664062 L 456.558594 474.378906 C 458.921875 476.519531 461.640625 478.144531 464.648438 479.207031 C 471.507812 481.617188 479.058594 480.789062 485.914062 476.871094 C 492.84375 472.910156 498.222656 466.285156 501.0625 458.207031 C 506.894531 441.625 500.054688 424.054688 485.816406 419.046875 C 481.207031 417.433594 476.1875 417.273438 471.296875 418.589844 L 470.496094 415.613281 C 475.988281 414.132812 481.636719 414.3125 486.835938 416.136719 C 502.683594 421.710938 510.367188 441.042969 503.972656 459.230469 C 500.886719 468.007812 495.019531 475.21875 487.449219 479.546875 C 482.6875 482.269531 477.613281 483.652344 472.597656 483.652344 " fill-opacity="1" fill-rule="nonzero"/><g clip-path="url(#caf3c9ea1b)"><path fill="#754847" d="M 539.042969 513.707031 L 282.246094 513.707031 L 282.246094 510.621094 L 539.042969 510.621094 L 539.042969 513.707031 " fill-opacity="1" fill-rule="nonzero"/></g><path fill="#754847" d="M 383.222656 384.441406 L 380.9375 382.363281 C 395.269531 366.621094 381 347.546875 380.855469 347.351562 C 366.308594 327.480469 380.824219 312.105469 380.972656 311.953125 L 383.191406 314.097656 C 382.660156 314.648438 370.367188 327.796875 383.324219 345.503906 C 383.46875 345.691406 399.261719 366.816406 383.222656 384.441406 " fill-opacity="1" fill-rule="nonzero"/><g clip-path="url(#9cb24b1a9d)"><path fill="#754847" d="M 404.765625 364.742188 L 402.484375 362.667969 C 416.777344 346.960938 402.992188 328.441406 402.398438 327.65625 C 387.855469 307.78125 402.367188 292.410156 402.519531 292.253906 L 404.734375 294.398438 C 404.207031 294.953125 391.914062 308.105469 404.871094 325.8125 C 405.011719 325.996094 420.808594 347.121094 404.765625 364.742188 " fill-opacity="1" fill-rule="nonzero"/></g><path fill="#754847" d="M 431.898438 382.21875 L 429.613281 380.144531 C 443.910156 364.4375 430.125 345.914062 429.527344 345.132812 C 414.988281 325.257812 429.5 309.886719 429.648438 309.730469 L 431.867188 311.878906 L 430.757812 310.808594 L 431.867188 311.875 C 431.339844 312.425781 419.042969 325.578125 432 343.289062 C 432.144531 343.472656 447.9375 364.597656 431.898438 382.21875 " fill-opacity="1" fill-rule="nonzero"/></svg>