<svg xmlns:dc="http://purl.org/dc/elements/1.1/" xmlns:cc="http://creativecommons.org/ns#" xmlns:rdf="http://www.w3.org/1999/02/22-rdf-syntax-ns#" xmlns:svg="http://www.w3.org/2000/svg" xmlns="http://www.w3.org/2000/svg" xmlns:xlink="http://www.w3.org/1999/xlink" id="svg506692" viewBox="0 0 1024 768" height="768px" width="1024px" version="1.1">
  <metadata id="metadata506698">
    <rdf:rdf>
      <cc:work rdf:about="">
        <dc:format>image/svg+xml</dc:format>
        <dc:type rdf:resource="http://purl.org/dc/dcmitype/StillImage"></dc:type>
      </cc:work>
    </rdf:rdf>
  </metadata>
  <defs id="defs506696"></defs>
  <linearGradient spreadMethod="pad" y2="30%" x2="-10%" y1="120%" x1="30%" id="3d_gradient2-logo-15275f30-1653-40d5-a751-5173ad03c577">
    <stop id="stop506673" stop-opacity="1" stop-color="#ffffff" offset="0%"></stop>
    <stop id="stop506675" stop-opacity="1" stop-color="#000000" offset="100%"></stop>
  </linearGradient>
  <linearGradient gradientTransform="rotate(-30)" spreadMethod="pad" y2="30%" x2="-10%" y1="120%" x1="30%" id="3d_gradient3-logo-15275f30-1653-40d5-a751-5173ad03c577">
    <stop id="stop506678" stop-opacity="1" stop-color="#ffffff" offset="0%"></stop>
    <stop id="stop506680" stop-opacity="1" stop-color="#cccccc" offset="50%"></stop>
    <stop id="stop506682" stop-opacity="1" stop-color="#000000" offset="100%"></stop>
  </linearGradient>
  <g id="logo-group">
    <image xlink:href="" id="container" x="272" y="144" width="480" height="480" transform="translate(0 0)" style="display: none;"></image>
    <g id="logo-center" transform="translate(0 0)">
      <image xlink:href="" id="icon_container" x="0" y="0" style="display: none;"></image>
      <g id="slogan" style="font-style:normal;font-weight:300;font-size:32px;line-height:1;font-family:'Open Sans';font-variant-ligatures:none;text-align:center;text-anchor:middle" transform="translate(0 0)"></g>
      <g id="title" style="font-style:normal;font-weight:normal;font-size:72px;line-height:1;font-family:'Brandmark Sans 30 Color';font-variant-ligatures:normal;text-align:center;text-anchor:middle" transform="translate(0 0)">
        <g id="path506701" aria-label="^C" transform="translate(0 397.78456) translate(322.7972609000001 43.498400000000004) scale(1.14) translate(-350.52931 46.44)"> <path class="c3" d="M100.43398,122.67978c-13.89716,0-19.22559-7.05664-19.22559-23.474 c0-17.06555,5.54443-23.32996,19.22559-23.32996c11.01697,0,16.63348,4.46436,18.36163,14.54517h-5.47247 c-1.51208-7.27258-4.10437-9.14478-12.88916-9.14478c-11.23291,0-13.8252,2.88025-13.8252,17.92957 c0,14.61731,2.59229,18.07361,13.8252,18.07361c7.70471,0,10.58496-1.72827,12.45715-7.92078h5.61646 C116.20338,118.57541,110.37086,122.67978,100.43398,122.67978z" transform="translate(269.32092 -122.31582)" stroke-width="0" stroke-linejoin="miter" stroke-miterlimit="2" fill="#c6a004" stroke="#c6a004"></path> </g>
        <g id="path506703" aria-label="^o" transform="translate(0 397.78456) translate(370.4278859000001 53.348000000000006) scale(1.14) translate(-391.31056 37.8)"> <path class="c3" d="M82.03639,103.45412c0-12.0249,6.76855-18.9375,17.92944-18.9375 c11.66504,0,18.00146,6.9126,18.00146,18.9375c0,12.24109-6.84033,19.22571-18.00146,19.22571 C88.15675,122.67982,82.03639,115.69521,82.03639,103.45412z M97.22951,116.99135h5.54468 c5.7605,0,9.79272-5.04041,9.79272-13.53723c0-8.4967-4.03223-13.53711-9.79272-13.53711h-5.54468 c-5.76025,0-9.79272,5.04041-9.79272,13.53711C87.43678,111.95094,91.46925,116.99135,97.22951,116.99135z" transform="translate(309.27417 -122.31662)" stroke-width="0" stroke-linejoin="miter" stroke-miterlimit="2" fill="#c6a004" stroke="#c6a004"></path> </g>
        <g id="path506705" aria-label="^d" transform="translate(0 397.78456) translate(416.1347609000001 43.90880000000001) scale(1.14) translate(-430.40431 46.08)"> <path class="c3" d="M82.86452,103.45412c0-11.88098,7.1286-18.9375,17.64154-18.9375c4.75238,0,8.4967,1.72803,11.23297,4.6084 V76.23586h5.40045v46.08398h-5.40045v-4.24841c-2.73627,2.95227-6.48059,4.68042-11.23297,4.68042 C89.99312,122.75185,82.86452,115.62331,82.86452,103.45412z M98.05782,116.99135h4.68042 c5.83252,0,9.00079-4.10437,9.00079-10.58484v-5.90454c0-6.48059-3.16827-10.58496-9.00079-10.58496h-4.68042 c-5.83246,0-9.79285,5.04041-9.79285,13.53711C88.26497,111.95094,92.22536,116.99135,98.05782,116.99135z" transform="translate(347.53979 -122.31586)" stroke-width="0" stroke-linejoin="miter" stroke-miterlimit="2" fill="#c6a004" stroke="#c6a004"></path> </g>
        <g id="path506707" aria-label="^e" transform="translate(0 397.78456) translate(459.91788590000016 53.348000000000006) scale(1.14) translate(-467.81056 37.8)"> <path class="c3" d="M83.15236,103.52614c0-12.45703,6.48059-19.00952,16.84949-19.00952s16.84949,6.55249,16.84949,19.00952 v1.44019H88.69679c0.28809,9.07275,3.38428,12.16907,9.36084,12.16907h4.53638c3.74438,0,6.55261-2.37622,8.28076-7.05664h5.40039 c-2.01611,7.99268-7.92065,12.60107-16.27332,12.60107C89.20094,122.67982,83.15236,115.47926,83.15236,103.52614z M111.16286,99.9258c-0.72021-7.4165-3.74438-10.00879-9.2168-10.00879h-3.88843c-5.47241,0-8.4967,2.59229-9.2168,10.00879 H111.16286z" transform="translate(384.6582 -122.31662)" stroke-width="0" stroke-linejoin="miter" stroke-miterlimit="2" fill="#c6a004" stroke="#c6a004"></path> </g>
        <g id="path506709" aria-label="F" transform="translate(0 397.78456) translate(511.2357041000001 43.99088) scale(1.14) translate(-511.82619 46.008)"> <path class="c1" d="M83.08046,76.30783h33.8429v9.36084h-33.8429V76.30783z M116.92336,103.74222H92.4413v18.57761h-9.36084 V94.38141h33.8429C116.92336,94.38141,116.92336,103.74222,116.92336,103.74222z" transform="translate(428.74573 -122.31583)" stroke-width="0" stroke-linejoin="miter" stroke-miterlimit="2" fill="#555c45" stroke="#555c45"></path> </g>
        <g id="path506711" aria-label="r" transform="translate(0 397.78456) translate(554.5378859000001 53.348000000000006) scale(1.14) translate(-548.81056 37.8)"> <path class="c1" d="M99.92921,84.87655v2.80829c2.08813-2.16022,5.1123-3.16827,9.50464-3.16827v9.2168h-3.88818 c-4.53638,0-5.61646,3.16827-5.61646,8.2807v20.30573h-9.36084V84.87655H99.92921z" transform="translate(458.24219 -122.31657)" stroke-width="0" stroke-linejoin="miter" stroke-miterlimit="2" fill="#555c45" stroke="#555c45"></path> </g>
        <g id="path506713" aria-label="i" transform="translate(0 397.78456) translate(580.8469541000001 43.90880000000001) scale(1.14) translate(-570.88869 46.08)"> <rect x="95.32033" y="76.2358" class="c3" width="9.36084" height="5.7605" transform="translate(475.568362 -122.315802)" stroke-width="0" stroke-linejoin="miter" stroke-miterlimit="2" fill="#c6a004" stroke="#c6a004"></rect> <polygon class="c1" points="104.60915,122.31979 95.32033,122.31979 95.32033,84.87655 104.68117,84.87655 " transform="translate(475.568362 -122.315802)" stroke-width="0" stroke-linejoin="miter" stroke-miterlimit="2" fill="#555c45" stroke="#555c45"></polygon> </g>
        <g id="path506715" aria-label="t" transform="translate(0 397.78456) translate(596.2547609000001 43.90880000000001) scale(1.14) translate(-583.40431 46.08)"> <path class="c1" d="M107.92189,122.31979h-4.32031c-6.98438,0-11.521-4.53638-11.521-11.521v-34.563h9.36084v8.64075h6.48047 v9.36084h-6.48047v16.5614c0,2.16022,0,2.16022,2.16016,2.16022h4.32031V122.31979z" transform="translate(491.32373 -122.31579)" stroke-width="0" stroke-linejoin="miter" stroke-miterlimit="2" fill="#555c45" stroke="#555c45"></path> </g>
        <g id="path506717" aria-label="e" transform="translate(0 397.78456) translate(617.4338291 53.348000000000006) scale(1.14) translate(-600.98244 37.8)"> <path class="c1" d="M80.92043,103.45419c0-12.60107,6.84058-18.93762,19.08179-18.93762 c12.24097,0,19.08154,6.33655,19.08154,18.93762v3.2403H89.92128c0.93604,4.32037,3.96033,6.76855,7.92065,6.76855h4.32043 c2.95215,0,5.32837-1.3681,6.76855-3.81635h9.43286c-1.51221,9.00079-8.35278,13.10516-18.36157,13.10516 C87.2571,122.75185,80.92043,115.91128,80.92043,103.45419z M109.65089,98.77377c-1.224-3.38428-3.96021-5.32843-7.48853-5.32843 h-4.32043c-3.52832,0-6.26453,1.94415-7.48865,5.32843H109.65089z" transform="translate(520.06201 -122.31657)" stroke-width="0" stroke-linejoin="miter" stroke-miterlimit="2" fill="#555c45" stroke="#555c45"></path> </g>
        <g id="path506719" aria-label="s" transform="translate(0 397.78456) translate(664.1025791000001 53.348000000000006) scale(1.14) translate(-640.91994 37.8)"> <path class="c1" d="M83.72853,109.64669h8.64111c0,3.4563,0.43213,3.81635,6.26416,3.81635h1.15234 c6.40869,0,7.84863-0.07196,7.84863-2.88025c0-2.0882-2.37598-2.44818-8.56885-3.4563 c-7.84863-1.44012-15.3374-2.59222-15.3374-11.88104c0.07227-9.00073,6.69678-10.72888,16.05762-10.72888 c10.08105,0,15.98535,3.60028,15.98535,12.38507h-8.64062c0-2.66425-0.72021-3.74432-6.62451-3.74432h-2.44824 c-4.89648,0.07202-5.68848,0.35999-5.68848,2.08813c0,2.01624,1.94385,2.23224,8.13672,3.38434 c8.49658,1.3681,15.76904,3.31226,15.76904,11.953c0,10.15289-7.34424,12.09705-16.48926,12.09705H98.6338 C89.48927,122.67983,83.72853,118.71951,83.72853,109.64669z" transform="translate(557.19142 -122.31657)" stroke-width="0" stroke-linejoin="miter" stroke-miterlimit="2" fill="#555c45" stroke="#555c45"></path> </g>
                </g>
    </g>
  </g>
</svg>