<svg width="1080" height="1080" viewBox="0 0 1080 1080" fill="none" xmlns="http://www.w3.org/2000/svg">
<circle cx="540" cy="540" r="540" fill="#333333"/>
<ellipse cx="540.5" cy="540" rx="493.5" ry="499" fill="#E6ECF0"/>
<path d="M216.815 540.493C216.815 503.569 225.141 470.446 241.793 441.124C258.445 411.44 281.07 388.272 309.668 371.62C338.628 354.968 370.665 346.642 405.779 346.642C447.047 346.642 483.066 356.597 513.836 376.507C544.606 396.417 567.05 424.653 581.168 461.215H521.981C511.483 438.409 496.279 420.852 476.369 408.544C456.821 396.236 433.291 390.082 405.779 390.082C379.353 390.082 355.642 396.236 334.646 408.544C313.65 420.852 297.179 438.409 285.233 461.215C273.287 483.659 267.314 510.085 267.314 540.493C267.314 570.539 273.287 596.965 285.233 619.771C297.179 642.215 313.65 659.591 334.646 671.899C355.642 684.207 379.353 690.361 405.779 690.361C433.291 690.361 456.821 684.388 476.369 672.442C496.279 660.134 511.483 642.577 521.981 619.771H581.168C567.05 655.971 544.606 684.026 513.836 703.936C483.066 723.484 447.047 733.258 405.779 733.258C370.665 733.258 338.628 725.113 309.668 708.823C281.07 692.171 258.445 669.184 241.793 639.862C225.141 610.54 216.815 577.417 216.815 540.493ZM868.666 351.529V391.711H704.137V519.316H837.715V559.498H704.137V730H654.724V351.529H868.666Z" fill="#333333"/>
</svg>
