<svg width="638" height="1045" viewBox="0 0 638 1045" fill="none" xmlns="http://www.w3.org/2000/svg">
<g filter="url(#filter0_d_1519_120)">
<rect x="8" y="30" width="570" height="977" rx="15" fill="white"/>
<rect x="8.5" y="30.5" width="569" height="976" rx="14.5" stroke="#DDDDDD"/>
</g>
<path d="M23 30.5H563C571.008 30.5 577.5 36.9919 577.5 45V63.5H8.5V45C8.5 36.9919 14.9919 30.5 23 30.5Z" fill="#ECECEC" stroke="#DDDDDD"/>
<circle cx="34" cy="47" r="5" fill="#008000" fill-opacity="0.5"/>
<circle cx="49" cy="47" r="5" fill="#FFC700" fill-opacity="0.5"/>
<circle cx="63" cy="47" r="5" fill="#FF0000" fill-opacity="0.5"/>
<mask id="path-7-inside-1_1519_120" fill="white">
<path d="M8 64H578V115H8V64Z"/>
</mask>
<path d="M8 64H578V115H8V64Z" fill="white"/>
<path d="M578 115V116H579V115H578ZM8 115H7V116H8V115ZM577 64V115H579V64H577ZM578 114H8V116H578V114ZM9 115V64H7V115H9Z" fill="#DDDDDD" mask="url(#path-7-inside-1_1519_120)"/>
<path d="M30.201 96V82.1818H33.1225V93.5913H39.0465V96H30.201ZM53.1413 89.0909C53.1413 90.5978 52.8557 91.8797 52.2844 92.9368C51.7177 93.9938 50.944 94.8013 49.9634 95.359C48.9873 95.9123 47.8898 96.1889 46.6708 96.1889C45.4428 96.1889 44.3408 95.91 43.3647 95.3523C42.3886 94.7945 41.6172 93.9871 41.0504 92.93C40.4837 91.873 40.2003 90.5933 40.2003 89.0909C40.2003 87.584 40.4837 86.3021 41.0504 85.245C41.6172 84.188 42.3886 83.3828 43.3647 82.8295C44.3408 82.2718 45.4428 81.9929 46.6708 81.9929C47.8898 81.9929 48.9873 82.2718 49.9634 82.8295C50.944 83.3828 51.7177 84.188 52.2844 85.245C52.8557 86.3021 53.1413 87.584 53.1413 89.0909ZM50.1793 89.0909C50.1793 88.1148 50.0331 87.2917 49.7408 86.6214C49.4529 85.9512 49.0458 85.4429 48.5195 85.0966C47.9933 84.7502 47.377 84.5771 46.6708 84.5771C45.9646 84.5771 45.3484 84.7502 44.8221 85.0966C44.2958 85.4429 43.8865 85.9512 43.5941 86.6214C43.3062 87.2917 43.1623 88.1148 43.1623 89.0909C43.1623 90.067 43.3062 90.8902 43.5941 91.5604C43.8865 92.2306 44.2958 92.7389 44.8221 93.0852C45.3484 93.4316 45.9646 93.6048 46.6708 93.6048C47.377 93.6048 47.9933 93.4316 48.5195 93.0852C49.0458 92.7389 49.4529 92.2306 49.7408 91.5604C50.0331 90.8902 50.1793 90.067 50.1793 89.0909ZM64.4681 86.6484C64.3737 86.3201 64.241 86.0299 64.07 85.7781C63.8991 85.5217 63.69 85.3058 63.4426 85.1303C63.1997 84.9504 62.9208 84.8132 62.6059 84.7188C62.2955 84.6243 61.9514 84.5771 61.5736 84.5771C60.8674 84.5771 60.2467 84.7525 59.7114 85.1033C59.1806 85.4542 58.7668 85.9647 58.4699 86.6349C58.173 87.3007 58.0246 88.1148 58.0246 89.0774C58.0246 90.04 58.1708 90.8587 58.4632 91.5334C58.7555 92.2081 59.1694 92.7231 59.7046 93.0785C60.2399 93.4293 60.8719 93.6048 61.6006 93.6048C62.2618 93.6048 62.8263 93.4878 63.2941 93.2539C63.7664 93.0155 64.1263 92.6804 64.3737 92.2486C64.6256 91.8168 64.7515 91.3062 64.7515 90.717L65.3453 90.8047H61.7828V88.6051H67.5651V90.3459C67.5651 91.5604 67.3087 92.6039 66.7959 93.4766C66.2831 94.3447 65.5769 95.0149 64.6773 95.4872C63.7777 95.955 62.7476 96.1889 61.5871 96.1889C60.2916 96.1889 59.1536 95.9033 58.173 95.332C57.1924 94.7563 56.4278 93.9399 55.879 92.8828C55.3347 91.8213 55.0626 90.5618 55.0626 89.1044C55.0626 87.9844 55.2245 86.9858 55.5484 86.1087C55.8767 85.227 56.3356 84.4804 56.9248 83.8686C57.5141 83.2569 58.2 82.7913 58.9827 82.4719C59.7654 82.1526 60.6133 81.9929 61.5264 81.9929C62.309 81.9929 63.0377 82.1076 63.7124 82.337C64.3872 82.5619 64.9854 82.8813 65.5072 83.2951C66.0335 83.7089 66.463 84.2015 66.7959 84.7727C67.1288 85.3395 67.3424 85.9647 67.4369 86.6484H64.4681ZM82.4577 89.0909C82.4577 90.5978 82.1721 91.8797 81.6009 92.9368C81.0341 93.9938 80.2604 94.8013 79.2798 95.359C78.3037 95.9123 77.2062 96.1889 75.9872 96.1889C74.7592 96.1889 73.6572 95.91 72.6811 95.3523C71.705 94.7945 70.9336 93.9871 70.3668 92.93C69.8001 91.873 69.5167 90.5933 69.5167 89.0909C69.5167 87.584 69.8001 86.3021 70.3668 85.245C70.9336 84.188 71.705 83.3828 72.6811 82.8295C73.6572 82.2718 74.7592 81.9929 75.9872 81.9929C77.2062 81.9929 78.3037 82.2718 79.2798 82.8295C80.2604 83.3828 81.0341 84.188 81.6009 85.245C82.1721 86.3021 82.4577 87.584 82.4577 89.0909ZM79.4957 89.0909C79.4957 88.1148 79.3496 87.2917 79.0572 86.6214C78.7693 85.9512 78.3622 85.4429 77.8359 85.0966C77.3097 84.7502 76.6934 84.5771 75.9872 84.5771C75.281 84.5771 74.6648 84.7502 74.1385 85.0966C73.6122 85.4429 73.2029 85.9512 72.9105 86.6214C72.6226 87.2917 72.4787 88.1148 72.4787 89.0909C72.4787 90.067 72.6226 90.8902 72.9105 91.5604C73.2029 92.2306 73.6122 92.7389 74.1385 93.0852C74.6648 93.4316 75.281 93.6048 75.9872 93.6048C76.6934 93.6048 77.3097 93.4316 77.8359 93.0852C78.3622 92.7389 78.7693 92.2306 79.0572 91.5604C79.3496 90.8902 79.4957 90.067 79.4957 89.0909Z" fill="#C3C3C3"/>
<rect x="541" y="83" width="17" height="2" fill="#C3C3C3"/>
<rect x="541" y="88" width="17" height="2" fill="#C3C3C3"/>
<rect x="541" y="93" width="17" height="2" fill="#C3C3C3"/>
<rect x="29" y="136" width="529" height="350" rx="10" fill="#ECECEC"/>
<path d="M229.376 286.763C231.368 283.949 235.544 283.949 237.537 286.763L281.327 348.611C283.672 351.922 281.304 356.5 277.246 356.5H233.456H189.667C185.609 356.5 183.241 351.922 185.586 348.611L229.376 286.763Z" fill="white"/>
<path d="M309.256 249.748C311.249 246.939 315.419 246.939 317.412 249.748L387.552 348.607C389.901 351.918 387.534 356.5 383.474 356.5H243.194C239.134 356.5 236.767 351.918 239.116 348.607L309.256 249.748Z" fill="white"/>
<circle cx="248.5" cy="244" r="15" fill="white"/>
<rect x="29" y="525" width="479" height="32" rx="5" fill="#ECECEC"/>
<rect x="29" y="574" width="368" height="32" rx="5" fill="#ECECEC"/>
<rect x="29" y="865" width="254" height="55" rx="5" fill="#ECECEC"/>
<rect x="29" y="658" width="529" height="26" rx="5" fill="#F4F4F4"/>
<rect x="29" y="701" width="529" height="26" rx="5" fill="#F4F4F4"/>
<rect x="29" y="744" width="511" height="26" rx="5" fill="#F4F4F4"/>
<rect x="29" y="787" width="413" height="26" rx="5" fill="#F4F4F4"/>
<defs>
<filter id="filter0_d_1519_120" x="0" y="0" width="638" height="1045" filterUnits="userSpaceOnUse" color-interpolation-filters="sRGB">
<feFlood flood-opacity="0" result="BackgroundImageFix"/>
<feColorMatrix in="SourceAlpha" type="matrix" values="0 0 0 0 0 0 0 0 0 0 0 0 0 0 0 0 0 0 127 0" result="hardAlpha"/>
<feOffset dx="26" dy="4"/>
<feGaussianBlur stdDeviation="17"/>
<feComposite in2="hardAlpha" operator="out"/>
<feColorMatrix type="matrix" values="0 0 0 0 0.866667 0 0 0 0 0.866667 0 0 0 0 0.866667 0 0 0 0.25 0"/>
<feBlend mode="normal" in2="BackgroundImageFix" result="effect1_dropShadow_1519_120"/>
<feBlend mode="normal" in="SourceGraphic" in2="effect1_dropShadow_1519_120" result="shape"/>
</filter>
</defs>
</svg>
