<svg width="379" height="54" viewBox="0 0 379 54" fill="none" xmlns="http://www.w3.org/2000/svg">
<path d="M21.9172 53.3565C6.07441 53.3565 0 45.3119 0 26.5962C0 7.14143 6.32065 0 21.9172 0C34.4765 0 40.8793 5.08937 42.8494 16.5815H36.6108C34.887 8.29076 31.9318 6.15645 21.9172 6.15645C9.11166 6.15645 6.15645 9.43993 6.15645 26.5962C6.15645 43.2599 9.11166 47.2001 21.9172 47.2001C30.7005 47.2001 33.984 45.2298 36.1183 38.1704H42.5211C39.8943 48.6775 33.2452 53.3565 21.9172 53.3565Z" fill="#C6A004"/>
<path d="M47.6289 31.4384C47.6289 17.73 55.345 9.84961 68.0685 9.84961C81.3666 9.84961 88.5901 17.73 88.5901 31.4384C88.5901 45.3932 80.7922 53.3557 68.0685 53.3557C54.6061 53.3557 47.6289 45.3932 47.6289 31.4384ZM64.9491 46.8708H71.27C77.837 46.8708 82.4337 41.1247 82.4337 31.4384C82.4337 21.7521 77.837 16.0061 71.27 16.0061H64.9491C58.3824 16.0061 53.7854 21.7521 53.7854 31.4384C53.7853 41.1247 58.3824 46.8708 64.9491 46.8708Z" fill="#C6A004"/>
<path d="M93.3359 31.439C93.3359 17.8946 101.463 9.85022 113.447 9.85022C118.865 9.85022 123.134 11.8202 126.253 15.1038V0.410156H132.409V52.9459H126.253V48.1027C123.134 51.4683 118.865 53.4384 113.447 53.4384C101.463 53.4384 93.3359 45.3118 93.3359 31.439ZM110.656 46.8714H115.992C122.641 46.8714 126.253 42.1924 126.253 34.8047V28.0735C126.253 20.6856 122.641 16.0067 115.992 16.0067H110.656C104.007 16.0067 99.4925 21.7527 99.4925 31.439C99.4925 41.1253 104.007 46.8714 110.656 46.8714Z" fill="#C6A004"/>
<path d="M137.121 31.5205C137.121 17.3194 144.509 9.84961 156.33 9.84961C168.15 9.84961 175.538 17.3194 175.538 31.5205V33.1623H143.442C143.77 43.5052 147.3 47.035 154.113 47.035H159.285C163.553 47.035 166.755 44.3261 168.725 38.9905H174.881C172.583 48.1021 165.852 53.3557 156.33 53.3557C144.016 53.3557 137.121 45.147 137.121 31.5205ZM169.053 27.4161C168.232 18.9613 164.784 16.0061 158.546 16.0061H154.113C147.875 16.0061 144.427 18.9613 143.606 27.4161H169.053Z" fill="#C6A004"/>
<path d="M188.438 0.492676H227.018V11.164H188.438V0.492676ZM227.018 31.7679H199.109V52.9464H188.438V21.0966H227.018V31.7679Z" fill="#555C45"/>
<path d="M242.414 10.26V13.4614C244.794 10.9988 248.242 9.84961 253.249 9.84961V20.3568H248.816C243.645 20.3568 242.414 23.9686 242.414 29.7968V52.9453H231.742V10.26H242.414Z" fill="#555C45"/>
<path d="M268.722 0.410156H258.051V6.97712H268.722V0.410156Z" fill="#C6A004"/>
<path d="M268.64 52.946H258.051V10.2607H268.722L268.64 52.946Z" fill="#555C45"/>
<path d="M291.516 52.9459H286.591C278.629 52.9459 273.457 47.7744 273.457 39.812V0.410156H284.128V10.2606H291.516V20.932H284.128V39.812C284.128 42.2746 284.128 42.2746 286.591 42.2746H291.516V52.9459Z" fill="#555C45"/>
<path d="M294.637 31.4385C294.637 17.0733 302.435 9.84961 316.39 9.84961C330.345 9.84961 338.143 17.0733 338.143 31.4385V35.1324H304.898C305.965 40.0577 309.412 42.8486 313.927 42.8486H318.853C322.218 42.8486 324.927 41.289 326.569 38.4979H337.322C335.598 48.7588 327.8 53.4378 316.39 53.4378C301.861 53.4378 294.637 45.6396 294.637 31.4385ZM327.389 26.1028C325.994 22.2447 322.875 20.0284 318.853 20.0284H313.927C309.905 20.0284 306.786 22.2447 305.39 26.1028H327.389Z" fill="#555C45"/>
<path d="M341.305 38.4979H351.156C351.156 42.4381 351.648 42.8486 358.297 42.8486H359.61C366.916 42.8486 368.558 42.7665 368.558 39.5651C368.558 37.1845 365.849 36.7742 358.789 35.6249C349.842 33.9832 341.305 32.6698 341.305 22.0805C341.387 11.8197 348.939 9.84961 359.61 9.84961C371.103 9.84961 377.834 13.9539 377.834 23.9686H367.983C367.983 20.9313 367.162 19.7001 360.431 19.7001H357.64C352.058 19.7822 351.156 20.1105 351.156 22.0805C351.156 24.379 353.372 24.6253 360.431 25.9387C370.118 27.4983 378.408 29.7147 378.408 39.5651C378.408 51.1394 370.036 53.3557 359.61 53.3557H358.297C347.872 53.3557 341.305 48.841 341.305 38.4979Z" fill="#555C45"/>
</svg>
