<svg width="2302" height="1409" viewBox="0 0 2302 1409" fill="none" xmlns="http://www.w3.org/2000/svg">
<rect x="123.5" y="0.5" width="2174" height="1181" rx="29.5" fill="white" stroke="#AAAAAA"/>
<rect x="1250" y="324" width="770" height="50" rx="10" fill="#ECECEC"/>
<rect x="1250" y="399" width="610" height="50" rx="10" fill="#ECECEC"/>
<rect x="1250" y="844" width="401" height="96" rx="10" fill="#ECECEC"/>
<rect x="1250" y="527" width="998" height="32" rx="10" fill="#F4F4F4"/>
<rect x="1250" y="584" width="998" height="32" rx="10" fill="#F4F4F4"/>
<rect x="1250" y="641" width="971" height="32" rx="10" fill="#F4F4F4"/>
<rect x="1250" y="698" width="859" height="32" rx="10" fill="#F4F4F4"/>
<rect x="162" y="324" width="1000" height="662" rx="20" fill="#ECECEC"/>
<circle cx="606" cy="573" r="25" fill="white"/>
<path d="M570.389 646.245C574.381 640.712 582.619 640.712 586.611 646.245L648.569 732.15C653.339 738.764 648.613 748 640.458 748H578.5H516.542C508.387 748 503.661 738.764 508.431 732.15L570.389 646.245Z" fill="white"/>
<path d="M694.352 609.293C698.343 603.743 706.601 603.743 710.591 609.293L798.93 732.162C803.686 738.778 798.958 748 790.81 748H614.133C605.985 748 601.257 738.778 606.014 732.162L694.352 609.293Z" fill="white"/>
<mask id="path-13-inside-1_1521_137" fill="white">
<path d="M123 30C123 13.4315 136.431 0 153 0H2268C2284.57 0 2298 13.4315 2298 30V96H123V30Z"/>
</mask>
<path d="M123 30C123 13.4315 136.431 0 153 0H2268C2284.57 0 2298 13.4315 2298 30V96H123V30Z" fill="#ECECEC"/>
<path d="M122 30C122 12.8792 135.879 -1 153 -1H2268C2285.12 -1 2299 12.8792 2299 30H2297C2297 13.9837 2284.02 1 2268 1H153C136.984 1 124 13.9837 124 30H122ZM2298 96H123H2298ZM122 96V30C122 12.8792 135.879 -1 153 -1V1C136.984 1 124 13.9837 124 30V96H122ZM2268 -1C2285.12 -1 2299 12.8792 2299 30V96H2297V30C2297 13.9837 2284.02 1 2268 1V-1Z" fill="#AAAAAA" mask="url(#path-13-inside-1_1521_137)"/>
<circle cx="174.5" cy="48.5" r="12" fill="#008000" fill-opacity="0.5" stroke="#AAAAAA"/>
<circle cx="204.5" cy="48.5" r="12" fill="#FFC700" fill-opacity="0.5" stroke="#AAAAAA"/>
<circle cx="235.5" cy="48.5" r="12" fill="#FF0000" fill-opacity="0.5" stroke="#AAAAAA"/>
<g filter="url(#filter0_d_1521_137)">
<mask id="path-18-inside-2_1521_137" fill="white">
<path d="M123 96H2298V226H123V96Z"/>
</mask>
<path d="M123 96H2298V226H123V96Z" fill="white"/>
<path d="M2297 96V226H2299V96H2297ZM124 226V96H122V226H124Z" fill="#AAAAAA" mask="url(#path-18-inside-2_1521_137)"/>
<path d="M164.276 174V147.818H169.811V169.436H181.036V174H164.276ZM207.741 160.909C207.741 163.764 207.2 166.193 206.118 168.196C205.044 170.199 203.578 171.729 201.72 172.786C199.871 173.834 197.791 174.358 195.482 174.358C193.155 174.358 191.067 173.83 189.217 172.773C187.368 171.716 185.906 170.186 184.832 168.183C183.759 166.18 183.222 163.756 183.222 160.909C183.222 158.054 183.759 155.625 184.832 153.622C185.906 151.619 187.368 150.094 189.217 149.045C191.067 147.989 193.155 147.46 195.482 147.46C197.791 147.46 199.871 147.989 201.72 149.045C203.578 150.094 205.044 151.619 206.118 153.622C207.2 155.625 207.741 158.054 207.741 160.909ZM202.129 160.909C202.129 159.06 201.852 157.5 201.298 156.23C200.753 154.96 199.982 153.997 198.984 153.341C197.987 152.685 196.82 152.357 195.482 152.357C194.143 152.357 192.976 152.685 191.979 153.341C190.982 153.997 190.206 154.96 189.652 156.23C189.107 157.5 188.834 159.06 188.834 160.909C188.834 162.759 189.107 164.318 189.652 165.588C190.206 166.858 190.982 167.821 191.979 168.477C192.976 169.134 194.143 169.462 195.482 169.462C196.82 169.462 197.987 169.134 198.984 168.477C199.982 167.821 200.753 166.858 201.298 165.588C201.852 164.318 202.129 162.759 202.129 160.909ZM229.203 156.281C229.024 155.659 228.772 155.109 228.449 154.632C228.125 154.146 227.728 153.737 227.26 153.405C226.799 153.064 226.271 152.804 225.674 152.625C225.086 152.446 224.434 152.357 223.718 152.357C222.38 152.357 221.204 152.689 220.19 153.354C219.184 154.018 218.4 154.986 217.838 156.256C217.275 157.517 216.994 159.06 216.994 160.884C216.994 162.707 217.271 164.259 217.825 165.537C218.379 166.815 219.163 167.791 220.177 168.464C221.191 169.129 222.389 169.462 223.77 169.462C225.022 169.462 226.092 169.24 226.978 168.797C227.873 168.345 228.555 167.71 229.024 166.892C229.501 166.074 229.74 165.107 229.74 163.99L230.865 164.156H224.115V159.989H235.071V163.287C235.071 165.588 234.585 167.565 233.613 169.219C232.642 170.864 231.304 172.134 229.599 173.028C227.895 173.915 225.943 174.358 223.744 174.358C221.289 174.358 219.133 173.817 217.275 172.734C215.417 171.643 213.968 170.097 212.929 168.094C211.897 166.082 211.382 163.696 211.382 160.935C211.382 158.812 211.689 156.92 212.302 155.259C212.924 153.588 213.794 152.173 214.91 151.014C216.027 149.855 217.326 148.973 218.809 148.368C220.292 147.763 221.899 147.46 223.629 147.46C225.112 147.46 226.493 147.678 227.771 148.112C229.049 148.538 230.183 149.143 231.172 149.928C232.169 150.712 232.983 151.645 233.613 152.727C234.244 153.801 234.649 154.986 234.828 156.281H229.203ZM263.288 160.909C263.288 163.764 262.747 166.193 261.665 168.196C260.591 170.199 259.125 171.729 257.267 172.786C255.418 173.834 253.338 174.358 251.028 174.358C248.702 174.358 246.614 173.83 244.764 172.773C242.915 171.716 241.453 170.186 240.379 168.183C239.305 166.18 238.768 163.756 238.768 160.909C238.768 158.054 239.305 155.625 240.379 153.622C241.453 151.619 242.915 150.094 244.764 149.045C246.614 147.989 248.702 147.46 251.028 147.46C253.338 147.46 255.418 147.989 257.267 149.045C259.125 150.094 260.591 151.619 261.665 153.622C262.747 155.625 263.288 158.054 263.288 160.909ZM257.676 160.909C257.676 159.06 257.399 157.5 256.845 156.23C256.3 154.96 255.528 153.997 254.531 153.341C253.534 152.685 252.366 152.357 251.028 152.357C249.69 152.357 248.523 152.685 247.526 153.341C246.528 153.997 245.753 154.96 245.199 156.23C244.653 157.5 244.381 159.06 244.381 160.909C244.381 162.759 244.653 164.318 245.199 165.588C245.753 166.858 246.528 167.821 247.526 168.477C248.523 169.134 249.69 169.462 251.028 169.462C252.366 169.462 253.534 169.134 254.531 168.477C255.528 167.821 256.3 166.858 256.845 165.588C257.399 164.318 257.676 162.759 257.676 160.909Z" fill="#C3C3C3"/>
<path d="M1844.92 170V152.545H1847.55V160.131H1856.25V152.545H1858.89V170H1856.25V162.389H1847.55V170H1844.92ZM1868.04 170.264C1866.81 170.264 1865.74 169.983 1864.83 169.42C1863.91 168.858 1863.2 168.071 1862.7 167.06C1862.19 166.048 1861.94 164.866 1861.94 163.514C1861.94 162.156 1862.19 160.969 1862.7 159.952C1863.2 158.935 1863.91 158.145 1864.83 157.582C1865.74 157.02 1866.81 156.739 1868.04 156.739C1869.27 156.739 1870.34 157.02 1871.25 157.582C1872.17 158.145 1872.88 158.935 1873.38 159.952C1873.89 160.969 1874.14 162.156 1874.14 163.514C1874.14 164.866 1873.89 166.048 1873.38 167.06C1872.88 168.071 1872.17 168.858 1871.25 169.42C1870.34 169.983 1869.27 170.264 1868.04 170.264ZM1868.05 168.125C1868.84 168.125 1869.5 167.915 1870.03 167.494C1870.55 167.074 1870.93 166.514 1871.18 165.815C1871.44 165.116 1871.57 164.347 1871.57 163.506C1871.57 162.67 1871.44 161.903 1871.18 161.205C1870.93 160.5 1870.55 159.935 1870.03 159.509C1869.5 159.082 1868.84 158.869 1868.05 158.869C1867.25 158.869 1866.58 159.082 1866.05 159.509C1865.53 159.935 1865.14 160.5 1864.89 161.205C1864.64 161.903 1864.51 162.67 1864.51 163.506C1864.51 164.347 1864.64 165.116 1864.89 165.815C1865.14 166.514 1865.53 167.074 1866.05 167.494C1866.58 167.915 1867.25 168.125 1868.05 168.125ZM1876.99 170V156.909H1879.43V159.04H1879.59C1879.87 158.318 1880.31 157.756 1880.93 157.352C1881.55 156.943 1882.29 156.739 1883.16 156.739C1884.03 156.739 1884.76 156.943 1885.36 157.352C1885.95 157.761 1886.39 158.324 1886.68 159.04H1886.81C1887.13 158.341 1887.62 157.784 1888.3 157.369C1888.99 156.949 1889.8 156.739 1890.74 156.739C1891.93 156.739 1892.9 157.111 1893.65 157.855C1894.4 158.599 1894.78 159.722 1894.78 161.222V170H1892.23V161.46C1892.23 160.574 1891.99 159.932 1891.51 159.534C1891.03 159.136 1890.45 158.938 1889.78 158.938C1888.95 158.938 1888.3 159.193 1887.84 159.705C1887.38 160.21 1887.15 160.861 1887.15 161.656V170H1884.61V161.298C1884.61 160.588 1884.39 160.017 1883.95 159.585C1883.51 159.153 1882.93 158.938 1882.22 158.938C1881.74 158.938 1881.29 159.065 1880.88 159.321C1880.48 159.571 1880.15 159.92 1879.9 160.369C1879.66 160.818 1879.53 161.338 1879.53 161.929V170H1876.99ZM1903.84 170.264C1902.55 170.264 1901.44 169.989 1900.51 169.438C1899.58 168.881 1898.87 168.099 1898.36 167.094C1897.86 166.082 1897.61 164.898 1897.61 163.54C1897.61 162.199 1897.86 161.017 1898.36 159.994C1898.87 158.972 1899.57 158.173 1900.47 157.599C1901.38 157.026 1902.44 156.739 1903.66 156.739C1904.4 156.739 1905.12 156.861 1905.81 157.105C1906.5 157.349 1907.12 157.733 1907.67 158.256C1908.23 158.778 1908.66 159.457 1908.98 160.293C1909.3 161.122 1909.46 162.131 1909.46 163.318V164.222H1899.05V162.312H1906.96C1906.96 161.642 1906.82 161.048 1906.55 160.531C1906.28 160.009 1905.89 159.597 1905.4 159.295C1904.91 158.994 1904.34 158.844 1903.68 158.844C1902.96 158.844 1902.34 159.02 1901.8 159.372C1901.27 159.719 1900.87 160.173 1900.58 160.736C1900.29 161.293 1900.15 161.898 1900.15 162.551V164.043C1900.15 164.918 1900.3 165.662 1900.61 166.276C1900.92 166.889 1901.36 167.358 1901.91 167.682C1902.47 168 1903.12 168.159 1903.87 168.159C1904.35 168.159 1904.79 168.091 1905.19 167.955C1905.58 167.812 1905.93 167.602 1906.22 167.324C1906.51 167.045 1906.73 166.702 1906.88 166.293L1909.29 166.727C1909.1 167.437 1908.75 168.06 1908.25 168.594C1907.76 169.122 1907.14 169.534 1906.39 169.83C1905.64 170.119 1904.79 170.264 1903.84 170.264Z" fill="#7D7D7D"/>
<path d="M1939.39 170H1936.6L1942.88 152.545H1945.92L1952.2 170H1949.41L1944.47 155.716H1944.34L1939.39 170ZM1939.86 163.165H1948.93V165.381H1939.86V163.165ZM1954.72 170V152.545H1957.27V159.031H1957.42C1957.57 158.759 1957.78 158.443 1958.06 158.085C1958.34 157.727 1958.73 157.415 1959.22 157.148C1959.72 156.875 1960.37 156.739 1961.18 156.739C1962.24 156.739 1963.18 157.006 1964.01 157.54C1964.84 158.074 1965.49 158.844 1965.96 159.849C1966.44 160.855 1966.68 162.065 1966.68 163.48C1966.68 164.895 1966.44 166.108 1965.97 167.119C1965.5 168.125 1964.85 168.901 1964.03 169.446C1963.21 169.986 1962.26 170.256 1961.21 170.256C1960.41 170.256 1959.76 170.122 1959.26 169.855C1958.76 169.588 1958.36 169.276 1958.08 168.918C1957.8 168.56 1957.58 168.241 1957.42 167.963H1957.21V170H1954.72ZM1957.22 163.455C1957.22 164.375 1957.35 165.182 1957.62 165.875C1957.89 166.568 1958.27 167.111 1958.78 167.503C1959.28 167.889 1959.9 168.082 1960.64 168.082C1961.4 168.082 1962.03 167.881 1962.55 167.477C1963.06 167.068 1963.44 166.514 1963.71 165.815C1963.97 165.116 1964.11 164.33 1964.11 163.455C1964.11 162.591 1963.98 161.815 1963.71 161.128C1963.46 160.44 1963.07 159.898 1962.55 159.5C1962.04 159.102 1961.4 158.903 1960.64 158.903C1959.9 158.903 1959.27 159.094 1958.76 159.474C1958.26 159.855 1957.87 160.386 1957.61 161.068C1957.35 161.75 1957.22 162.545 1957.22 163.455ZM1975.06 170.264C1973.83 170.264 1972.76 169.983 1971.84 169.42C1970.93 168.858 1970.22 168.071 1969.71 167.06C1969.21 166.048 1968.95 164.866 1968.95 163.514C1968.95 162.156 1969.21 160.969 1969.71 159.952C1970.22 158.935 1970.93 158.145 1971.84 157.582C1972.76 157.02 1973.83 156.739 1975.06 156.739C1976.28 156.739 1977.35 157.02 1978.27 157.582C1979.18 158.145 1979.89 158.935 1980.4 159.952C1980.9 160.969 1981.16 162.156 1981.16 163.514C1981.16 164.866 1980.9 166.048 1980.4 167.06C1979.89 168.071 1979.18 168.858 1978.27 169.42C1977.35 169.983 1976.28 170.264 1975.06 170.264ZM1975.06 168.125C1975.86 168.125 1976.52 167.915 1977.04 167.494C1977.56 167.074 1977.95 166.514 1978.2 165.815C1978.46 165.116 1978.58 164.347 1978.58 163.506C1978.58 162.67 1978.46 161.903 1978.2 161.205C1977.95 160.5 1977.56 159.935 1977.04 159.509C1976.52 159.082 1975.86 158.869 1975.06 158.869C1974.26 158.869 1973.6 159.082 1973.07 159.509C1972.55 159.935 1972.16 160.5 1971.9 161.205C1971.65 161.903 1971.53 162.67 1971.53 163.506C1971.53 164.347 1971.65 165.116 1971.9 165.815C1972.16 166.514 1972.55 167.074 1973.07 167.494C1973.6 167.915 1974.26 168.125 1975.06 168.125ZM1992.29 164.571V156.909H1994.85V170H1992.35V167.733H1992.21C1991.91 168.432 1991.43 169.014 1990.76 169.48C1990.1 169.94 1989.28 170.17 1988.3 170.17C1987.46 170.17 1986.71 169.986 1986.06 169.616C1985.42 169.241 1984.92 168.688 1984.55 167.955C1984.18 167.222 1984 166.315 1984 165.236V156.909H1986.55V164.929C1986.55 165.821 1986.8 166.531 1987.29 167.06C1987.79 167.588 1988.43 167.852 1989.22 167.852C1989.7 167.852 1990.17 167.733 1990.64 167.494C1991.12 167.256 1991.51 166.895 1991.83 166.412C1992.14 165.929 1992.3 165.315 1992.29 164.571ZM2004.39 156.909V158.955H1997.24V156.909H2004.39ZM1999.15 153.773H2001.7V166.156C2001.7 166.651 2001.78 167.023 2001.92 167.273C2002.07 167.517 2002.26 167.685 2002.49 167.776C2002.73 167.861 2002.99 167.903 2003.27 167.903C2003.47 167.903 2003.65 167.889 2003.81 167.861C2003.96 167.832 2004.08 167.81 2004.16 167.793L2004.62 169.898C2004.48 169.955 2004.27 170.011 2003.99 170.068C2003.72 170.131 2003.38 170.165 2002.97 170.17C2002.3 170.182 2001.68 170.062 2001.1 169.812C2000.52 169.562 2000.05 169.176 1999.69 168.653C1999.33 168.131 1999.15 167.474 1999.15 166.685V153.773Z" fill="#C3C3C3"/>
<path d="M2042.44 157.131C2042.35 156.324 2041.97 155.699 2041.31 155.256C2040.65 154.807 2039.82 154.582 2038.82 154.582C2038.11 154.582 2037.49 154.696 2036.97 154.923C2036.44 155.145 2036.04 155.452 2035.75 155.844C2035.46 156.23 2035.32 156.67 2035.32 157.165C2035.32 157.58 2035.42 157.937 2035.61 158.239C2035.81 158.54 2036.07 158.793 2036.39 158.997C2036.71 159.196 2037.06 159.364 2037.43 159.5C2037.8 159.631 2038.15 159.739 2038.49 159.824L2040.2 160.267C2040.75 160.403 2041.32 160.588 2041.91 160.821C2042.49 161.054 2043.04 161.361 2043.54 161.741C2044.04 162.122 2044.44 162.594 2044.75 163.156C2045.06 163.719 2045.22 164.392 2045.22 165.176C2045.22 166.165 2044.96 167.043 2044.45 167.81C2043.94 168.577 2043.21 169.182 2042.24 169.625C2041.28 170.068 2040.12 170.29 2038.76 170.29C2037.45 170.29 2036.32 170.082 2035.36 169.668C2034.41 169.253 2033.66 168.665 2033.12 167.903C2032.58 167.136 2032.28 166.227 2032.23 165.176H2034.87C2034.92 165.807 2035.13 166.332 2035.48 166.753C2035.85 167.168 2036.31 167.477 2036.87 167.682C2037.44 167.881 2038.06 167.98 2038.74 167.98C2039.48 167.98 2040.14 167.864 2040.72 167.631C2041.31 167.392 2041.77 167.062 2042.11 166.642C2042.44 166.216 2042.61 165.719 2042.61 165.151C2042.61 164.634 2042.46 164.21 2042.16 163.881C2041.88 163.551 2041.48 163.278 2040.98 163.062C2040.49 162.847 2039.93 162.656 2039.3 162.491L2037.24 161.929C2035.84 161.548 2034.73 160.989 2033.91 160.25C2033.1 159.511 2032.7 158.534 2032.7 157.318C2032.7 156.312 2032.97 155.435 2033.51 154.685C2034.06 153.935 2034.8 153.352 2035.73 152.938C2036.66 152.517 2037.71 152.307 2038.88 152.307C2040.07 152.307 2041.11 152.514 2042.01 152.929C2042.92 153.344 2043.64 153.915 2044.16 154.642C2044.68 155.364 2044.95 156.193 2044.98 157.131H2042.44ZM2053.8 170.264C2052.51 170.264 2051.4 169.989 2050.47 169.438C2049.54 168.881 2048.83 168.099 2048.32 167.094C2047.82 166.082 2047.57 164.898 2047.57 163.54C2047.57 162.199 2047.82 161.017 2048.32 159.994C2048.83 158.972 2049.53 158.173 2050.43 157.599C2051.34 157.026 2052.41 156.739 2053.62 156.739C2054.36 156.739 2055.08 156.861 2055.77 157.105C2056.46 157.349 2057.08 157.733 2057.64 158.256C2058.19 158.778 2058.62 159.457 2058.94 160.293C2059.26 161.122 2059.42 162.131 2059.42 163.318V164.222H2049.01V162.312H2056.92C2056.92 161.642 2056.78 161.048 2056.51 160.531C2056.24 160.009 2055.85 159.597 2055.36 159.295C2054.87 158.994 2054.3 158.844 2053.64 158.844C2052.92 158.844 2052.3 159.02 2051.76 159.372C2051.24 159.719 2050.83 160.173 2050.54 160.736C2050.25 161.293 2050.11 161.898 2050.11 162.551V164.043C2050.11 164.918 2050.26 165.662 2050.57 166.276C2050.88 166.889 2051.32 167.358 2051.87 167.682C2052.43 168 2053.08 168.159 2053.83 168.159C2054.31 168.159 2054.75 168.091 2055.15 167.955C2055.54 167.812 2055.89 167.602 2056.18 167.324C2056.47 167.045 2056.69 166.702 2056.84 166.293L2059.25 166.727C2059.06 167.437 2058.72 168.06 2058.22 168.594C2057.72 169.122 2057.1 169.534 2056.35 169.83C2055.6 170.119 2054.75 170.264 2053.8 170.264ZM2062.24 170V156.909H2064.71V158.989H2064.84C2065.08 158.284 2065.5 157.73 2066.11 157.327C2066.71 156.918 2067.4 156.713 2068.17 156.713C2068.33 156.713 2068.51 156.719 2068.73 156.73C2068.95 156.741 2069.12 156.756 2069.25 156.773V159.21C2069.15 159.182 2068.97 159.151 2068.7 159.116C2068.44 159.077 2068.18 159.057 2067.92 159.057C2067.32 159.057 2066.78 159.185 2066.31 159.44C2065.84 159.69 2065.47 160.04 2065.2 160.489C2064.93 160.932 2064.79 161.437 2064.79 162.006V170H2062.24ZM2083.05 156.909L2078.31 170H2075.58L2070.82 156.909H2073.56L2076.87 166.983H2077.01L2080.32 156.909H2083.05ZM2085.45 170V156.909H2088V170H2085.45ZM2086.73 154.889C2086.29 154.889 2085.91 154.741 2085.59 154.446C2085.28 154.145 2085.12 153.787 2085.12 153.372C2085.12 152.952 2085.28 152.594 2085.59 152.298C2085.91 151.997 2086.29 151.847 2086.73 151.847C2087.18 151.847 2087.56 151.997 2087.87 152.298C2088.19 152.594 2088.35 152.952 2088.35 153.372C2088.35 153.787 2088.19 154.145 2087.87 154.446C2087.56 154.741 2087.18 154.889 2086.73 154.889ZM2096.94 170.264C2095.67 170.264 2094.58 169.977 2093.67 169.403C2092.76 168.824 2092.06 168.026 2091.57 167.009C2091.08 165.991 2090.84 164.827 2090.84 163.514C2090.84 162.185 2091.09 161.011 2091.59 159.994C2092.09 158.972 2092.79 158.173 2093.7 157.599C2094.61 157.026 2095.68 156.739 2096.91 156.739C2097.91 156.739 2098.79 156.923 2099.57 157.293C2100.35 157.656 2100.98 158.168 2101.46 158.827C2101.94 159.486 2102.23 160.256 2102.32 161.136H2099.84C2099.7 160.523 2099.39 159.994 2098.9 159.551C2098.42 159.108 2097.77 158.886 2096.96 158.886C2096.25 158.886 2095.62 159.074 2095.09 159.449C2094.56 159.818 2094.15 160.347 2093.85 161.034C2093.56 161.716 2093.41 162.523 2093.41 163.455C2093.41 164.409 2093.55 165.233 2093.84 165.926C2094.13 166.619 2094.54 167.156 2095.07 167.537C2095.61 167.918 2096.23 168.108 2096.96 168.108C2097.44 168.108 2097.88 168.02 2098.27 167.844C2098.67 167.662 2099 167.403 2099.26 167.068C2099.54 166.733 2099.73 166.33 2099.84 165.858H2102.32C2102.23 166.705 2101.95 167.46 2101.49 168.125C2101.03 168.79 2100.41 169.312 2099.64 169.693C2098.87 170.074 2097.97 170.264 2096.94 170.264ZM2110.68 170.264C2109.39 170.264 2108.28 169.989 2107.35 169.438C2106.42 168.881 2105.71 168.099 2105.2 167.094C2104.7 166.082 2104.45 164.898 2104.45 163.54C2104.45 162.199 2104.7 161.017 2105.2 159.994C2105.71 158.972 2106.41 158.173 2107.32 157.599C2108.23 157.026 2109.29 156.739 2110.5 156.739C2111.24 156.739 2111.96 156.861 2112.65 157.105C2113.35 157.349 2113.97 157.733 2114.52 158.256C2115.07 158.778 2115.5 159.457 2115.82 160.293C2116.14 161.122 2116.3 162.131 2116.3 163.318V164.222H2105.89V162.312H2113.8C2113.8 161.642 2113.67 161.048 2113.39 160.531C2113.12 160.009 2112.74 159.597 2112.24 159.295C2111.75 158.994 2111.18 158.844 2110.52 158.844C2109.81 158.844 2109.18 159.02 2108.65 159.372C2108.12 159.719 2107.71 160.173 2107.42 160.736C2107.13 161.293 2106.99 161.898 2106.99 162.551V164.043C2106.99 164.918 2107.15 165.662 2107.45 166.276C2107.77 166.889 2108.2 167.358 2108.76 167.682C2109.31 168 2109.96 168.159 2110.71 168.159C2111.19 168.159 2111.63 168.091 2112.03 167.955C2112.43 167.812 2112.77 167.602 2113.06 167.324C2113.35 167.045 2113.57 166.702 2113.73 166.293L2116.14 166.727C2115.94 167.437 2115.6 168.06 2115.1 168.594C2114.6 169.122 2113.98 169.534 2113.23 169.83C2112.49 170.119 2111.64 170.264 2110.68 170.264ZM2128.94 160.105L2126.63 160.514C2126.53 160.219 2126.38 159.937 2126.17 159.67C2125.96 159.403 2125.68 159.185 2125.33 159.014C2124.98 158.844 2124.54 158.759 2124.01 158.759C2123.29 158.759 2122.69 158.92 2122.2 159.244C2121.72 159.562 2121.48 159.974 2121.48 160.48C2121.48 160.918 2121.64 161.27 2121.97 161.537C2122.29 161.804 2122.81 162.023 2123.53 162.193L2125.61 162.67C2126.82 162.949 2127.72 163.378 2128.31 163.957C2128.9 164.537 2129.19 165.29 2129.19 166.216C2129.19 167 2128.97 167.699 2128.51 168.312C2128.06 168.92 2127.43 169.398 2126.63 169.744C2125.83 170.091 2124.9 170.264 2123.84 170.264C2122.37 170.264 2121.18 169.952 2120.25 169.327C2119.33 168.696 2118.76 167.801 2118.55 166.642L2121.01 166.267C2121.16 166.909 2121.48 167.395 2121.96 167.724C2122.43 168.048 2123.06 168.21 2123.82 168.21C2124.66 168.21 2125.33 168.037 2125.83 167.69C2126.33 167.338 2126.58 166.909 2126.58 166.403C2126.58 165.994 2126.42 165.651 2126.12 165.372C2125.81 165.094 2125.35 164.884 2124.73 164.741L2122.51 164.256C2121.29 163.977 2120.39 163.534 2119.8 162.926C2119.22 162.318 2118.93 161.548 2118.93 160.616C2118.93 159.844 2119.15 159.168 2119.58 158.588C2120.01 158.009 2120.61 157.557 2121.37 157.233C2122.13 156.903 2123 156.739 2123.99 156.739C2125.4 156.739 2126.51 157.045 2127.33 157.659C2128.14 158.267 2128.68 159.082 2128.94 160.105Z" fill="#C3C3C3"/>
<path d="M2172.41 158.222H2169.76C2169.65 157.653 2169.46 157.153 2169.18 156.722C2168.91 156.29 2168.57 155.923 2168.16 155.622C2167.76 155.321 2167.31 155.094 2166.81 154.94C2166.31 154.787 2165.79 154.71 2165.23 154.71C2164.22 154.71 2163.32 154.963 2162.53 155.469C2161.74 155.974 2161.11 156.716 2160.65 157.693C2160.2 158.67 2159.97 159.864 2159.97 161.273C2159.97 162.693 2160.2 163.892 2160.65 164.869C2161.11 165.847 2161.74 166.585 2162.54 167.085C2163.33 167.585 2164.23 167.835 2165.22 167.835C2165.77 167.835 2166.3 167.761 2166.79 167.614C2167.29 167.46 2167.74 167.236 2168.14 166.94C2168.55 166.645 2168.89 166.284 2169.17 165.858C2169.45 165.426 2169.65 164.932 2169.76 164.375L2172.41 164.384C2172.27 165.241 2172 166.031 2171.59 166.753C2171.18 167.469 2170.66 168.088 2170.03 168.611C2169.4 169.128 2168.68 169.528 2167.86 169.812C2167.05 170.097 2166.16 170.239 2165.2 170.239C2163.69 170.239 2162.35 169.881 2161.16 169.165C2159.98 168.443 2159.05 167.412 2158.37 166.071C2157.69 164.73 2157.36 163.131 2157.36 161.273C2157.36 159.409 2157.7 157.81 2158.38 156.474C2159.06 155.134 2159.99 154.105 2161.17 153.389C2162.36 152.668 2163.7 152.307 2165.2 152.307C2166.13 152.307 2166.99 152.44 2167.8 152.707C2168.6 152.969 2169.33 153.355 2169.97 153.866C2170.61 154.372 2171.14 154.991 2171.56 155.724C2171.98 156.452 2172.27 157.284 2172.41 158.222ZM2180.88 170.264C2179.65 170.264 2178.58 169.983 2177.66 169.42C2176.75 168.858 2176.04 168.071 2175.53 167.06C2175.03 166.048 2174.77 164.866 2174.77 163.514C2174.77 162.156 2175.03 160.969 2175.53 159.952C2176.04 158.935 2176.75 158.145 2177.66 157.582C2178.58 157.02 2179.65 156.739 2180.88 156.739C2182.1 156.739 2183.17 157.02 2184.09 157.582C2185 158.145 2185.71 158.935 2186.22 159.952C2186.73 160.969 2186.98 162.156 2186.98 163.514C2186.98 164.866 2186.73 166.048 2186.22 167.06C2185.71 168.071 2185 168.858 2184.09 169.42C2183.17 169.983 2182.1 170.264 2180.88 170.264ZM2180.88 168.125C2181.68 168.125 2182.34 167.915 2182.86 167.494C2183.38 167.074 2183.77 166.514 2184.02 165.815C2184.28 165.116 2184.4 164.347 2184.4 163.506C2184.4 162.67 2184.28 161.903 2184.02 161.205C2183.77 160.5 2183.38 159.935 2182.86 159.509C2182.34 159.082 2181.68 158.869 2180.88 158.869C2180.08 158.869 2179.42 159.082 2178.89 159.509C2178.37 159.935 2177.98 160.5 2177.72 161.205C2177.47 161.903 2177.35 162.67 2177.35 163.506C2177.35 164.347 2177.47 165.116 2177.72 165.815C2177.98 166.514 2178.37 167.074 2178.89 167.494C2179.42 167.915 2180.08 168.125 2180.88 168.125ZM2192.37 162.227V170H2189.82V156.909H2192.27V159.04H2192.43C2192.73 158.347 2193.2 157.79 2193.85 157.369C2194.49 156.949 2195.31 156.739 2196.29 156.739C2197.18 156.739 2197.96 156.926 2198.63 157.301C2199.31 157.67 2199.83 158.222 2200.19 158.955C2200.56 159.687 2200.75 160.594 2200.75 161.673V170H2198.2V161.98C2198.2 161.031 2197.95 160.29 2197.46 159.756C2196.96 159.216 2196.29 158.946 2195.42 158.946C2194.83 158.946 2194.31 159.074 2193.85 159.33C2193.39 159.585 2193.03 159.96 2192.76 160.455C2192.5 160.943 2192.37 161.534 2192.37 162.227ZM2210.28 156.909V158.955H2203.13V156.909H2210.28ZM2205.04 153.773H2207.59V166.156C2207.59 166.651 2207.67 167.023 2207.81 167.273C2207.96 167.517 2208.15 167.685 2208.38 167.776C2208.62 167.861 2208.88 167.903 2209.16 167.903C2209.37 167.903 2209.54 167.889 2209.7 167.861C2209.85 167.832 2209.97 167.81 2210.06 167.793L2210.52 169.898C2210.37 169.955 2210.16 170.011 2209.88 170.068C2209.61 170.131 2209.27 170.165 2208.86 170.17C2208.19 170.182 2207.57 170.062 2206.99 169.812C2206.41 169.562 2205.94 169.176 2205.58 168.653C2205.22 168.131 2205.04 167.474 2205.04 166.685V153.773ZM2216.91 170.29C2216.08 170.29 2215.33 170.136 2214.66 169.83C2213.99 169.517 2213.45 169.065 2213.06 168.474C2212.68 167.884 2212.48 167.159 2212.48 166.301C2212.48 165.562 2212.62 164.955 2212.91 164.477C2213.19 164 2213.58 163.622 2214.06 163.344C2214.54 163.065 2215.08 162.855 2215.68 162.713C2216.27 162.571 2216.88 162.463 2217.5 162.389C2218.29 162.298 2218.92 162.224 2219.41 162.168C2219.9 162.105 2220.25 162.006 2220.48 161.869C2220.7 161.733 2220.81 161.511 2220.81 161.205V161.145C2220.81 160.401 2220.6 159.824 2220.18 159.415C2219.76 159.006 2219.14 158.801 2218.32 158.801C2217.46 158.801 2216.79 158.991 2216.29 159.372C2215.8 159.747 2215.47 160.165 2215.28 160.625L2212.88 160.08C2213.17 159.284 2213.58 158.642 2214.13 158.153C2214.68 157.659 2215.31 157.301 2216.03 157.08C2216.74 156.852 2217.5 156.739 2218.29 156.739C2218.81 156.739 2219.36 156.801 2219.95 156.926C2220.54 157.045 2221.09 157.267 2221.6 157.591C2222.12 157.915 2222.54 158.378 2222.87 158.98C2223.2 159.577 2223.37 160.352 2223.37 161.307V170H2220.88V168.21H2220.77C2220.61 168.54 2220.36 168.864 2220.03 169.182C2219.7 169.5 2219.28 169.764 2218.76 169.974C2218.25 170.185 2217.63 170.29 2216.91 170.29ZM2217.46 168.244C2218.16 168.244 2218.77 168.105 2219.27 167.827C2219.77 167.548 2220.16 167.185 2220.42 166.736C2220.68 166.281 2220.82 165.795 2220.82 165.278V163.591C2220.73 163.682 2220.55 163.767 2220.29 163.847C2220.03 163.92 2219.74 163.986 2219.41 164.043C2219.08 164.094 2218.76 164.142 2218.45 164.188C2218.14 164.227 2217.87 164.261 2217.66 164.29C2217.17 164.352 2216.72 164.457 2216.31 164.605C2215.91 164.753 2215.58 164.966 2215.34 165.244C2215.1 165.517 2214.98 165.881 2214.98 166.335C2214.98 166.966 2215.21 167.443 2215.68 167.767C2216.14 168.085 2216.74 168.244 2217.46 168.244ZM2232.27 170.264C2231.01 170.264 2229.92 169.977 2229 169.403C2228.09 168.824 2227.39 168.026 2226.9 167.009C2226.42 165.991 2226.17 164.827 2226.17 163.514C2226.17 162.185 2226.42 161.011 2226.92 159.994C2227.42 158.972 2228.13 158.173 2229.04 157.599C2229.94 157.026 2231.02 156.739 2232.25 156.739C2233.24 156.739 2234.13 156.923 2234.91 157.293C2235.69 157.656 2236.31 158.168 2236.79 158.827C2237.27 159.486 2237.56 160.256 2237.65 161.136H2235.17C2235.04 160.523 2234.72 159.994 2234.23 159.551C2233.75 159.108 2233.1 158.886 2232.29 158.886C2231.58 158.886 2230.96 159.074 2230.42 159.449C2229.9 159.818 2229.48 160.347 2229.19 161.034C2228.89 161.716 2228.75 162.523 2228.75 163.455C2228.75 164.409 2228.89 165.233 2229.18 165.926C2229.47 166.619 2229.88 167.156 2230.41 167.537C2230.94 167.918 2231.57 168.108 2232.29 168.108C2232.77 168.108 2233.21 168.02 2233.6 167.844C2234 167.662 2234.33 167.403 2234.6 167.068C2234.87 166.733 2235.06 166.33 2235.17 165.858H2237.65C2237.56 166.705 2237.29 167.46 2236.83 168.125C2236.37 168.79 2235.75 169.312 2234.98 169.693C2234.21 170.074 2233.31 170.264 2232.27 170.264ZM2246.49 156.909V158.955H2239.34V156.909H2246.49ZM2241.25 153.773H2243.8V166.156C2243.8 166.651 2243.88 167.023 2244.02 167.273C2244.17 167.517 2244.36 167.685 2244.6 167.776C2244.83 167.861 2245.09 167.903 2245.37 167.903C2245.58 167.903 2245.75 167.889 2245.91 167.861C2246.06 167.832 2246.18 167.81 2246.27 167.793L2246.73 169.898C2246.58 169.955 2246.37 170.011 2246.1 170.068C2245.82 170.131 2245.48 170.165 2245.07 170.17C2244.4 170.182 2243.78 170.062 2243.2 169.812C2242.62 169.562 2242.15 169.176 2241.79 168.653C2241.43 168.131 2241.25 167.474 2241.25 166.685V153.773Z" fill="#C3C3C3"/>
</g>
<g filter="url(#filter1_d_1521_137)">
<rect x="8" y="394" width="570" height="977" rx="15" fill="white"/>
<rect x="8.5" y="394.5" width="569" height="976" rx="14.5" stroke="#AAAAAA"/>
</g>
<mask id="path-27-inside-3_1521_137" fill="white">
<path d="M8 409C8 400.716 14.7157 394 23 394H563C571.284 394 578 400.716 578 409V428H8V409Z"/>
</mask>
<path d="M8 409C8 400.716 14.7157 394 23 394H563C571.284 394 578 400.716 578 409V428H8V409Z" fill="#ECECEC"/>
<path d="M7 409C7 400.163 14.1634 393 23 393H563C571.837 393 579 400.163 579 409H577C577 401.268 570.732 395 563 395H23C15.268 395 9 401.268 9 409H7ZM578 428H8H578ZM7 428V409C7 400.163 14.1634 393 23 393V395C15.268 395 9 401.268 9 409V428H7ZM563 393C571.837 393 579 400.163 579 409V428H577V409C577 401.268 570.732 395 563 395V393Z" fill="#AAAAAA" mask="url(#path-27-inside-3_1521_137)"/>
<circle cx="34" cy="411" r="5" fill="#008000" fill-opacity="0.5"/>
<circle cx="49" cy="411" r="5" fill="#FFC700" fill-opacity="0.5"/>
<circle cx="63" cy="411" r="5" fill="#FF0000" fill-opacity="0.5"/>
<g filter="url(#filter2_d_1521_137)">
<mask id="path-32-inside-4_1521_137" fill="white">
<path d="M8 428H578V479H8V428Z"/>
</mask>
<path d="M8 428H578V479H8V428Z" fill="white"/>
<path d="M577 428V479H579V428H577ZM9 479V428H7V479H9Z" fill="#AAAAAA" mask="url(#path-32-inside-4_1521_137)"/>
<path d="M30.201 460V446.182H33.1225V457.591H39.0465V460H30.201ZM53.1413 453.091C53.1413 454.598 52.8557 455.88 52.2844 456.937C51.7177 457.994 50.944 458.801 49.9634 459.359C48.9873 459.912 47.8898 460.189 46.6708 460.189C45.4428 460.189 44.3408 459.91 43.3647 459.352C42.3886 458.795 41.6172 457.987 41.0504 456.93C40.4837 455.873 40.2003 454.593 40.2003 453.091C40.2003 451.584 40.4837 450.302 41.0504 449.245C41.6172 448.188 42.3886 447.383 43.3647 446.83C44.3408 446.272 45.4428 445.993 46.6708 445.993C47.8898 445.993 48.9873 446.272 49.9634 446.83C50.944 447.383 51.7177 448.188 52.2844 449.245C52.8557 450.302 53.1413 451.584 53.1413 453.091ZM50.1793 453.091C50.1793 452.115 50.0331 451.292 49.7408 450.621C49.4529 449.951 49.0458 449.443 48.5195 449.097C47.9933 448.75 47.377 448.577 46.6708 448.577C45.9646 448.577 45.3484 448.75 44.8221 449.097C44.2958 449.443 43.8865 449.951 43.5941 450.621C43.3062 451.292 43.1623 452.115 43.1623 453.091C43.1623 454.067 43.3062 454.89 43.5941 455.56C43.8865 456.231 44.2958 456.739 44.8221 457.085C45.3484 457.432 45.9646 457.605 46.6708 457.605C47.377 457.605 47.9933 457.432 48.5195 457.085C49.0458 456.739 49.4529 456.231 49.7408 455.56C50.0331 454.89 50.1793 454.067 50.1793 453.091ZM64.4681 450.648C64.3737 450.32 64.241 450.03 64.07 449.778C63.8991 449.522 63.69 449.306 63.4426 449.13C63.1997 448.95 62.9208 448.813 62.6059 448.719C62.2955 448.624 61.9514 448.577 61.5736 448.577C60.8674 448.577 60.2467 448.752 59.7114 449.103C59.1806 449.454 58.7668 449.965 58.4699 450.635C58.173 451.301 58.0246 452.115 58.0246 453.077C58.0246 454.04 58.1708 454.859 58.4632 455.533C58.7555 456.208 59.1694 456.723 59.7046 457.078C60.2399 457.429 60.8719 457.605 61.6006 457.605C62.2618 457.605 62.8263 457.488 63.2941 457.254C63.7664 457.016 64.1263 456.68 64.3737 456.249C64.6256 455.817 64.7515 455.306 64.7515 454.717L65.3453 454.805H61.7828V452.605H67.5651V454.346C67.5651 455.56 67.3087 456.604 66.7959 457.477C66.2831 458.345 65.5769 459.015 64.6773 459.487C63.7777 459.955 62.7476 460.189 61.5871 460.189C60.2916 460.189 59.1536 459.903 58.173 459.332C57.1924 458.756 56.4278 457.94 55.879 456.883C55.3347 455.821 55.0626 454.562 55.0626 453.104C55.0626 451.984 55.2245 450.986 55.5484 450.109C55.8767 449.227 56.3356 448.48 56.9248 447.869C57.5141 447.257 58.2 446.791 58.9827 446.472C59.7654 446.153 60.6133 445.993 61.5264 445.993C62.309 445.993 63.0377 446.108 63.7124 446.337C64.3872 446.562 64.9854 446.881 65.5072 447.295C66.0335 447.709 66.463 448.201 66.7959 448.773C67.1288 449.339 67.3424 449.965 67.4369 450.648H64.4681ZM82.4577 453.091C82.4577 454.598 82.1721 455.88 81.6009 456.937C81.0341 457.994 80.2604 458.801 79.2798 459.359C78.3037 459.912 77.2062 460.189 75.9872 460.189C74.7592 460.189 73.6572 459.91 72.6811 459.352C71.705 458.795 70.9336 457.987 70.3668 456.93C69.8001 455.873 69.5167 454.593 69.5167 453.091C69.5167 451.584 69.8001 450.302 70.3668 449.245C70.9336 448.188 71.705 447.383 72.6811 446.83C73.6572 446.272 74.7592 445.993 75.9872 445.993C77.2062 445.993 78.3037 446.272 79.2798 446.83C80.2604 447.383 81.0341 448.188 81.6009 449.245C82.1721 450.302 82.4577 451.584 82.4577 453.091ZM79.4957 453.091C79.4957 452.115 79.3496 451.292 79.0572 450.621C78.7693 449.951 78.3622 449.443 77.8359 449.097C77.3097 448.75 76.6934 448.577 75.9872 448.577C75.281 448.577 74.6648 448.75 74.1385 449.097C73.6122 449.443 73.2029 449.951 72.9105 450.621C72.6226 451.292 72.4787 452.115 72.4787 453.091C72.4787 454.067 72.6226 454.89 72.9105 455.56C73.2029 456.231 73.6122 456.739 74.1385 457.085C74.6648 457.432 75.281 457.605 75.9872 457.605C76.6934 457.605 77.3097 457.432 77.8359 457.085C78.3622 456.739 78.7693 456.231 79.0572 455.56C79.3496 454.89 79.4957 454.067 79.4957 453.091Z" fill="#C3C3C3"/>
<path d="M541 447H558V449H541V447Z" fill="#C3C3C3"/>
<path d="M541 452H558V454H541V452Z" fill="#C3C3C3"/>
<path d="M541 457H558V459H541V457Z" fill="#C3C3C3"/>
</g>
<rect x="29" y="519" width="529" height="350" rx="10" fill="#ECECEC"/>
<path d="M229.376 669.763C231.368 666.949 235.544 666.949 237.537 669.763L281.327 731.611C283.672 734.922 281.304 739.5 277.246 739.5H233.456H189.667C185.609 739.5 183.241 734.922 185.586 731.611L229.376 669.763Z" fill="white"/>
<path d="M309.256 632.748C311.249 629.939 315.419 629.939 317.412 632.748L387.552 731.607C389.901 734.918 387.534 739.5 383.474 739.5H243.194C239.134 739.5 236.767 734.918 239.116 731.607L309.256 632.748Z" fill="white"/>
<circle cx="248.5" cy="627" r="15" fill="white"/>
<rect x="29" y="908" width="479" height="32" rx="5" fill="#ECECEC"/>
<rect x="29" y="957" width="368" height="32" rx="5" fill="#ECECEC"/>
<rect x="29" y="1248" width="254" height="55" rx="5" fill="#ECECEC"/>
<rect x="29" y="1041" width="529" height="26" rx="5" fill="#F4F4F4"/>
<rect x="29" y="1084" width="529" height="26" rx="5" fill="#F4F4F4"/>
<rect x="29" y="1127" width="511" height="26" rx="5" fill="#F4F4F4"/>
<rect x="29" y="1170" width="413" height="26" rx="5" fill="#F4F4F4"/>
<defs>
<filter id="filter0_d_1521_137" x="119" y="96" width="2183" height="138" filterUnits="userSpaceOnUse" color-interpolation-filters="sRGB">
<feFlood flood-opacity="0" result="BackgroundImageFix"/>
<feColorMatrix in="SourceAlpha" type="matrix" values="0 0 0 0 0 0 0 0 0 0 0 0 0 0 0 0 0 0 127 0" result="hardAlpha"/>
<feOffset dy="4"/>
<feGaussianBlur stdDeviation="2"/>
<feComposite in2="hardAlpha" operator="out"/>
<feColorMatrix type="matrix" values="0 0 0 0 0.675 0 0 0 0 0.675 0 0 0 0 0.675 0 0 0 0.25 0"/>
<feBlend mode="normal" in2="BackgroundImageFix" result="effect1_dropShadow_1521_137"/>
<feBlend mode="normal" in="SourceGraphic" in2="effect1_dropShadow_1521_137" result="shape"/>
</filter>
<filter id="filter1_d_1521_137" x="0" y="364" width="638" height="1045" filterUnits="userSpaceOnUse" color-interpolation-filters="sRGB">
<feFlood flood-opacity="0" result="BackgroundImageFix"/>
<feColorMatrix in="SourceAlpha" type="matrix" values="0 0 0 0 0 0 0 0 0 0 0 0 0 0 0 0 0 0 127 0" result="hardAlpha"/>
<feOffset dx="26" dy="4"/>
<feGaussianBlur stdDeviation="17"/>
<feComposite in2="hardAlpha" operator="out"/>
<feColorMatrix type="matrix" values="0 0 0 0 0.866667 0 0 0 0 0.866667 0 0 0 0 0.866667 0 0 0 0.25 0"/>
<feBlend mode="normal" in2="BackgroundImageFix" result="effect1_dropShadow_1521_137"/>
<feBlend mode="normal" in="SourceGraphic" in2="effect1_dropShadow_1521_137" result="shape"/>
</filter>
<filter id="filter2_d_1521_137" x="4" y="428" width="578" height="59" filterUnits="userSpaceOnUse" color-interpolation-filters="sRGB">
<feFlood flood-opacity="0" result="BackgroundImageFix"/>
<feColorMatrix in="SourceAlpha" type="matrix" values="0 0 0 0 0 0 0 0 0 0 0 0 0 0 0 0 0 0 127 0" result="hardAlpha"/>
<feOffset dy="4"/>
<feGaussianBlur stdDeviation="2"/>
<feComposite in2="hardAlpha" operator="out"/>
<feColorMatrix type="matrix" values="0 0 0 0 0.67451 0 0 0 0 0.67451 0 0 0 0 0.67451 0 0 0 0.25 0"/>
<feBlend mode="normal" in2="BackgroundImageFix" result="effect1_dropShadow_1521_137"/>
<feBlend mode="normal" in="SourceGraphic" in2="effect1_dropShadow_1521_137" result="shape"/>
</filter>
</defs>
</svg>
