<svg xmlns="http://www.w3.org/2000/svg" xmlns:xlink="http://www.w3.org/1999/xlink" viewBox="0 0 64 64" width="64" height="64" preserveAspectRatio="xMidYMid meet" style="width: 100%; height: 100%; transform: translate3d(0px, 0px, 0px); content-visibility: visible;"><defs><clipPath id="__lottie_element_24"><rect width="64" height="64" x="0" y="0"></rect></clipPath><clipPath id="__lottie_element_26"><path d="M0,0 L300,0 L300,300 L0,300z"></path></clipPath><symbol id="__lottie_element_35"><g><g transform="matrix(1,0,0,1,150,217)" opacity="1" style="display: block;"><g opacity="1" transform="matrix(1,0,0,1.046820044517517,-0.9139999747276306,-117.61900329589844)"><path fill="rgb(28,7,7)" fill-opacity="1" d=" M147.94749450683594,-42.18550109863281 C147.94749450683594,-42.18550109863281 147.94749450683594,42.18550109863281 147.94749450683594,42.18550109863281 C147.94749450683594,42.18550109863281 -147.94749450683594,42.18550109863281 -147.94749450683594,42.18550109863281 C-147.94749450683594,42.18550109863281 -147.94749450683594,-42.18550109863281 -147.94749450683594,-42.18550109863281 C-147.94749450683594,-42.18550109863281 147.94749450683594,-42.18550109863281 147.94749450683594,-42.18550109863281z"></path><path stroke-linecap="butt" stroke-linejoin="miter" fill-opacity="0" stroke-miterlimit="4" stroke="rgb(255,255,255)" stroke-opacity="1" stroke-width="2" d=" M147.94749450683594,-42.18550109863281 C147.94749450683594,-42.18550109863281 147.94749450683594,42.18550109863281 147.94749450683594,42.18550109863281 C147.94749450683594,42.18550109863281 -147.94749450683594,42.18550109863281 -147.94749450683594,42.18550109863281 C-147.94749450683594,42.18550109863281 -147.94749450683594,-42.18550109863281 -147.94749450683594,-42.18550109863281 C-147.94749450683594,-42.18550109863281 147.94749450683594,-42.18550109863281 147.94749450683594,-42.18550109863281z"></path></g></g></g></symbol><symbol id="__lottie_element_41"><g><g transform="matrix(1,0,0,0.7976899743080139,151,224.5)" opacity="1" style="display: block;"><g opacity="1" transform="matrix(1,0,0,1,-1.0670000314712524,-43.266998291015625)"><path fill="rgb(28,7,7)" fill-opacity="1" d=" M148.4324951171875,-43.23350143432617 C148.4324951171875,-43.23350143432617 148.4324951171875,43.23350143432617 148.4324951171875,43.23350143432617 C148.4324951171875,43.23350143432617 -148.4324951171875,43.23350143432617 -148.4324951171875,43.23350143432617 C-148.4324951171875,43.23350143432617 -148.4324951171875,-43.23350143432617 -148.4324951171875,-43.23350143432617 C-148.4324951171875,-43.23350143432617 148.4324951171875,-43.23350143432617 148.4324951171875,-43.23350143432617z"></path><path stroke-linecap="butt" stroke-linejoin="miter" fill-opacity="0" stroke-miterlimit="4" stroke="rgb(255,255,255)" stroke-opacity="1" stroke-width="2" d=" M148.4324951171875,-43.23350143432617 C148.4324951171875,-43.23350143432617 148.4324951171875,43.23350143432617 148.4324951171875,43.23350143432617 C148.4324951171875,43.23350143432617 -148.4324951171875,43.23350143432617 -148.4324951171875,43.23350143432617 C-148.4324951171875,43.23350143432617 -148.4324951171875,-43.23350143432617 -148.4324951171875,-43.23350143432617 C-148.4324951171875,-43.23350143432617 148.4324951171875,-43.23350143432617 148.4324951171875,-43.23350143432617z"></path></g></g></g></symbol><mask id="__lottie_element_41_1" mask-type="alpha"><use xlink:href="#__lottie_element_41"></use></mask><filter id="__lottie_element_44" filterUnits="objectBoundingBox" x="0%" y="0%" width="100%" height="100%"><feComponentTransfer in="SourceGraphic"><feFuncA type="table" tableValues="1.0 0.0"></feFuncA></feComponentTransfer></filter><mask id="__lottie_element_35_2" mask-type="alpha"><g filter="url(#__lottie_element_44)"><rect width="300" height="300" x="0" y="0" fill="#ffffff" opacity="0"></rect><use xlink:href="#__lottie_element_35"></use></g></mask></defs><g clip-path="url(#__lottie_element_24)"><g clip-path="url(#__lottie_element_26)" transform="matrix(-0.1865294873714447,0.10352710634469986,-0.10352710634469986,-0.1865294873714447,75.50848388671875,44.45035934448242)" opacity="1" style="display: block;"><g transform="matrix(1,0,0,1,76.5260009765625,49.75)" opacity="1" style="display: block;"><g opacity="1" transform="matrix(1,0,0,1,73.4729995727539,100.25)"><path fill="rgb(209,215,221)" fill-opacity="1" d=" M65.17400360107422,83.9020004272461 C65.17400360107422,83.9020004272461 58.270999908447266,83.9020004272461 58.270999908447266,83.9020004272461 C58.270999908447266,83.9020004272461 58.270999908447266,80.76899719238281 58.270999908447266,80.76899719238281 C58.270999908447266,64.16400146484375 60.428001403808594,49.849998474121094 53.35499954223633,34.01900100708008 C49.41400146484375,25.160999298095703 40.68899917602539,18.392000198364258 33.347999572753906,12.32800006866455 C30.483999252319336,9.937000274658203 24.590999603271484,5.2210001945495605 22.87299919128418,1.9199999570846558 C22.704999923706055,1.6169999837875366 22.400999069213867,1.0449999570846558 22.23200035095215,0.5730000138282776 C22.50200080871582,-0.10000000149011612 23.006999969482422,-0.9419999718666077 23.31100082397461,-1.4129999876022339 C25.33099937438965,-4.949999809265137 30.856000900268555,-9.5649995803833 33.95399856567383,-12.293000221252441 C38.637001037597656,-16.43600082397461 43.3849983215332,-20.409000396728516 47.459999084472656,-25.159000396728516 C61.47100067138672,-41.292999267578125 58.270999908447266,-61.33300018310547 58.270999908447266,-80.76699829101562 C58.270999908447266,-80.76699829101562 58.270999908447266,-83.93399810791016 58.270999908447266,-83.93399810791016 C58.270999908447266,-83.93399810791016 65.17400360107422,-83.93399810791016 65.17400360107422,-83.93399810791016 C69.58599853515625,-83.93399810791016 73.2229995727539,-87.53800201416016 73.2229995727539,-91.9489974975586 C73.2229995727539,-96.39600372314453 69.58599853515625,-100 65.17400360107422,-100 C65.17400360107422,-100 -65.1729965209961,-100 -65.1729965209961,-100 C-69.58499908447266,-100 -73.2229995727539,-96.39600372314453 -73.2229995727539,-91.9489974975586 C-73.2229995727539,-87.53800201416016 -69.58499908447266,-83.93399810791016 -65.1729965209961,-83.93399810791016 C-65.1729965209961,-83.93399810791016 -58.26599884033203,-83.93399810791016 -58.26599884033203,-83.93399810791016 C-58.26599884033203,-83.93399810791016 -58.26599884033203,-80.76699829101562 -58.26599884033203,-80.76699829101562 C-58.26599884033203,-61.33300018310547 -61.46500015258789,-41.292999267578125 -47.487998962402344,-25.159000396728516 C-43.4119987487793,-20.409000396728516 -38.630001068115234,-16.43600082397461 -33.94900131225586,-12.293000221252441 C-30.850000381469727,-9.5649995803833 -25.358999252319336,-4.949999809265137 -23.30500030517578,-1.4129999876022339 C-23.034000396728516,-0.9419999718666077 -22.52899932861328,-0.10000000149011612 -22.226999282836914,0.5730000138282776 C-22.429000854492188,1.0449999570846558 -22.697999954223633,1.6169999837875366 -22.899999618530273,1.9199999570846558 C-24.618000030517578,5.2210001945495605 -30.511999130249023,9.937000274658203 -33.34199905395508,12.32800006866455 C-40.68299865722656,18.392000198364258 -49.40800094604492,25.160999298095703 -53.38199996948242,34.01900100708008 C-60.45500183105469,49.849998474121094 -58.26599884033203,64.16400146484375 -58.26599884033203,80.76899719238281 C-58.26599884033203,80.76899719238281 -58.26599884033203,83.9020004272461 -58.26599884033203,83.9020004272461 C-58.26599884033203,83.9020004272461 -65.1729965209961,83.9020004272461 -65.1729965209961,83.9020004272461 C-69.58499908447266,83.9020004272461 -73.2229995727539,87.54000091552734 -73.2229995727539,91.95099639892578 C-73.2229995727539,96.39700317382812 -69.58499908447266,100 -65.1729965209961,100 C-65.1729965209961,100 65.17400360107422,100 65.17400360107422,100 C69.58599853515625,100 73.2229995727539,96.39700317382812 73.2229995727539,91.95099639892578 C73.2229995727539,87.54000091552734 69.58599853515625,83.9020004272461 65.17400360107422,83.9020004272461z M-44.724998474121094,37.891998291015625 C-41.65999984741211,30.954999923706055 -33.17300033569336,24.452999114990234 -27.34600067138672,19.604000091552734 C-23.20199966430664,16.167999267578125 -17.073999404907227,11.116000175476074 -14.513999938964844,6.367000102996826 C-11.78499984741211,1.1119999885559082 -12.222999572753906,-1.0770000219345093 -15.119999885559082,-6.129000186920166 C-17.847999572753906,-10.878999710083008 -23.641000747680664,-15.79699993133545 -27.716999053955078,-19.43400001525879 C-31.993000030517578,-23.20599937438965 -36.643001556396484,-27.011999130249023 -40.347999572753906,-31.35700035095215 C-52.000999450683594,-44.762001037597656 -48.834999084472656,-64.43199920654297 -48.834999084472656,-80.76699829101562 C-48.834999084472656,-80.76699829101562 -48.834999084472656,-83.93399810791016 -48.834999084472656,-83.93399810791016 C-48.834999084472656,-83.93399810791016 48.77399826049805,-83.93399810791016 48.77399826049805,-83.93399810791016 C48.77399826049805,-83.93399810791016 48.77399826049805,-80.76699829101562 48.77399826049805,-80.76699829101562 C48.77399826049805,-64.43199920654297 52.00699996948242,-44.762001037597656 40.31999969482422,-31.35700035095215 C36.64899826049805,-27.011999130249023 32,-23.20599937438965 27.68899917602539,-19.43400001525879 C23.648000717163086,-15.829999923706055 17.820999145507812,-10.878999710083008 15.092000007629395,-6.129000186920166 C12.196000099182129,-1.0770000219345093 11.791000366210938,1.1119999885559082 14.520000457763672,6.367000102996826 C17.079999923706055,11.116000175476074 23.142000198364258,16.167999267578125 27.35300064086914,19.604000091552734 C33.14500045776367,24.452999114990234 41.66600036621094,30.954999923706055 44.731998443603516,37.891998291015625 C50.99599838256836,51.801998138427734 48.77399826049805,66.04900360107422 48.77399826049805,80.76899719238281 C48.77399826049805,80.76899719238281 48.77399826049805,83.9020004272461 48.77399826049805,83.9020004272461 C48.77399826049805,83.9020004272461 -48.834999084472656,83.9020004272461 -48.834999084472656,83.9020004272461 C-48.834999084472656,83.9020004272461 -48.834999084472656,80.76899719238281 -48.834999084472656,80.76899719238281 C-48.834999084472656,66.04900360107422 -50.99100112915039,51.801998138427734 -44.724998474121094,37.891998291015625z"></path></g></g><g mask="url(#__lottie_element_35_2)" style="display: block;"><g transform="matrix(1,0,0,1,114.10301208496094,78.1780014038086)" opacity="1"><g opacity="1" transform="matrix(1,0,0,1,35.8849983215332,32.01100158691406)"><path fill="rgb(209,215,221)" fill-opacity="1" d=" M-0.03400000184774399,31.761999130249023 C0.5720000267028809,30.211999893188477 1.2790000438690186,28.628000259399414 2.121999979019165,26.910999298095703 C5.757999897003174,20.0049991607666 12.428000450134277,14.281000137329102 18.354999542236328,9.36400032043457 C21.690000534057617,6.636000156402588 30.312999725341797,-0.13600000739097595 31.996000289916992,-3.8410000801086426 C35.6349983215332,-11.991000175476074 35.33100128173828,-22.229999542236328 35.02899932861328,-31.761999130249023 C35.02899932861328,-31.761999130249023 -34.96200180053711,-31.761999130249023 -34.96200180053711,-31.761999130249023 C-35.332000732421875,-22.229999542236328 -35.6349983215332,-11.991000175476074 -31.996999740600586,-3.8410000801086426 C-30.280000686645508,-0.13600000739097595 -21.624000549316406,6.636000156402588 -18.391000747680664,9.36400032043457 C-12.428999900817871,14.281000137329102 -5.714000225067139,19.98200035095215 -2.122999906539917,26.910999298095703 C-1.2350000143051147,28.62299919128418 -0.5400000214576721,30.211999893188477 -0.03400000184774399,31.761999130249023z"></path></g></g></g><g mask="url(#__lottie_element_41_1)" style="display: block;"><g transform="matrix(1,0,0,1,114.12699890136719,157.8000030517578)" opacity="1"><g opacity="1" transform="matrix(1,0,0,1,35.8849983215332,32.01100158691406)"><path fill="rgb(209,215,221)" fill-opacity="1" d=" M0.03400000184774399,-31.761999130249023 C-0.5720000267028809,-30.211999893188477 -1.2790000438690186,-28.628000259399414 -2.121999979019165,-26.910999298095703 C-5.757999897003174,-20.0049991607666 -12.428000450134277,-14.279999732971191 -18.354999542236328,-9.36299991607666 C-21.690000534057617,-6.635000228881836 -30.312999725341797,0.13600000739097595 -31.996000289916992,3.8410000801086426 C-35.6349983215332,11.991000175476074 -35.33100128173828,22.229999542236328 -35.02899932861328,31.761999130249023 C-35.02899932861328,31.761999130249023 34.96200180053711,31.761999130249023 34.96200180053711,31.761999130249023 C35.332000732421875,22.229999542236328 35.6349983215332,11.991000175476074 31.996999740600586,3.8410000801086426 C30.280000686645508,0.13600000739097595 21.624000549316406,-6.635000228881836 18.391000747680664,-9.36299991607666 C12.428999900817871,-14.279999732971191 5.760000228881836,-20.0049991607666 2.122999906539917,-26.910999298095703 C1.246999979019165,-28.628000259399414 0.5400000214576721,-30.211999893188477 0.03400000184774399,-31.761999130249023z"></path></g></g></g></g></g></svg>